<svg id="Слой_1" data-name="Слой 1" xmlns="http://www.w3.org/2000/svg" viewBox="0 0 887.99933 330.58204"><defs><style>.cls-1{fill:#d7222f;}.cls-2{fill:#131028;}</style></defs><title>BASET logo</title><polygon class="cls-1" points="151.413 44.68 151.413 92.652 186.972 109.859 186.972 310.039 228.154 330.358 228.154 130.194 298.432 163.543 298.432 115.58 151.413 44.68"/><polygon class="cls-2" points="151.413 212.931 151.413 187.321 151.413 173.57 128.86 151.89 151.413 140.964 151.413 116.205 151.413 98.5 151.413 92.652 151.413 44.68 151.413 43.128 151.413 0.045 151.413 0 0 73.714 0 118.547 0.173 118.463 0.173 250.879 36.855 233.404 36.855 100.605 114.731 62.692 114.731 117.977 68.443 140.402 68.443 181.159 93.876 168.838 114.731 188.651 114.731 231.066 0 287.787 0 330.582 151.466 255.7 151.466 212.904 151.413 212.931"/><path class="cls-2" d="M391.54436,203.7938l36.23791.04859V188.02717H377.10961V235.077H346.75546V163.41773h-.13661l112.9315-.08886V224.099h-21.179l50.642,50.64172H346.75546V250.04243h81.0268l-36.23791-36.58115Z" transform="translate(-0.00036 -0.00015)"/><path class="cls-2" d="M454.75529,274.74074l111.41189-111.4119v111.4119H541.46884V222.85365L489.582,274.74074Z" transform="translate(-0.00036 -0.00015)"/><path class="cls-2" d="M566.16719,274.74074l-24.69831-24.69831H657.32212V234.22722H581.98236V163.32887H697.83595l30.38481,24.69831H612.36747v21.502h69.65326v65.21157Z" transform="translate(-0.00036 -0.00015)"/><path class="cls-2" d="M697.83595,274.74074V188.02717H687.70749l-30.38537-24.69832H809.24788v24.69832H728.22075v21.502h63.96672v24.698H728.22075v15.81522h77.96819v24.69831Z" transform="translate(-0.00036 -0.00015)"/><path class="cls-2" d="M819.37573,274.74074V188.02717H778.86251l28.43384-24.69832h80.70272l.0006,24.69832h-38.2391v86.71356Z" transform="translate(-0.00036 -0.00015)"/></svg>