<svg id="Слой_1" data-name="Слой 1" xmlns="http://www.w3.org/2000/svg" viewBox="0 0 1697.0625 858.4585"><defs><style>.cls-1{font-size:72px;font-family:OpenSans-SemiBold, Open Sans;}.cls-1,.cls-8,.cls-9{font-weight:700;}.cls-2{fill:#dcb05e;}.cls-3{fill:#e25c5c;}.cls-4,.cls-9{fill:#dd4343;}.cls-5{fill:#606060;}.cls-6{fill:#45ad6e;}.cls-7,.cls-8{fill:#28a058;}.cls-8,.cls-9{font-size:48px;font-family:OpenSans-Bold, Open Sans;}</style></defs><title>chart 2a</title><text class="cls-1" transform="translate(1278 442.56787)">Rewrite test</text><rect class="cls-2" x="1278" y="457.46338" width="99" height="6"/><text class="cls-1" transform="translate(0 442.56787)">Rewrite code</text><rect class="cls-2" y="457.46338" width="99" height="6"/><path class="cls-3" d="M369.50048,641.49973q10.99179,2.85384,21.66892,5.18094c.75032,1.22705,1.46992,2.47345,2.24472,3.68515-6.40649-1.33517-12.84937-2.843-19.40738-4.47424l5.10791,8.45447c.86918,1.39771,1.66235,2.84381,2.59386,4.20184l1.37781,2.04941.17223.25616,4.91923,7.318,2.47794,3.68671c.82536,1.22937,1.63577,2.4693,2.54344,3.64056l10.6032,14.259,11.24873,13.75677A456.24964,456.24964,0,0,0,465.25673,753.742a517.05953,517.05953,0,0,0,57.05336,42.36646,586.95854,586.95854,0,0,0,62.181,34.49786,688.84374,688.84374,0,0,0,65.64774,27.42426q33.54936,11.904,68.08188,20.75464l8.63235,2.17163c2.88031.712,5.74576,1.48578,8.64914,2.10187l17.37146,3.89954c11.63422,2.3493,23.26447,4.73163,34.98108,6.6477l8.77219,1.51965,8.806,1.31213,8.80621,1.31073,4.40405.6485,4.41736.55267,17.6709,2.19745,17.71582,1.80756q35.46423,3.28217,71.09674,4.173c23.74084.54376,47.49677.20593,71.21814-.83862,5.9278-.31879,11.86151-.53955,17.78436-.93866l17.76477-1.26227c11.82593-1.04535,23.65747-2.0611,35.44391-3.49811,23.58252-2.74829,47.09625-6.1684,70.42078-10.6178q34.98724-6.653,69.41547-15.86255l8.58166-2.36682c2.85742-.79962,5.73132-1.543,8.56268-2.43188l17.04144-5.15088,16.90918-5.56537c5.622-1.89667,11.18317-3.96851,16.77777-5.944,44.51624-16.37512,87.7041-36.78265,127.33191-62.86011a424.65519,424.65519,0,0,0,55.96081-43.67847A321.35649,321.35649,0,0,0,1509.18665,692.61l2.62671,1.77991a324.52011,324.52011,0,0,1-46.892,54.04205,427.80263,427.80263,0,0,1-56.37878,44.00745c-39.88477,26.24548-83.28381,46.74585-127.98731,63.19061-5.61749,1.98383-11.20233,4.064-16.8468,5.96838l-16.9762,5.58734-17.1062,5.17053c-2.84241.89209-5.72644,1.63843-8.59442,2.441l-8.6131,2.37549q-34.51044,9.28473-69.655,15.91736c-23.40155,4.46393-46.98944,7.89514-70.64551,10.65192-11.8233,1.44128-23.6911,2.46051-35.55347,3.50879l-17.81915,1.26611c-5.941.40027-11.89276.622-17.83862.94165-23.79382,1.04785-47.62213,1.38654-71.4364.84106q-35.71765-.90839-71.32135-4.18616L840.37549,904.3l-17.72968-2.20465-4.432-.55469-4.41907-.65051L804.9585,899.575l-8.83594-1.31683-8.80289-1.52478c-11.75711-1.923-23.42957-4.31335-35.10571-6.67157L734.778,886.14789c-2.91394-.61853-5.79068-1.395-8.682-2.10974l-8.66544-2.18q-34.60455-8.936-68.36044-20.84a692.02618,692.02618,0,0,1-65.955-27.55273,590.1244,590.1244,0,0,1-62.51576-34.68469A520.22816,520.22816,0,0,1,463.19061,756.15a459.423,459.423,0,0,1-50.558-50.58154l-11.33234-13.8595L390.6164,677.34174c-.91416-1.18042-1.73116-2.42963-2.563-3.66833l-2.49735-3.7149-4.95685-7.37442-.17352-.25818-1.38811-2.06537c-.93833-1.36868-1.73837-2.82565-2.6143-4.23416l-5.14773-8.52c-1.62006,6.50891-3.18564,13.17993-4.60436,19.95316-.83682-1.30875-1.61839-2.65323-2.4299-3.97839Q366.70845,652.23013,369.50048,641.49973Z" transform="translate(-144 -130.53662)"/><path class="cls-4" d="M1527.20479,697.74292c-34.26023,50.28268-82.4233,89.61743-133.9413,121.18289-1.64359,1.007-.13818,3.60281,1.51416,2.59041,51.972-31.8436,100.46108-71.54166,135.01756-122.25914,1.08991-1.59963-1.50846-3.1021-2.59041-1.51416Z" transform="translate(-144 -130.53662)"/><path class="cls-5" d="M1543.08043,630.01519a36.4329,36.4329,0,1,1-48.15294,18.33018A36.47351,36.47351,0,0,1,1543.08043,630.01519Zm-27.9662,62.344a31.89633,31.89633,0,1,0-16.04754-42.15706A31.93286,31.93286,0,0,0,1515.11423,692.35919Z" transform="translate(-144 -130.53662)"/><circle class="cls-5" cx="1528.16895" cy="663.25678" r="17.08155" transform="translate(153.5511 1655.56904) rotate(-65.84)"/><path class="cls-6" d="M1537.60034,468.82748q-10.99164-2.85384-21.66882-5.18091c-.75037-1.22708-1.47-2.47348-2.24475-3.68518,6.40649,1.33517,12.84937,2.843,19.40735,4.47424l-5.10791-8.45447c-.86914-1.39771-1.66235-2.84381-2.59387-4.20184l-1.37781-2.04941-.17224-.25616-4.91919-7.318-2.47791-3.68674c-.82544-1.22937-1.63574-2.46927-2.54346-3.64053l-10.60315-14.25909-11.24878-13.75676a456.24964,456.24964,0,0,0-50.20569-50.22743,517.05,517.05,0,0,0-57.05335-42.36649,586.95873,586.95873,0,0,0-62.18091-34.49784,688.84588,688.84588,0,0,0-65.64777-27.4243q-33.54941-11.904-68.08185-20.75461l-8.63239-2.17166c-2.88031-.712-5.74579-1.48578-8.64917-2.10182l-17.37146-3.89955c-11.63422-2.34933-23.26446-4.73162-34.98108-6.64769l-8.77216-1.51968-8.806-1.31213-8.80621-1.31074-4.40405-.64847-4.41736-.55271-17.6709-2.19743-17.71582-1.80756q-35.46423-3.28211-71.0968-4.173c-23.74078-.54376-47.4967-.20592-71.21808.8386-5.9278.31881-11.86151.53959-17.78436.93869l-17.76477,1.26227c-11.82593,1.04533-23.65747,2.06106-35.44391,3.49809-23.58252,2.74828-47.09625,6.16843-70.42078,10.61781q-34.98724,6.65292-69.41547,15.86256l-8.58167,2.36679c-2.85745.79963-5.73132,1.543-8.56271,2.43189l-17.04141,5.15088-16.90921,5.56535c-5.622,1.8967-11.18314,3.96852-16.77774,5.944-44.51627,16.37514-87.70407,36.78266-127.33186,62.86016a424.63818,424.63818,0,0,0-55.96083,43.67847,321.355,321.355,0,0,0-46.4299,53.50208l-2.62661-1.77994a324.51137,324.51137,0,0,1,46.89194-54.042,427.80166,427.80166,0,0,1,56.3788-44.00748c39.88467-26.24545,83.28384-46.74584,127.98724-63.19061,5.61752-1.98384,11.20233-4.064,16.84683-5.96837l16.97617-5.58732,17.10623-5.17057c2.84238-.89211,5.72644-1.6384,8.59439-2.441l8.61313-2.37545q34.51039-9.28479,69.655-15.91739c23.40158-4.46389,46.98947-7.89512,70.64554-10.65188,11.8233-1.44128,23.6911-2.46053,35.55347-3.50878l17.81909-1.26616c5.941-.40023,11.89282-.622,17.83868-.94163,23.79382-1.04783,47.62213-1.38651,71.4364-.841q35.71765.90837,71.32135,4.18615l17.7735,1.81354,17.72974,2.20462,4.432.55468,4.41907.65055,8.83624,1.31513,8.83594,1.31681,8.80286,1.52478c11.75714,1.923,23.42956,4.31333,35.10571,6.67159l17.43591,3.91395c2.91394.61852,5.79071,1.395,8.682,2.10971l8.66547,2.18q34.60446,8.936,68.36041,20.84a692.02,692.02,0,0,1,65.955,27.55277,590.12271,590.12271,0,0,1,62.51575,34.68466,520.2312,520.2312,0,0,1,57.40881,42.63074,459.42838,459.42838,0,0,1,50.558,50.58157l11.3324,13.8595,10.68384,14.36719c.91419,1.18036,1.73108,2.42963,2.563,3.6683l2.49744,3.7149,4.95679,7.37445.17358.25815,1.38806,2.0654c.93836,1.36865,1.7384,2.82562,2.61426,4.23416l5.14783,8.52c1.62-6.50894,3.18555-13.18,4.60437-19.95319.83679,1.30875,1.61829,2.65326,2.42981,3.97839Q1540.39246,458.09708,1537.60034,468.82748Z" transform="translate(-144 -130.53662)"/><path class="cls-7" d="M379.89609,412.58429c34.26023-50.28268,82.4233-89.61743,133.9413-121.18289,1.64358-1.007.13818-3.60281-1.51416-2.59041-51.972,31.8436-100.46108,71.54166-135.01756,122.25914-1.08991,1.59963,1.50846,3.1021,2.59041,1.51416Z" transform="translate(-144 -130.53662)"/><path class="cls-5" d="M364.02045,480.312a36.4329,36.4329,0,1,1,48.15294-18.33018A36.47351,36.47351,0,0,1,364.02045,480.312Zm27.9662-62.344a31.89633,31.89633,0,1,0,16.04754,42.15706A31.93286,31.93286,0,0,0,391.98665,417.968Z" transform="translate(-144 -130.53662)"/><circle class="cls-5" cx="378.93193" cy="447.07043" r="17.08155" transform="translate(-328.06943 479.29389) rotate(-65.84)"/><text class="cls-8" transform="translate(669.05957 50.68164) rotate(-7.24697)">t</text><text class="cls-8" transform="matrix(0.99474, -0.10242, 0.10242, 0.99474, 689.51465, 48.0332)">e</text><text class="cls-8" transform="translate(717.54102 45.17383) rotate(-4.43971)">s</text><text class="cls-8" transform="matrix(0.99842, -0.05613, 0.05613, 0.99842, 741.14258, 43.35596)">t</text><text class="cls-8" transform="translate(761.83789 42.2251) rotate(-2.3076)"> </text><text class="cls-8" transform="matrix(0.9998, -0.01987, 0.01987, 0.9998, 774.1123, 41.63721)">p</text><text class="cls-8" transform="translate(804.24219 41.04395) rotate(0.48802)">a</text><text class="cls-8" transform="matrix(0.99942, 0.03403, -0.03403, 0.99942, 833.0293, 41.31836)">s</text><text class="cls-8" transform="translate(856.70117 42.12207) rotate(3.2864)">s</text><text class="cls-8" transform="matrix(0.99654, 0.08317, -0.08317, 0.99654, 880.30469, 43.44434)">e</text><text class="cls-8" transform="matrix(0.99362, 0.1128, -0.1128, 0.99362, 908.32422, 45.76172)">d</text><text class="cls-9" transform="matrix(0.99442, 0.10551, -0.10551, 0.99442, 684.42969, 837.96777)">t</text><text class="cls-9" transform="matrix(0.99683, 0.07956, -0.07956, 0.99683, 704.93945, 840.19531)">e</text><text class="cls-9" transform="matrix(0.99861, 0.05264, -0.05264, 0.99861, 732.98535, 842.4043)">s</text><text class="cls-9" transform="translate(756.64844 843.63574) rotate(1.71964)">t</text><text class="cls-9" transform="translate(777.33301 844.22266) rotate(0.76885)"> </text><text class="cls-9" transform="translate(789.66016 844.4126) rotate(-0.10695)">f</text><text class="cls-9" transform="translate(808.05859 844.43945) rotate(-1.43288)">a</text><text class="cls-9" transform="translate(836.89258 843.64453) rotate(-2.63429)">i</text><text class="cls-9" transform="translate(851.39453 842.97803) rotate(-3.4316)">l</text><text class="cls-9" transform="translate(865.87207 842.18115) rotate(-4.59507)">e</text><text class="cls-9" transform="translate(893.91406 839.94336) rotate(-6.16788)">d</text></svg>