<?xml version="1.0" encoding="utf-8"?>
<!-- Generator: Adobe Illustrator 21.0.0, SVG Export Plug-In . SVG Version: 6.00 Build 0)  -->
<svg version="1.1" id="Слой_1" xmlns="http://www.w3.org/2000/svg" xmlns:xlink="http://www.w3.org/1999/xlink" x="0px" y="0px"
	 viewBox="0 0 1616.3 807.6" style="enable-background:new 0 0 1616.3 807.6;" xml:space="preserve">
<style type="text/css">
	.st0{enable-background:new    ;}
	.st1{fill:#DCB05E;}
	.st2{fill:#808183;}
	.st3{fill:#6D6E70;}
	.st4{fill:#606060;}
</style>
<title>chart 1</title>
<g class="st0">
	<path d="M728.7,77.5l-3.6-11.7h-17.9l-3.6,11.7h-11.2l17.3-49.2h12.7l17.4,49.2H728.7z M722.7,57.1c-3.3-10.6-5.1-16.6-5.5-17.9
		c-0.4-1.4-0.7-2.5-0.9-3.3c-0.7,2.9-2.9,9.9-6.3,21.2H722.7z"/>
	<path d="M757.2,78.1c-4.4,0-7.9-1.7-10.4-5.1c-2.5-3.4-3.8-8.2-3.8-14.2c0-6.1,1.3-10.9,3.8-14.4c2.6-3.4,6.1-5.1,10.6-5.1
		c4.7,0,8.3,1.8,10.8,5.5h0.3c-0.5-2.8-0.8-5.3-0.8-7.5v-12h10.3v52.2h-7.8l-2-4.9h-0.4C765.5,76.3,761.9,78.1,757.2,78.1z
		 M760.8,70c2.6,0,4.5-0.8,5.8-2.3c1.2-1.5,1.9-4.1,2-7.7v-1.1c0-4-0.6-6.9-1.9-8.7c-1.2-1.7-3.3-2.6-6.1-2.6c-2.3,0-4.1,1-5.3,2.9
		c-1.3,1.9-1.9,4.7-1.9,8.4s0.6,6.5,1.9,8.3C756.6,69.1,758.4,70,760.8,70z"/>
	<path d="M800.6,78.1c-4.4,0-7.9-1.7-10.4-5.1c-2.5-3.4-3.8-8.2-3.8-14.2c0-6.1,1.3-10.9,3.8-14.4c2.6-3.4,6.1-5.1,10.6-5.1
		c4.7,0,8.3,1.8,10.8,5.5h0.3c-0.5-2.8-0.8-5.3-0.8-7.5v-12h10.3v52.2h-7.8l-2-4.9h-0.4C809,76.3,805.4,78.1,800.6,78.1z M804.2,70
		c2.6,0,4.5-0.8,5.8-2.3c1.2-1.5,1.9-4.1,2-7.7v-1.1c0-4-0.6-6.9-1.9-8.7c-1.2-1.7-3.3-2.6-6.1-2.6c-2.3,0-4.1,1-5.3,2.9
		c-1.3,1.9-1.9,4.7-1.9,8.4s0.6,6.5,1.9,8.3C800,69.1,801.9,70,804.2,70z"/>
	<path d="M865.9,70c1.8,0,3.9-0.4,6.4-1.2v7.6c-2.5,1.1-5.7,1.7-9.4,1.7c-4.1,0-7.1-1-8.9-3.1c-1.9-2.1-2.8-5.2-2.8-9.3V47.7h-4.9
		v-4.3l5.6-3.4l3-7.9h6.5v8h10.5v7.7h-10.5v18.1c0,1.5,0.4,2.5,1.2,3.2C863.5,69.7,864.5,70,865.9,70z"/>
	<path d="M896.9,78.1c-6,0-10.8-1.7-14.2-5c-3.4-3.3-5.1-8-5.1-14.2c0-6.3,1.6-11.1,4.7-14.6c3.1-3.4,7.5-5.1,13-5.1
		c5.3,0,9.4,1.5,12.4,4.5s4.4,7.2,4.4,12.5v5H888c0.1,2.9,1,5.2,2.6,6.8c1.6,1.6,3.9,2.4,6.8,2.4c2.3,0,4.4-0.2,6.4-0.7
		c2-0.5,4.1-1.2,6.3-2.2v7.9c-1.8,0.9-3.7,1.6-5.7,2C902.3,77.9,899.8,78.1,896.9,78.1z M895.4,46.6c-2.2,0-3.9,0.7-5.1,2.1
		s-1.9,3.3-2.1,5.9h14.4c0-2.5-0.7-4.5-2-5.9S897.6,46.6,895.4,46.6z"/>
	<path d="M946.6,66.3c0,3.8-1.3,6.8-4,8.8c-2.7,2-6.7,3-12,3c-2.7,0-5.1-0.2-7-0.6c-1.9-0.4-3.7-0.9-5.4-1.6v-8.5
		c1.9,0.9,4,1.6,6.4,2.2c2.4,0.6,4.5,0.9,6.3,0.9c3.7,0,5.6-1.1,5.6-3.2c0-0.8-0.2-1.5-0.7-2c-0.5-0.5-1.3-1.1-2.5-1.7
		s-2.8-1.4-4.8-2.2c-2.9-1.2-5-2.3-6.4-3.4c-1.4-1-2.3-2.2-3-3.5c-0.6-1.3-0.9-3-0.9-4.9c0-3.3,1.3-5.9,3.9-7.7
		c2.6-1.8,6.2-2.7,11-2.7c4.5,0,8.9,1,13.2,3l-3.1,7.4c-1.9-0.8-3.6-1.5-5.3-2c-1.6-0.5-3.3-0.8-5-0.8c-3,0-4.5,0.8-4.5,2.4
		c0,0.9,0.5,1.7,1.5,2.4s3.1,1.7,6.4,3c2.9,1.2,5.1,2.3,6.4,3.3c1.4,1,2.4,2.2,3,3.6C946.3,62.9,946.6,64.5,946.6,66.3z"/>
	<path d="M970.4,70c1.8,0,3.9-0.4,6.4-1.2v7.6c-2.5,1.1-5.7,1.7-9.4,1.7c-4.1,0-7.1-1-8.9-3.1c-1.9-2.1-2.8-5.2-2.8-9.3V47.7h-4.9
		v-4.3l5.6-3.4l3-7.9h6.5v8h10.5v7.7h-10.5v18.1c0,1.5,0.4,2.5,1.2,3.2C968,69.7,969.1,70,970.4,70z"/>
</g>
<rect x="692.6" y="91.7" class="st1" width="94.4" height="5.7"/>
<g class="st0">
	<path d="M1108,768.6h-11.8l-6.6-25.8c-0.2-0.9-0.7-2.8-1.3-5.7c-0.6-2.9-0.9-4.8-1-5.8c-0.1,1.2-0.5,3.1-1,5.8
		c-0.5,2.7-1,4.6-1.2,5.7l-6.6,25.7h-11.8l-12.5-49h10.2l6.3,26.8c1.1,4.9,1.9,9.2,2.4,12.8c0.1-1.3,0.4-3.2,0.9-5.9
		c0.5-2.7,0.9-4.7,1.4-6.2l7.1-27.5h9.8l7.1,27.5c0.3,1.2,0.7,3.1,1.2,5.6c0.5,2.5,0.8,4.7,1.1,6.5c0.2-1.7,0.6-3.9,1.1-6.5
		c0.5-2.6,0.9-4.7,1.3-6.3l6.2-26.8h10.2L1108,768.6z"/>
	<path d="M1146.8,730.4c1.4,0,2.5,0.1,3.5,0.3l-0.8,9.6c-0.8-0.2-1.8-0.3-3-0.3c-3.3,0-5.8,0.8-7.6,2.5c-1.8,1.7-2.7,4-2.7,7v19.1
		h-10.2v-37.5h7.7l1.5,6.3h0.5c1.2-2.1,2.7-3.8,4.7-5.1C1142.3,731,1144.5,730.4,1146.8,730.4z"/>
	<path d="M1156.6,721.4c0-3.3,1.9-5,5.6-5s5.6,1.7,5.6,5c0,1.6-0.5,2.8-1.4,3.7c-0.9,0.9-2.3,1.3-4.2,1.3
		C1158.5,726.4,1156.6,724.7,1156.6,721.4z M1167.3,768.6H1157v-37.5h10.2V768.6z"/>
	<path d="M1193.8,761.1c1.8,0,3.9-0.4,6.4-1.2v7.6c-2.5,1.1-5.7,1.7-9.4,1.7c-4.1,0-7.1-1-8.9-3.1c-1.9-2.1-2.8-5.2-2.8-9.3v-18.1
		h-4.9v-4.3l5.6-3.4l3-7.9h6.5v8h10.5v7.7h-10.5v18.1c0,1.5,0.4,2.5,1.2,3.2C1191.4,760.7,1192.5,761.1,1193.8,761.1z"/>
	<path d="M1224.8,769.2c-6,0-10.8-1.7-14.2-5c-3.4-3.3-5.1-8-5.1-14.2c0-6.3,1.6-11.1,4.7-14.6c3.1-3.4,7.5-5.1,13-5.1
		c5.3,0,9.4,1.5,12.4,4.5c3,3,4.4,7.2,4.4,12.5v5h-24.2c0.1,2.9,1,5.2,2.6,6.8c1.6,1.6,3.9,2.4,6.8,2.4c2.3,0,4.4-0.2,6.4-0.7
		c2-0.5,4.1-1.2,6.3-2.2v7.9c-1.8,0.9-3.7,1.6-5.7,2C1230.2,769,1227.7,769.2,1224.8,769.2z M1223.3,737.7c-2.2,0-3.9,0.7-5.1,2.1
		s-1.9,3.3-2.1,5.9h14.4c0-2.5-0.7-4.5-2-5.9S1225.5,737.7,1223.3,737.7z"/>
	<path d="M1281.5,769.2c-11.7,0-17.5-6.4-17.5-19.2c0-6.4,1.6-11.2,4.8-14.6c3.2-3.4,7.7-5,13.6-5c4.3,0,8.2,0.8,11.7,2.5l-3,7.9
		c-1.6-0.6-3.1-1.2-4.5-1.6c-1.4-0.4-2.8-0.6-4.2-0.6c-5.3,0-8,3.8-8,11.3c0,7.3,2.7,11,8,11c2,0,3.8-0.3,5.5-0.8s3.4-1.3,5-2.5v8.8
		c-1.7,1.1-3.3,1.8-5,2.2C1286.2,769,1284,769.2,1281.5,769.2z"/>
	<path d="M1335.6,749.8c0,6.1-1.6,10.9-4.8,14.3c-3.2,3.4-7.7,5.2-13.4,5.2c-3.6,0-6.8-0.8-9.5-2.4s-4.9-3.8-6.3-6.8
		s-2.2-6.4-2.2-10.3c0-6.1,1.6-10.9,4.8-14.3c3.2-3.4,7.7-5.1,13.5-5.1c3.6,0,6.8,0.8,9.5,2.3c2.8,1.6,4.9,3.8,6.3,6.7
		S1335.6,745.8,1335.6,749.8z M1309.7,749.8c0,3.7,0.6,6.5,1.8,8.4c1.2,1.9,3.2,2.8,6,2.8c2.7,0,4.7-0.9,5.9-2.8
		c1.2-1.9,1.8-4.7,1.8-8.4c0-3.7-0.6-6.5-1.8-8.3c-1.2-1.9-3.2-2.8-5.9-2.8c-2.7,0-4.7,0.9-5.9,2.8
		C1310.3,743.2,1309.7,746,1309.7,749.8z"/>
	<path d="M1355.9,769.2c-4.4,0-7.9-1.7-10.4-5.1c-2.5-3.4-3.8-8.2-3.8-14.2c0-6.1,1.3-10.9,3.8-14.4s6.1-5.1,10.6-5.1
		c4.7,0,8.3,1.8,10.8,5.5h0.3c-0.5-2.8-0.8-5.3-0.8-7.5v-12h10.3v52.2h-7.8l-2-4.9h-0.4C1364.2,767.4,1360.7,769.2,1355.9,769.2z
		 M1359.5,761.1c2.6,0,4.5-0.8,5.8-2.3s1.9-4.1,2-7.7V750c0-4-0.6-6.9-1.9-8.7c-1.2-1.7-3.3-2.6-6.1-2.6c-2.3,0-4.1,1-5.3,2.9
		c-1.3,1.9-1.9,4.7-1.9,8.4s0.6,6.5,1.9,8.3S1357.2,761.1,1359.5,761.1z"/>
	<path d="M1404.5,769.2c-6,0-10.8-1.7-14.2-5c-3.4-3.3-5.1-8-5.1-14.2c0-6.3,1.6-11.1,4.7-14.6c3.1-3.4,7.5-5.1,13-5.1
		c5.3,0,9.4,1.5,12.4,4.5c3,3,4.4,7.2,4.4,12.5v5h-24.2c0.1,2.9,1,5.2,2.6,6.8c1.6,1.6,3.9,2.4,6.8,2.4c2.3,0,4.4-0.2,6.4-0.7
		c2-0.5,4.1-1.2,6.3-2.2v7.9c-1.8,0.9-3.7,1.6-5.7,2C1409.9,769,1407.4,769.2,1404.5,769.2z M1403.1,737.7c-2.2,0-3.9,0.7-5.1,2.1
		s-1.9,3.3-2.1,5.9h14.4c0-2.5-0.7-4.5-2-5.9S1405.2,737.7,1403.1,737.7z"/>
</g>
<rect x="1054.1" y="782.8" class="st1" width="94.4" height="5.7"/>
<g class="st0">
	<path d="M1331,359.8h-10.4v-40.4h-13.3v-8.7h37v8.7H1331V359.8z"/>
	<path d="M1368,360.5c-6,0-10.8-1.7-14.2-5c-3.4-3.3-5.1-8-5.1-14.2c0-6.3,1.6-11.1,4.7-14.6c3.1-3.4,7.5-5.1,13-5.1
		c5.3,0,9.4,1.5,12.4,4.5s4.4,7.2,4.4,12.5v5h-24.2c0.1,2.9,1,5.2,2.6,6.8c1.6,1.6,3.9,2.4,6.8,2.4c2.3,0,4.4-0.2,6.4-0.7
		c2-0.5,4.1-1.2,6.3-2.2v7.9c-1.8,0.9-3.7,1.6-5.7,2C1373.4,360.3,1370.9,360.5,1368,360.5z M1366.6,328.9c-2.2,0-3.9,0.7-5.1,2.1
		s-1.9,3.3-2.1,5.9h14.4c0-2.5-0.7-4.5-2-5.9S1368.7,328.9,1366.6,328.9z"/>
	<path d="M1417.8,348.7c0,3.8-1.3,6.8-4,8.8c-2.7,2-6.7,3-12,3c-2.7,0-5.1-0.2-7-0.6c-1.9-0.4-3.7-0.9-5.4-1.6v-8.5
		c1.9,0.9,4,1.6,6.4,2.2c2.4,0.6,4.5,0.9,6.3,0.9c3.7,0,5.6-1.1,5.6-3.2c0-0.8-0.2-1.5-0.7-2c-0.5-0.5-1.3-1.1-2.5-1.7
		s-2.8-1.4-4.8-2.2c-2.9-1.2-5-2.3-6.4-3.4c-1.4-1-2.3-2.2-3-3.5c-0.6-1.3-0.9-3-0.9-4.9c0-3.3,1.3-5.9,3.9-7.7
		c2.6-1.8,6.2-2.7,11-2.7c4.5,0,8.9,1,13.2,3l-3.1,7.4c-1.9-0.8-3.6-1.5-5.3-2c-1.6-0.5-3.3-0.8-5-0.8c-3,0-4.5,0.8-4.5,2.4
		c0,0.9,0.5,1.7,1.5,2.4s3.1,1.7,6.4,3c2.9,1.2,5.1,2.3,6.4,3.3c1.4,1,2.4,2.2,3,3.6C1417.5,345.2,1417.8,346.8,1417.8,348.7z"/>
	<path d="M1441.6,352.4c1.8,0,3.9-0.4,6.4-1.2v7.6c-2.5,1.1-5.7,1.7-9.4,1.7c-4.1,0-7.1-1-8.9-3.1c-1.9-2.1-2.8-5.2-2.8-9.3V330
		h-4.9v-4.3l5.6-3.4l3-7.9h6.5v8h10.5v7.7h-10.5v18.1c0,1.5,0.4,2.5,1.2,3.2C1439.1,352,1440.2,352.4,1441.6,352.4z"/>
	<path d="M1494.1,330h-8.9v29.8h-10.2V330h-5.6v-4.9l5.6-2.7v-2.8c0-4.3,1.1-7.4,3.2-9.4c2.1-2,5.5-3,10.1-3c3.5,0,6.7,0.5,9.4,1.6
		l-2.6,7.5c-2.1-0.6-4-1-5.7-1c-1.5,0-2.5,0.4-3.2,1.3c-0.6,0.9-1,2-1,3.3v2.3h8.9V330z"/>
	<path d="M1523.8,359.8l-2-5.1h-0.3c-1.7,2.2-3.5,3.7-5.3,4.5s-4.2,1.3-7.1,1.3c-3.6,0-6.4-1-8.5-3.1c-2.1-2.1-3.1-5-3.1-8.8
		c0-4,1.4-6.9,4.2-8.8c2.8-1.9,7-2.9,12.6-3.1l6.5-0.2v-1.6c0-3.8-1.9-5.7-5.8-5.7c-3,0-6.5,0.9-10.6,2.7l-3.4-6.9
		c4.3-2.3,9.1-3.4,14.4-3.4c5,0,8.9,1.1,11.6,3.3c2.7,2.2,4,5.5,4,10v25H1523.8z M1520.8,342.5l-4,0.1c-3,0.1-5.2,0.6-6.6,1.6
		c-1.5,1-2.2,2.5-2.2,4.5c0,2.9,1.7,4.3,5,4.3c2.4,0,4.3-0.7,5.7-2c1.4-1.4,2.1-3.2,2.1-5.4V342.5z"/>
	<path d="M1541.1,312.6c0-3.3,1.9-5,5.6-5s5.6,1.7,5.6,5c0,1.6-0.5,2.8-1.4,3.7c-0.9,0.9-2.3,1.3-4.2,1.3
		C1542.9,317.7,1541.1,316,1541.1,312.6z M1551.7,359.8h-10.2v-37.5h10.2V359.8z"/>
	<path d="M1572.7,359.8h-10.2v-52.2h10.2V359.8z"/>
</g>
<rect x="1305.9" y="374" class="st1" width="94.4" height="5.7"/>
<g class="st0">
	<path d="M203.5,769h-10.4v-40.4h-13.3V720h37v8.7h-13.3V769z"/>
	<path d="M240.5,769.7c-6,0-10.8-1.7-14.2-5c-3.4-3.3-5.1-8-5.1-14.2c0-6.3,1.6-11.1,4.7-14.6c3.1-3.4,7.5-5.1,13-5.1
		c5.3,0,9.4,1.5,12.4,4.5c3,3,4.4,7.2,4.4,12.5v5h-24.2c0.1,2.9,1,5.2,2.6,6.8s3.9,2.4,6.8,2.4c2.3,0,4.4-0.2,6.4-0.7
		c2-0.5,4.1-1.2,6.3-2.2v7.9c-1.8,0.9-3.7,1.6-5.7,2C245.9,769.5,243.5,769.7,240.5,769.7z M239.1,738.1c-2.2,0-3.9,0.7-5.1,2.1
		s-1.9,3.3-2.1,5.9h14.4c0-2.5-0.7-4.5-2-5.9C243,738.8,241.3,738.1,239.1,738.1z"/>
	<path d="M290.3,757.9c0,3.8-1.3,6.8-4,8.8c-2.7,2-6.7,3-12,3c-2.7,0-5.1-0.2-7-0.6s-3.7-0.9-5.4-1.6v-8.5c1.9,0.9,4,1.6,6.4,2.2
		s4.5,0.9,6.3,0.9c3.7,0,5.6-1.1,5.6-3.2c0-0.8-0.2-1.5-0.7-2c-0.5-0.5-1.3-1.1-2.5-1.7c-1.2-0.6-2.8-1.4-4.8-2.2
		c-2.9-1.2-5-2.3-6.4-3.4c-1.4-1-2.3-2.2-3-3.5c-0.6-1.3-0.9-3-0.9-4.9c0-3.3,1.3-5.9,3.9-7.7c2.6-1.8,6.2-2.7,11-2.7
		c4.5,0,8.9,1,13.2,3l-3.1,7.4c-1.9-0.8-3.6-1.5-5.3-2c-1.6-0.5-3.3-0.8-5-0.8c-3,0-4.5,0.8-4.5,2.4c0,0.9,0.5,1.7,1.5,2.4
		c1,0.7,3.1,1.7,6.4,3c2.9,1.2,5.1,2.3,6.4,3.3c1.4,1,2.4,2.2,3,3.6C290,754.5,290.3,756.1,290.3,757.9z"/>
	<path d="M314.1,761.6c1.8,0,3.9-0.4,6.4-1.2v7.6c-2.5,1.1-5.7,1.7-9.4,1.7c-4.1,0-7.1-1-8.9-3.1c-1.9-2.1-2.8-5.2-2.8-9.3v-18.1
		h-4.9v-4.3l5.6-3.4l3-7.9h6.5v8h10.5v7.7h-10.5v18.1c0,1.5,0.4,2.5,1.2,3.2S312.7,761.6,314.1,761.6z"/>
	<path d="M366.5,769.7c-4.4,0-7.9-1.6-10.4-4.8h-0.5c0.4,3.1,0.5,4.9,0.5,5.4v15.2h-10.2v-54h8.3l1.4,4.9h0.5
		c2.4-3.7,5.9-5.6,10.6-5.6c4.4,0,7.9,1.7,10.4,5.1c2.5,3.4,3.8,8.2,3.8,14.3c0,4-0.6,7.5-1.8,10.4s-2.8,5.2-5,6.7
		C372,768.9,369.4,769.7,366.5,769.7z M363.5,739c-2.5,0-4.4,0.8-5.5,2.3c-1.2,1.6-1.8,4.1-1.8,7.7v1.1c0,4,0.6,6.9,1.8,8.7
		c1.2,1.7,3.1,2.6,5.7,2.6c4.6,0,6.9-3.8,6.9-11.3c0-3.7-0.6-6.5-1.7-8.3C367.7,740,365.9,739,363.5,739z"/>
	<path d="M413.2,769l-2-5.1h-0.3c-1.7,2.2-3.5,3.7-5.3,4.5c-1.8,0.8-4.2,1.3-7.1,1.3c-3.6,0-6.4-1-8.5-3.1s-3.1-5-3.1-8.8
		c0-4,1.4-6.9,4.2-8.8c2.8-1.9,7-2.9,12.6-3.1l6.5-0.2v-1.6c0-3.8-1.9-5.7-5.8-5.7c-3,0-6.5,0.9-10.6,2.7l-3.4-6.9
		c4.3-2.3,9.1-3.4,14.4-3.4c5,0,8.9,1.1,11.6,3.3c2.7,2.2,4,5.5,4,10v25H413.2z M410.2,751.7l-4,0.1c-3,0.1-5.2,0.6-6.6,1.6
		c-1.5,1-2.2,2.5-2.2,4.5c0,2.9,1.7,4.3,5,4.3c2.4,0,4.3-0.7,5.7-2c1.4-1.4,2.1-3.2,2.1-5.4V751.7z"/>
	<path d="M457,757.9c0,3.8-1.3,6.8-4,8.8c-2.7,2-6.7,3-12,3c-2.7,0-5.1-0.2-7-0.6s-3.7-0.9-5.4-1.6v-8.5c1.9,0.9,4,1.6,6.4,2.2
		s4.5,0.9,6.3,0.9c3.7,0,5.6-1.1,5.6-3.2c0-0.8-0.2-1.5-0.7-2c-0.5-0.5-1.3-1.1-2.5-1.7c-1.2-0.6-2.8-1.4-4.8-2.2
		c-2.9-1.2-5-2.3-6.4-3.4c-1.4-1-2.3-2.2-3-3.5c-0.6-1.3-0.9-3-0.9-4.9c0-3.3,1.3-5.9,3.9-7.7c2.6-1.8,6.2-2.7,11-2.7
		c4.5,0,8.9,1,13.2,3l-3.1,7.4c-1.9-0.8-3.6-1.5-5.3-2c-1.6-0.5-3.3-0.8-5-0.8c-3,0-4.5,0.8-4.5,2.4c0,0.9,0.5,1.7,1.5,2.4
		c1,0.7,3.1,1.7,6.4,3c2.9,1.2,5.1,2.3,6.4,3.3c1.4,1,2.4,2.2,3,3.6C456.7,754.5,457,756.1,457,757.9z"/>
	<path d="M491.2,757.9c0,3.8-1.3,6.8-4,8.8c-2.7,2-6.7,3-12,3c-2.7,0-5.1-0.2-7-0.6s-3.7-0.9-5.4-1.6v-8.5c1.9,0.9,4,1.6,6.4,2.2
		s4.5,0.9,6.3,0.9c3.7,0,5.6-1.1,5.6-3.2c0-0.8-0.2-1.5-0.7-2c-0.5-0.5-1.3-1.1-2.5-1.7c-1.2-0.6-2.8-1.4-4.8-2.2
		c-2.9-1.2-5-2.3-6.4-3.4c-1.4-1-2.3-2.2-3-3.5c-0.6-1.3-0.9-3-0.9-4.9c0-3.3,1.3-5.9,3.9-7.7c2.6-1.8,6.2-2.7,11-2.7
		c4.5,0,8.9,1,13.2,3l-3.1,7.4c-1.9-0.8-3.6-1.5-5.3-2c-1.6-0.5-3.3-0.8-5-0.8c-3,0-4.5,0.8-4.5,2.4c0,0.9,0.5,1.7,1.5,2.4
		c1,0.7,3.1,1.7,6.4,3c2.9,1.2,5.1,2.3,6.4,3.3c1.4,1,2.4,2.2,3,3.6C490.8,754.5,491.2,756.1,491.2,757.9z"/>
	<path d="M516.1,769.7c-6,0-10.8-1.7-14.2-5c-3.4-3.3-5.1-8-5.1-14.2c0-6.3,1.6-11.1,4.7-14.6c3.1-3.4,7.5-5.1,13-5.1
		c5.3,0,9.4,1.5,12.4,4.5c3,3,4.4,7.2,4.4,12.5v5h-24.2c0.1,2.9,1,5.2,2.6,6.8s3.9,2.4,6.8,2.4c2.3,0,4.4-0.2,6.4-0.7
		c2-0.5,4.1-1.2,6.3-2.2v7.9c-1.8,0.9-3.7,1.6-5.7,2C521.5,769.5,519,769.7,516.1,769.7z M514.7,738.1c-2.2,0-3.9,0.7-5.1,2.1
		s-1.9,3.3-2.1,5.9h14.4c0-2.5-0.7-4.5-2-5.9C518.6,738.8,516.8,738.1,514.7,738.1z"/>
	<path d="M551.6,769.7c-4.4,0-7.9-1.7-10.4-5.1c-2.5-3.4-3.8-8.2-3.8-14.2c0-6.1,1.3-10.9,3.8-14.4s6.1-5.1,10.6-5.1
		c4.7,0,8.3,1.8,10.8,5.5h0.3c-0.5-2.8-0.8-5.3-0.8-7.5v-12h10.3V769h-7.8l-2-4.9h-0.4C559.9,767.9,556.4,769.7,551.6,769.7z
		 M555.2,761.6c2.6,0,4.5-0.8,5.8-2.3c1.2-1.5,1.9-4.1,2-7.7v-1.1c0-4-0.6-6.9-1.9-8.7c-1.2-1.7-3.3-2.6-6.1-2.6
		c-2.3,0-4.1,1-5.3,2.9c-1.3,1.9-1.9,4.7-1.9,8.4s0.6,6.5,1.9,8.3C551,760.6,552.8,761.6,555.2,761.6z"/>
</g>
<rect x="178.4" y="783.3" class="st1" width="94.4" height="5.7"/>
<g class="st0">
	<path d="M53.8,337.2V356H43.4v-49h14.3c6.7,0,11.6,1.2,14.8,3.6c3.2,2.4,4.8,6.1,4.8,11c0,2.9-0.8,5.4-2.4,7.7
		c-1.6,2.2-3.8,4-6.7,5.3c7.4,11,12.2,18.1,14.4,21.4H71l-11.7-18.8H53.8z M53.8,328.7h3.4c3.3,0,5.7-0.5,7.3-1.6
		c1.6-1.1,2.3-2.8,2.3-5.2c0-2.3-0.8-4-2.4-5c-1.6-1-4.1-1.5-7.4-1.5h-3.2V328.7z"/>
	<path d="M104.9,356.7c-6,0-10.8-1.7-14.2-5c-3.4-3.3-5.1-8-5.1-14.2c0-6.3,1.6-11.1,4.7-14.6c3.1-3.4,7.5-5.1,13-5.1
		c5.3,0,9.4,1.5,12.4,4.5s4.4,7.2,4.4,12.5v5H96c0.1,2.9,1,5.2,2.6,6.8s3.9,2.4,6.8,2.4c2.3,0,4.4-0.2,6.4-0.7
		c2-0.5,4.1-1.2,6.3-2.2v7.9c-1.8,0.9-3.7,1.6-5.7,2C110.3,356.5,107.8,356.7,104.9,356.7z M103.5,325.1c-2.2,0-3.9,0.7-5.1,2.1
		s-1.9,3.3-2.1,5.9h14.4c0-2.5-0.7-4.5-2-5.9C107.4,325.8,105.6,325.1,103.5,325.1z"/>
	<path d="M149.2,326.2h-8.9V356h-10.2v-29.8h-5.6v-4.9l5.6-2.7v-2.8c0-4.3,1.1-7.4,3.2-9.4c2.1-2,5.5-3,10.1-3
		c3.5,0,6.7,0.5,9.4,1.6l-2.6,7.5c-2.1-0.6-4-1-5.7-1c-1.5,0-2.5,0.4-3.2,1.3c-0.6,0.9-1,2-1,3.3v2.3h8.9V326.2z"/>
	<path d="M178.9,356l-2-5.1h-0.3c-1.7,2.2-3.5,3.7-5.3,4.5s-4.2,1.3-7.1,1.3c-3.6,0-6.4-1-8.5-3.1c-2.1-2.1-3.1-5-3.1-8.8
		c0-4,1.4-6.9,4.2-8.8c2.8-1.9,7-2.9,12.6-3.1l6.5-0.2V331c0-3.8-1.9-5.7-5.8-5.7c-3,0-6.5,0.9-10.6,2.7l-3.4-6.9
		c4.3-2.3,9.1-3.4,14.4-3.4c5,0,8.9,1.1,11.6,3.3c2.7,2.2,4,5.5,4,10v25H178.9z M175.9,338.6l-4,0.1c-3,0.1-5.2,0.6-6.6,1.6
		c-1.5,1-2.2,2.5-2.2,4.5c0,2.9,1.7,4.3,5,4.3c2.4,0,4.3-0.7,5.7-2c1.4-1.4,2.1-3.2,2.1-5.4V338.6z"/>
	<path d="M211.8,356.7c-11.7,0-17.5-6.4-17.5-19.2c0-6.4,1.6-11.2,4.8-14.6c3.2-3.4,7.7-5,13.6-5c4.3,0,8.2,0.9,11.7,2.5l-3,7.9
		c-1.6-0.6-3.1-1.2-4.5-1.6c-1.4-0.4-2.8-0.6-4.2-0.6c-5.3,0-8,3.8-8,11.3c0,7.3,2.7,11,8,11c2,0,3.8-0.3,5.5-0.8s3.4-1.3,5-2.5v8.8
		c-1.7,1.1-3.3,1.8-5,2.2C216.5,356.5,214.4,356.7,211.8,356.7z"/>
	<path d="M247.7,348.5c1.8,0,3.9-0.4,6.4-1.2v7.6c-2.5,1.1-5.7,1.7-9.4,1.7c-4.1,0-7.1-1-8.9-3.1c-1.9-2.1-2.8-5.2-2.8-9.3v-18.1
		h-4.9v-4.3l5.6-3.4l3-7.9h6.5v8h10.5v7.7h-10.5v18.1c0,1.5,0.4,2.5,1.2,3.2C245.3,348.2,246.4,348.5,247.7,348.5z"/>
	<path d="M295.8,337.2c0,6.1-1.6,10.9-4.8,14.3s-7.7,5.2-13.4,5.2c-3.6,0-6.8-0.8-9.5-2.4s-4.9-3.8-6.3-6.8c-1.5-3-2.2-6.4-2.2-10.3
		c0-6.1,1.6-10.9,4.8-14.3c3.2-3.4,7.7-5.1,13.5-5.1c3.6,0,6.8,0.8,9.5,2.3c2.8,1.6,4.9,3.8,6.3,6.7S295.8,333.3,295.8,337.2z
		 M269.9,337.2c0,3.7,0.6,6.5,1.8,8.4c1.2,1.9,3.2,2.9,6,2.9c2.7,0,4.7-0.9,5.9-2.8c1.2-1.9,1.8-4.7,1.8-8.4c0-3.7-0.6-6.5-1.8-8.4
		c-1.2-1.9-3.2-2.8-5.9-2.8c-2.7,0-4.7,0.9-5.9,2.8C270.5,330.7,269.9,333.5,269.9,337.2z"/>
	<path d="M325.2,317.8c1.4,0,2.5,0.1,3.5,0.3l-0.8,9.6c-0.8-0.2-1.8-0.3-3-0.3c-3.3,0-5.8,0.8-7.6,2.5c-1.8,1.7-2.7,4-2.7,7V356
		h-10.2v-37.5h7.7l1.5,6.3h0.5c1.2-2.1,2.7-3.8,4.7-5.1S322.8,317.8,325.2,317.8z"/>
	<path d="M335,308.8c0-3.3,1.9-5,5.6-5c3.7,0,5.6,1.7,5.6,5c0,1.6-0.5,2.8-1.4,3.7c-0.9,0.9-2.3,1.3-4.2,1.3
		C336.9,313.9,335,312.2,335,308.8z M345.7,356h-10.2v-37.5h10.2V356z"/>
	<path d="M391,356h-10.2v-21.9c0-2.7-0.5-4.7-1.4-6.1c-1-1.4-2.5-2-4.6-2c-2.9,0-4.9,1-6.2,2.9c-1.3,1.9-1.9,5.1-1.9,9.5V356h-10.2
		v-37.5h7.8l1.4,4.8h0.6c1.1-1.8,2.7-3.2,4.7-4.1c2-0.9,4.3-1.4,6.8-1.4c4.4,0,7.7,1.2,9.9,3.5c2.3,2.4,3.4,5.8,3.4,10.2V356z"/>
	<path d="M434.2,318.5v5.2l-5.9,1.5c1.1,1.7,1.6,3.6,1.6,5.6c0,4-1.4,7.2-4.2,9.4c-2.8,2.2-6.7,3.4-11.7,3.4l-1.8-0.1l-1.5-0.2
		c-1.1,0.8-1.6,1.7-1.6,2.7c0,1.5,1.9,2.2,5.6,2.2h6.4c4.1,0,7.2,0.9,9.4,2.6c2.2,1.8,3.2,4.4,3.2,7.8c0,4.4-1.8,7.8-5.5,10.2
		c-3.7,2.4-8.9,3.6-15.7,3.6c-5.2,0-9.2-0.9-12-2.7c-2.8-1.8-4.1-4.4-4.1-7.7c0-2.3,0.7-4.1,2.1-5.7c1.4-1.5,3.5-2.6,6.2-3.3
		c-1.1-0.4-2-1.2-2.8-2.2c-0.8-1-1.2-2.1-1.2-3.2c0-1.4,0.4-2.6,1.2-3.6c0.8-0.9,2-1.9,3.6-2.8c-2-0.8-3.5-2.2-4.7-4.1
		c-1.2-1.9-1.7-4.1-1.7-6.6c0-4.1,1.3-7.3,4-9.5c2.7-2.2,6.5-3.4,11.4-3.4c1.1,0,2.3,0.1,3.7,0.3c1.4,0.2,2.4,0.3,2.8,0.4H434.2z
		 M405.2,361.3c0,1.4,0.7,2.5,2,3.3c1.4,0.8,3.2,1.2,5.7,1.2c3.7,0,6.5-0.5,8.6-1.5c2.1-1,3.1-2.4,3.1-4.1c0-1.4-0.6-2.4-1.8-2.9
		c-1.2-0.5-3.1-0.8-5.7-0.8h-5.3c-1.9,0-3.4,0.4-4.7,1.3C405.9,358.7,405.2,359.9,405.2,361.3z M408.9,330.8c0,2,0.5,3.6,1.4,4.8
		s2.3,1.8,4.2,1.8c1.9,0,3.3-0.6,4.2-1.8c0.9-1.2,1.3-2.8,1.3-4.8c0-4.5-1.9-6.8-5.6-6.8C410.8,324,408.9,326.3,408.9,330.8z"/>
</g>
<rect x="37.2" y="370.2" class="st1" width="94.4" height="5.7"/>
<path class="st2" d="M640.6,112.6l-11.3,18.2l-4.2,1l10.1-16.4l-9.2,2.2l-4.6,1.1l-2.3,0.5l-4.1,1c-2.6,0.6-5.2,1.2-7.7,1.9
	l-15.5,3.8l-7.7,1.9l-7.7,2l-15.4,4l-15.3,4.2c-2.6,0.7-5.1,1.4-7.7,2.1l-7.6,2.3c-20.3,5.9-40.4,12.8-59.9,20.9
	c-19.5,8.2-38.4,17.8-56.6,28.6c-18.2,10.7-36.1,22.3-53.9,33.8l-1.6-2.5c17.8-11.5,35.7-23,54-33.8c18.3-10.9,37.3-20.5,56.9-28.8
	c19.7-8.1,39.8-15.1,60.3-21l7.6-2.3c2.5-0.8,5.1-1.4,7.7-2.1l15.4-4.2l15.4-4l7.7-2l7.7-1.9l15.5-3.8c2.6-0.6,5.2-1.3,7.7-1.9
	l4.2-1l2.3-0.5l4.6-1.1l9.2-2.2l-16.4-10.2l4.2-1L640.6,112.6z"/>
<path class="st3" d="M349.5,215.9c26-20.5,55.3-37.6,84.8-52.4c1.6-0.8,0.2-3.3-1.4-2.5c-29.8,15-59.2,32.2-85.4,52.9
	C346.1,215,348.1,217,349.5,215.9z"/>
<path class="st4" d="M333.5,278.7c-19.2,0-34.8-15.6-34.8-34.8c0-19.2,15.6-34.8,34.8-34.8c19.2,0,34.8,15.6,34.8,34.8c0,0,0,0,0,0
	C368.2,263.1,352.7,278.7,333.5,278.7z M333.5,213.5c-16.8,0-30.4,13.6-30.4,30.4c0,16.8,13.6,30.4,30.4,30.4s30.4-13.6,30.4-30.4
	c0,0,0,0,0,0C363.9,227.2,350.3,213.5,333.5,213.5z"/>
<circle class="st4" cx="333.5" cy="244" r="16.3"/>
<path class="st2" d="M1328.5,283.1c-7.2,0.3-14.3,0.6-21.4,1l-3.1-2.9c6.4-0.3,12.8-0.6,19.2-0.9l-7-6.4l-3.5-3.2l-1.7-1.6l-3.1-2.9
	c-1.9-1.8-4-3.5-5.9-5.2l-11.9-10.4c-2-1.8-4-3.4-6-5.1l-6.1-5c-4.1-3.3-8.1-6.8-12.3-10l-12.5-9.7l-12.8-9.3
	c-17.2-12.2-35.3-23.1-54-32.7c-18.8-9.5-38.3-17.5-58.1-25c-19.8-7.4-39.7-14.5-59.5-21.9l1.1-2.8c19.8,7.4,39.7,14.4,59.5,21.9
	c19.8,7.4,39.5,15.5,58.4,25.1c18.9,9.6,37.1,20.6,54.4,32.9l12.9,9.3l12.6,9.7c4.2,3.2,8.3,6.6,12.4,10l6.1,5.1
	c2,1.7,4.1,3.4,6.1,5.1l12,10.4c2,1.8,4,3.5,6,5.2l3.1,2.9l1.7,1.6l3.5,3.2l7,6.4c-0.3-6.4-0.6-12.8-0.9-19.3l3.2,2.9
	C1327.9,268.9,1328.2,276.1,1328.5,283.1z"/>
<path class="st3" d="M1069.8,118c32.3,8.6,64.6,18.8,94.6,33.8c1.6,0.8,3.1-1.6,1.4-2.5c-30.2-15.1-62.7-25.4-95.3-34.1
	c-0.8-0.2-1.5,0.3-1.7,1.1C1068.6,117,1069.1,117.8,1069.8,118L1069.8,118z"/>
<path class="st4" d="M1010,142.7c-11.5-15.4-8.3-37.2,7.1-48.6c15.4-11.5,37.2-8.3,48.6,7.1c11.5,15.4,8.3,37.2-7.1,48.6
	c0,0,0,0,0,0C1043.2,161.2,1021.4,158,1010,142.7z M1062.3,103.7c-10-13.5-29.1-16.3-42.6-6.2s-16.3,29.1-6.2,42.6
	c10,13.5,29.1,16.3,42.6,6.2c0,0,0,0,0,0C1069.5,136.3,1072.3,117.2,1062.3,103.7L1062.3,103.7z"/>
<ellipse transform="matrix(0.8022 -0.5971 0.5971 0.8022 132.5184 643.7895)" class="st4" cx="1037.9" cy="121.9" rx="16.3" ry="16.3"/>
<path class="st2" d="M1146.1,692.2c2.5-6.7,4.9-13.5,7.3-20.1l3.8-1.8c-2.1,6-4.3,12-6.5,18.1l8.5-4l4.3-2l2.1-1l3.9-1.8l3.7-1.7
	l3.6-1.8l14.5-7.3l7.2-3.7l7.1-3.9l14.2-7.8c4.7-2.7,9.3-5.5,13.9-8.3l7-4.2l6.8-4.5l6.8-4.5c2.2-1.5,4.5-2.9,6.7-4.6l13.1-9.5
	c1.1-0.8,2.1-1.7,3.2-2.5l3.1-2.6l6.3-5.1c1-0.9,2.1-1.7,3.1-2.6l3-2.7l6-5.4l3-2.7c1-0.9,1.9-1.9,2.9-2.9l5.7-5.8
	c3.9-3.8,7.3-7.9,10.8-12l2.7-3c0.9-1,1.7-2.1,2.5-3.2l5-6.4l2.5-3.2l2.3-3.3l4.6-6.6c12.2-17.8,22.6-36.8,32.8-55.9l2.7,1.4
	c-10.2,19.1-20.7,38.2-33,56.2l-4.7,6.7l-2.3,3.3l-2.5,3.2l-5,6.4c-0.9,1.1-1.6,2.2-2.5,3.2l-2.7,3.1c-3.6,4.1-7.1,8.3-11,12.1
	l-5.7,5.8c-1,1-1.9,2-2.9,2.9l-3,2.7l-6,5.5l-3,2.7c-1,0.9-2.1,1.7-3.2,2.6l-6.3,5.1l-3.2,2.6c-1.1,0.8-2.1,1.7-3.2,2.5l-13.2,9.6
	c-2.2,1.7-4.5,3.1-6.7,4.6l-6.8,4.5l-6.8,4.5l-7,4.2c-4.7,2.8-9.3,5.6-14,8.3l-14.3,7.8l-7.1,3.9l-7.3,3.7l-14.5,7.3l-3.6,1.8
	l-3.7,1.7l-3.9,1.8l-2.1,1l-4.3,2l-8.6,4c6,2.2,12.1,4.4,18.2,6.5l-3.9,1.8C1159.5,697,1152.8,694.6,1146.1,692.2z"/>
<path class="st4" d="M1370,428.8c17.9-6.8,38,2.2,44.8,20.1c6.8,17.9-2.2,38-20.1,44.8c-17.9,6.8-38-2.2-44.8-20.1c0,0,0,0,0,0
	C1343,455.7,1352,435.6,1370,428.8z M1393.2,489.7c15.7-6,23.6-23.6,17.6-39.3c-6-15.7-23.6-23.6-39.3-17.6
	c-15.7,6-23.6,23.6-17.6,39.3c0,0,0,0,0,0C1359.9,487.8,1377.4,495.7,1393.2,489.7L1393.2,489.7z"/>
<ellipse transform="matrix(0.9346 -0.3558 0.3558 0.9346 -73.6644 521.9537)" class="st4" cx="1382.3" cy="461.3" rx="16.3" ry="16.3"/>
<path class="st2" d="M251.4,379.3c4.3,5.8,8.6,11.4,12.9,16.8l-0.4,4.1l-3.1-3.6l-1.5-1.8l-1.5-1.9c-1.9-2.5-3.9-5-5.8-7.6
	c-0.4,3.1-0.9,6.2-1.3,9.3l-0.5,4.7l-0.2,2.3l-0.5,4.5c-0.3,2.8-0.4,5.6-0.5,8.4c-0.4,5.6-0.4,11.2-0.5,16.8c0,1.4,0,2.8,0.1,4.2
	l0.1,4.2c0.1,2.8,0.1,5.6,0.4,8.4l0.6,8.4l1.1,8.3c1.5,11.1,3.9,22.1,7.2,32.8c3.3,10.7,7.5,21.1,12.6,31.1
	c5.1,10,11,19.6,17.6,28.6c13.3,18.1,29.2,34.2,46.1,49c16.9,14.9,34.8,28.6,52.6,42.6l-1.9,2.4c-17.7-14-35.7-27.7-52.7-42.7
	c-17-14.9-33.1-31.2-46.5-49.5c-6.7-9.2-12.7-18.9-17.8-29c-5.1-10.2-9.4-20.7-12.8-31.6c-3.3-10.9-5.7-22-7.3-33.3l-1.1-8.5
	l-0.7-8.5c-0.3-2.8-0.3-5.7-0.4-8.5l-0.1-4.3c0-1.4-0.1-2.8-0.1-4.3c0.1-5.7,0.1-11.4,0.5-17c0.2-2.8,0.3-5.7,0.6-8.5l0.5-4.5
	l0.2-2.4l0.5-4.7c0.4-3.1,0.9-6.3,1.3-9.4c-2.6,1.9-5.1,3.9-7.7,5.9l-1.9,1.5l-1.9,1.5l-3.7,3.1l0.5-4.5
	C240,387.9,245.7,383.5,251.4,379.3z"/>
<path class="st3" d="M380.7,664.9c-24.9-19.7-50.2-38.9-72.6-61.4c-0.6-0.5-1.5-0.5-2,0.1c-0.5,0.6-0.5,1.4,0,2
	c22.4,22.5,47.8,41.7,72.6,61.4C380.1,668.1,382.1,666.1,380.7,664.9z"/>
<path class="st4" d="M448.2,661.1c2.5,19-10.9,36.5-29.9,39c-19,2.5-36.5-10.9-39-29.9c-2.5-19,10.9-36.5,29.9-39c0,0,0,0,0,0
	C428.2,628.7,445.7,642,448.2,661.1z M383.6,669.6c2.2,16.7,17.5,28.4,34.2,26.2c16.7-2.2,28.4-17.5,26.2-34.2
	c-2.2-16.7-17.5-28.4-34.2-26.2c0,0,0,0,0,0C393.1,637.7,381.4,653,383.6,669.6L383.6,669.6z"/>
<ellipse transform="matrix(0.9914 -0.1312 0.1312 0.9914 -83.7282 60.0182)" class="st4" cx="413.8" cy="665.6" rx="16.3" ry="16.3"/>
<path class="st2" d="M635.4,736.6l17.5-12.3l4.2,0.7l-15.7,11.1l9.3,1.6l4.7,0.8l2.3,0.4l4.2,0.7c2.6,0.5,5.2,0.9,7.8,1.3l15.6,2.5
	c5.2,0.9,10.4,1.6,15.7,2.3c5.2,0.7,10.4,1.5,15.7,2.2l15.7,1.9l3.9,0.5l3.9,0.4l7.9,0.7c21,2,42.1,2.9,63.2,2.6
	c21.1-0.3,42.1-1.9,63.2-3.7c21.1-1.8,42.1-3.5,63.3-4.9l0.2,3c-21.1,1.3-42.1,3.1-63.2,4.9c-21.1,1.7-42.2,3.4-63.4,3.7
	c-21.2,0.3-42.4-0.6-63.5-2.6l-7.9-0.8l-4-0.4l-3.9-0.5l-15.8-1.9c-5.2-0.7-10.5-1.5-15.7-2.2c-5.2-0.7-10.5-1.5-15.7-2.3l-15.7-2.5
	c-2.6-0.4-5.2-0.8-7.8-1.3l-4.2-0.7l-2.3-0.4l-4.7-0.8l-9.3-1.6l11.1,15.8l-4.2-0.7L635.4,736.6z"/>
<path class="st3" d="M943.5,761.9c-33.6,2.1-67,5.7-100.6,7.6c-1.8,0.1-1.8,3,0,2.9c33.6-1.9,67-5.5,100.6-7.6
	C945.4,764.7,945.4,761.8,943.5,761.9z"/>
<path class="st4" d="M983.6,710.8c17.5,7.9,25.3,28.4,17.5,45.9c-7.9,17.5-28.4,25.3-45.9,17.5c-17.5-7.9-25.3-28.4-17.5-45.9
	c0,0,0,0,0,0C945.5,710.8,966.1,702.9,983.6,710.8z M956.9,770.2c15.3,6.9,33.3,0,40.2-15.3c6.9-15.3,0-33.3-15.3-40.2
	s-33.3,0-40.2,15.3c0,0,0,0,0,0C934.7,745.4,941.6,763.4,956.9,770.2z"/>
<ellipse transform="matrix(0.4093 -0.9124 0.9124 0.4093 -104.8376 1323.0386)" class="st4" cx="969.4" cy="742.5" rx="16.3" ry="16.3"/>
<path class="st3" d="M1389.9,494.8c-17.1,31.9-35.1,63.2-59.8,90c-1.2,1.4,0.8,3.4,2,2c24.8-27,43-58.4,60.2-90.6
	C1393.2,494.6,1390.7,493.2,1389.9,494.8z"/>
</svg>
