<?xml version="1.0" encoding="utf-8"?>
<!-- Generator: Adobe Illustrator 21.0.0, SVG Export Plug-In . SVG Version: 6.00 Build 0)  -->
<svg version="1.1" id="Слой_1" xmlns="http://www.w3.org/2000/svg" xmlns:xlink="http://www.w3.org/1999/xlink" x="0px" y="0px"
	 viewBox="0 0 1697.1 858.5" style="enable-background:new 0 0 1697.1 858.5;" xml:space="preserve">
<style type="text/css">
	.st0{enable-background:new    ;}
	.st1{fill:#DCB05E;}
	.st2{fill:#45AD6E;}
	.st3{fill:#28A058;}
	.st4{fill:#606060;}
	.st5{fill:#E25C5C;}
	.st6{fill:#DD4343;}
</style>
<title>chart 2b</title>
<g class="st0">
	<path d="M1264.9,423.1v18.8h-10.4v-49h14.3c6.7,0,11.6,1.2,14.8,3.6c3.2,2.4,4.8,6.1,4.8,11c0,2.9-0.8,5.4-2.4,7.7
		c-1.6,2.2-3.8,4-6.7,5.3c7.4,11,12.2,18.1,14.4,21.3h-11.5l-11.7-18.8H1264.9z M1264.9,414.7h3.4c3.3,0,5.7-0.5,7.3-1.6
		c1.6-1.1,2.3-2.8,2.3-5.2c0-2.3-0.8-4-2.4-5c-1.6-1-4.1-1.5-7.4-1.5h-3.2V414.7z"/>
	<path d="M1316,442.6c-6,0-10.7-1.7-14.1-5c-3.4-3.3-5.1-8-5.1-14.1c0-6.3,1.6-11.1,4.7-14.6c3.1-3.4,7.5-5.1,13-5.1
		c5.3,0,9.4,1.5,12.4,4.5c2.9,3,4.4,7.2,4.4,12.5v5h-24.2c0.1,2.9,1,5.2,2.6,6.8s3.9,2.4,6.8,2.4c2.3,0,4.4-0.2,6.4-0.7
		c2-0.5,4.1-1.2,6.3-2.2v7.9c-1.8,0.9-3.7,1.6-5.7,2S1318.9,442.6,1316,442.6z M1314.6,411c-2.2,0-3.9,0.7-5.1,2.1s-1.9,3.3-2.1,5.8
		h14.3c0-2.5-0.7-4.5-2-5.8S1316.7,411,1314.6,411z"/>
	<path d="M1370.4,441.9l-2.9-13.1l-3.9-16.6h-0.2l-6.8,29.7h-11l-10.7-37.5h10.2l4.3,16.6c0.7,3,1.4,7.1,2.1,12.3h0.2
		c0.1-1.7,0.5-4.4,1.2-8.1l0.5-2.8l4.6-18h11.3l4.4,18c0.1,0.5,0.2,1.2,0.4,2.2c0.2,1,0.4,2,0.6,3.1c0.2,1.1,0.3,2.1,0.5,3.2
		c0.1,1,0.2,1.9,0.3,2.5h0.2c0.2-1.6,0.6-3.8,1.1-6.6s0.9-4.7,1.1-5.7l4.5-16.6h10l-10.8,37.5H1370.4z"/>
	<path d="M1419.2,403.8c1.4,0,2.5,0.1,3.5,0.3l-0.8,9.6c-0.8-0.2-1.8-0.3-3-0.3c-3.3,0-5.8,0.8-7.6,2.5c-1.8,1.7-2.7,4-2.7,7v19.1
		h-10.2v-37.5h7.7l1.5,6.3h0.5c1.2-2.1,2.7-3.8,4.7-5.1C1414.8,404.4,1416.9,403.8,1419.2,403.8z"/>
	<path d="M1429.1,394.8c0-3.3,1.9-5,5.6-5s5.6,1.7,5.6,5c0,1.6-0.5,2.8-1.4,3.7c-0.9,0.9-2.3,1.3-4.2,1.3
		C1430.9,399.8,1429.1,398.1,1429.1,394.8z M1439.7,441.9h-10.2v-37.5h10.2V441.9z"/>
	<path d="M1466.2,434.5c1.8,0,3.9-0.4,6.4-1.2v7.6c-2.5,1.1-5.7,1.7-9.4,1.7c-4.1,0-7.1-1-8.9-3.1c-1.9-2.1-2.8-5.2-2.8-9.3v-18.1
		h-4.9v-4.3l5.6-3.4l2.9-7.9h6.5v8h10.5v7.7h-10.5v18.1c0,1.5,0.4,2.5,1.2,3.2S1464.9,434.5,1466.2,434.5z"/>
	<path d="M1497.2,442.6c-6,0-10.7-1.7-14.1-5c-3.4-3.3-5.1-8-5.1-14.1c0-6.3,1.6-11.1,4.7-14.6c3.1-3.4,7.5-5.1,13-5.1
		c5.3,0,9.4,1.5,12.4,4.5c2.9,3,4.4,7.2,4.4,12.5v5h-24.2c0.1,2.9,1,5.2,2.6,6.8s3.9,2.4,6.8,2.4c2.3,0,4.4-0.2,6.4-0.7
		c2-0.5,4.1-1.2,6.3-2.2v7.9c-1.8,0.9-3.7,1.6-5.7,2S1500.1,442.6,1497.2,442.6z M1495.7,411c-2.2,0-3.9,0.7-5.1,2.1
		s-1.9,3.3-2.1,5.8h14.3c0-2.5-0.7-4.5-2-5.8S1497.9,411,1495.7,411z"/>
	<path d="M1554.4,434.5c1.8,0,3.9-0.4,6.4-1.2v7.6c-2.5,1.1-5.7,1.7-9.4,1.7c-4.1,0-7.1-1-8.9-3.1c-1.9-2.1-2.8-5.2-2.8-9.3v-18.1
		h-4.9v-4.3l5.6-3.4l2.9-7.9h6.5v8h10.5v7.7h-10.5v18.1c0,1.5,0.4,2.5,1.2,3.2S1553,434.5,1554.4,434.5z"/>
	<path d="M1585.4,442.6c-6,0-10.7-1.7-14.1-5c-3.4-3.3-5.1-8-5.1-14.1c0-6.3,1.6-11.1,4.7-14.6c3.1-3.4,7.5-5.1,13-5.1
		c5.3,0,9.4,1.5,12.4,4.5c2.9,3,4.4,7.2,4.4,12.5v5h-24.2c0.1,2.9,1,5.2,2.6,6.8s3.9,2.4,6.8,2.4c2.3,0,4.4-0.2,6.4-0.7
		c2-0.5,4.1-1.2,6.3-2.2v7.9c-1.8,0.9-3.7,1.6-5.7,2S1588.3,442.6,1585.4,442.6z M1583.9,411c-2.2,0-3.9,0.7-5.1,2.1
		s-1.9,3.3-2.1,5.8h14.3c0-2.5-0.7-4.5-2-5.8S1586.1,411,1583.9,411z"/>
	<path d="M1635.1,430.8c0,3.8-1.3,6.8-4,8.8c-2.7,2-6.7,3-12,3c-2.7,0-5-0.2-7-0.6c-1.9-0.4-3.7-0.9-5.4-1.6V432
		c1.9,0.9,4,1.6,6.4,2.2c2.4,0.6,4.5,0.9,6.3,0.9c3.7,0,5.6-1.1,5.6-3.2c0-0.8-0.2-1.5-0.7-2c-0.5-0.5-1.3-1.1-2.5-1.7
		s-2.8-1.4-4.8-2.2c-2.9-1.2-5-2.3-6.4-3.4s-2.3-2.2-2.9-3.5c-0.6-1.3-0.9-3-0.9-4.9c0-3.3,1.3-5.9,3.9-7.7c2.6-1.8,6.2-2.7,11-2.7
		c4.5,0,8.9,1,13.2,2.9l-3.1,7.4c-1.9-0.8-3.6-1.5-5.3-2c-1.6-0.5-3.3-0.8-5-0.8c-3,0-4.5,0.8-4.5,2.4c0,0.9,0.5,1.7,1.5,2.4
		c1,0.7,3.1,1.7,6.4,3c2.9,1.2,5.1,2.3,6.4,3.3c1.4,1,2.4,2.2,3,3.6C1634.8,427.4,1635.1,429,1635.1,430.8z"/>
	<path d="M1658.8,434.5c1.8,0,3.9-0.4,6.4-1.2v7.6c-2.5,1.1-5.7,1.7-9.4,1.7c-4.1,0-7.1-1-8.9-3.1c-1.9-2.1-2.8-5.2-2.8-9.3v-18.1
		h-4.9v-4.3l5.6-3.4l2.9-7.9h6.5v8h10.5v7.7h-10.5v18.1c0,1.5,0.4,2.5,1.2,3.2S1657.5,434.5,1658.8,434.5z"/>
</g>
<rect x="1248.4" y="456.1" class="st1" width="94.4" height="5.7"/>
<g class="st0">
	<path d="M46.8,423.1v18.8H36.4v-49h14.3c6.7,0,11.6,1.2,14.8,3.6c3.2,2.4,4.8,6.1,4.8,11c0,2.9-0.8,5.4-2.4,7.7
		c-1.6,2.2-3.8,4-6.7,5.3c7.4,11,12.2,18.1,14.4,21.3H64l-11.7-18.8H46.8z M46.8,414.7h3.4c3.3,0,5.7-0.5,7.3-1.6
		c1.6-1.1,2.3-2.8,2.3-5.2c0-2.3-0.8-4-2.4-5c-1.6-1-4.1-1.5-7.4-1.5h-3.1V414.7z"/>
	<path d="M97.8,442.6c-6,0-10.7-1.7-14.1-5c-3.4-3.3-5.1-8-5.1-14.1c0-6.3,1.6-11.1,4.7-14.6c3.1-3.4,7.5-5.1,13-5.1
		c5.3,0,9.4,1.5,12.4,4.5c2.9,3,4.4,7.2,4.4,12.5v5H89c0.1,2.9,1,5.2,2.6,6.8c1.6,1.6,3.9,2.4,6.8,2.4c2.3,0,4.4-0.2,6.4-0.7
		c2-0.5,4.1-1.2,6.3-2.2v7.9c-1.8,0.9-3.7,1.6-5.7,2C103.2,442.4,100.8,442.6,97.8,442.6z M96.4,411c-2.2,0-3.9,0.7-5.1,2.1
		c-1.2,1.4-1.9,3.3-2.1,5.8h14.3c0-2.5-0.7-4.5-2-5.8C100.3,411.7,98.6,411,96.4,411z"/>
	<path d="M152.2,441.9l-2.9-13.1l-3.9-16.6h-0.2l-6.8,29.7h-11l-10.7-37.5h10.2l4.3,16.6c0.7,3,1.4,7.1,2.1,12.3h0.2
		c0.1-1.7,0.5-4.4,1.2-8.1l0.5-2.8l4.6-18h11.3l4.4,18c0.1,0.5,0.2,1.2,0.4,2.2c0.2,1,0.4,2,0.6,3.1c0.2,1.1,0.3,2.1,0.5,3.2
		c0.1,1,0.2,1.9,0.3,2.5h0.2c0.2-1.6,0.6-3.8,1.1-6.6c0.5-2.8,0.9-4.7,1.1-5.7l4.5-16.6h10l-10.8,37.5H152.2z"/>
	<path d="M201.1,403.8c1.4,0,2.5,0.1,3.5,0.3l-0.8,9.6c-0.8-0.2-1.8-0.3-3-0.3c-3.3,0-5.8,0.8-7.6,2.5c-1.8,1.7-2.7,4-2.7,7v19.1
		h-10.2v-37.5h7.7l1.5,6.3h0.5c1.2-2.1,2.7-3.8,4.7-5.1C196.6,404.4,198.8,403.8,201.1,403.8z"/>
	<path d="M210.9,394.8c0-3.3,1.9-5,5.6-5c3.7,0,5.6,1.7,5.6,5c0,1.6-0.5,2.8-1.4,3.7c-0.9,0.9-2.3,1.3-4.2,1.3
		C212.8,399.8,210.9,398.1,210.9,394.8z M221.6,441.9h-10.2v-37.5h10.2V441.9z"/>
	<path d="M248.1,434.5c1.8,0,3.9-0.4,6.4-1.2v7.6c-2.5,1.1-5.7,1.7-9.4,1.7c-4.1,0-7.1-1-8.9-3.1c-1.9-2.1-2.8-5.2-2.8-9.3v-18.1
		h-4.9v-4.3l5.6-3.4l2.9-7.9h6.5v8h10.5v7.7h-10.5v18.1c0,1.5,0.4,2.5,1.2,3.2C245.6,434.1,246.7,434.5,248.1,434.5z"/>
	<path d="M279,442.6c-6,0-10.7-1.7-14.1-5c-3.4-3.3-5.1-8-5.1-14.1c0-6.3,1.6-11.1,4.7-14.6c3.1-3.4,7.5-5.1,13-5.1
		c5.3,0,9.4,1.5,12.4,4.5c2.9,3,4.4,7.2,4.4,12.5v5h-24.2c0.1,2.9,1,5.2,2.6,6.8c1.6,1.6,3.9,2.4,6.8,2.4c2.3,0,4.4-0.2,6.4-0.7
		c2-0.5,4.1-1.2,6.3-2.2v7.9c-1.8,0.9-3.7,1.6-5.7,2C284.4,442.4,282,442.6,279,442.6z M277.6,411c-2.2,0-3.9,0.7-5.1,2.1
		c-1.2,1.4-1.9,3.3-2.1,5.8h14.3c0-2.5-0.7-4.5-2-5.8C281.5,411.7,279.8,411,277.6,411z"/>
	<path d="M335.7,442.6c-11.7,0-17.5-6.4-17.5-19.2c0-6.4,1.6-11.2,4.8-14.6c3.2-3.4,7.7-5,13.6-5c4.3,0,8.2,0.8,11.7,2.5l-3,7.9
		c-1.6-0.6-3.1-1.2-4.5-1.6c-1.4-0.4-2.8-0.6-4.2-0.6c-5.3,0-8,3.8-8,11.3c0,7.3,2.7,11,8,11c2,0,3.8-0.3,5.5-0.8
		c1.7-0.5,3.4-1.3,5-2.5v8.7c-1.7,1.1-3.3,1.8-5,2.2C340.4,442.4,338.2,442.6,335.7,442.6z"/>
	<path d="M389.8,423.1c0,6.1-1.6,10.9-4.8,14.3c-3.2,3.4-7.7,5.2-13.4,5.2c-3.6,0-6.8-0.8-9.5-2.4c-2.7-1.6-4.9-3.8-6.3-6.8
		c-1.5-2.9-2.2-6.4-2.2-10.3c0-6.1,1.6-10.9,4.8-14.3c3.2-3.4,7.7-5.1,13.5-5.1c3.6,0,6.8,0.8,9.5,2.3c2.7,1.6,4.9,3.8,6.3,6.7
		C389,415.8,389.8,419.2,389.8,423.1z M363.9,423.1c0,3.7,0.6,6.5,1.8,8.4c1.2,1.9,3.2,2.8,5.9,2.8c2.7,0,4.7-0.9,5.9-2.8
		c1.2-1.9,1.8-4.7,1.8-8.4c0-3.7-0.6-6.5-1.8-8.3c-1.2-1.9-3.2-2.8-5.9-2.8c-2.7,0-4.7,0.9-5.9,2.8
		C364.5,416.6,363.9,419.4,363.9,423.1z"/>
	<path d="M410.1,442.6c-4.4,0-7.9-1.7-10.4-5.1c-2.5-3.4-3.8-8.2-3.8-14.2c0-6.1,1.3-10.9,3.8-14.4c2.6-3.4,6.1-5.1,10.6-5.1
		c4.7,0,8.3,1.8,10.8,5.5h0.3c-0.5-2.8-0.8-5.3-0.8-7.5v-12H431v52.1h-7.8l-2-4.9h-0.4C418.4,440.8,414.8,442.6,410.1,442.6z
		 M413.7,434.5c2.6,0,4.5-0.8,5.7-2.3c1.2-1.5,1.9-4.1,2-7.7v-1.1c0-4-0.6-6.9-1.9-8.6c-1.2-1.7-3.3-2.6-6-2.6c-2.3,0-4,1-5.3,2.9
		c-1.3,1.9-1.9,4.7-1.9,8.4s0.6,6.5,1.9,8.3C409.5,433.5,411.3,434.5,413.7,434.5z"/>
	<path d="M458.6,442.6c-6,0-10.7-1.7-14.1-5c-3.4-3.3-5.1-8-5.1-14.1c0-6.3,1.6-11.1,4.7-14.6c3.1-3.4,7.5-5.1,13-5.1
		c5.3,0,9.4,1.5,12.4,4.5c2.9,3,4.4,7.2,4.4,12.5v5h-24.2c0.1,2.9,1,5.2,2.6,6.8c1.6,1.6,3.9,2.4,6.8,2.4c2.3,0,4.4-0.2,6.4-0.7
		c2-0.5,4.1-1.2,6.3-2.2v7.9c-1.8,0.9-3.7,1.6-5.7,2C464,442.4,461.5,442.6,458.6,442.6z M457.2,411c-2.2,0-3.9,0.7-5.1,2.1
		c-1.2,1.4-1.9,3.3-2.1,5.8h14.3c0-2.5-0.7-4.5-2-5.8C461.1,411.7,459.3,411,457.2,411z"/>
</g>
<rect x="30.2" y="456.1" class="st1" width="94.4" height="5.7"/>
<path class="st2" d="M245.2,507.1c7,1.8,13.9,3.5,20.7,4.9c0.7,1.2,1.4,2.4,2.1,3.5c-6.1-1.3-12.2-2.7-18.5-4.3l4.9,8.1
	c0.8,1.3,1.6,2.7,2.5,4l1.3,2l0.2,0.2l4.7,7l2.4,3.5c0.8,1.2,1.6,2.4,2.4,3.5l10.1,13.6l10.7,13.1c14.7,17.2,30.7,33.2,47.9,47.9
	c17.2,14.7,35.3,28.2,54.4,40.4c19.1,12.1,38.9,23.1,59.3,32.9c20.4,9.8,41.3,18.5,62.6,26.1c21.3,7.6,43,14.2,64.9,19.8l8.2,2.1
	c2.7,0.7,5.5,1.4,8.2,2l16.6,3.7c11.1,2.2,22.2,4.5,33.3,6.3l8.4,1.4l8.4,1.3l8.4,1.2l4.2,0.6l4.2,0.5l16.8,2.1l16.9,1.7
	c22.5,2.1,45.1,3.4,67.8,4c22.6,0.5,45.3,0.2,67.9-0.8c5.7-0.3,11.3-0.5,17-0.9l16.9-1.2c11.3-1,22.5-2,33.8-3.3
	c22.5-2.6,44.9-5.9,67.1-10.1c22.2-4.2,44.3-9.3,66.2-15.1l8.2-2.3c2.7-0.8,5.5-1.5,8.2-2.3l16.2-4.9l16.1-5.3
	c5.4-1.8,10.7-3.8,16-5.7c42.4-15.6,83.6-35.1,121.4-59.9c18.9-12.4,36.8-26.3,53.3-41.6c16.6-15.3,31.4-32.4,44.3-51l2.5,1.7
	c-13,18.8-27.9,36-44.7,51.5c-16.7,15.5-34.7,29.5-53.7,41.9c-38,25-79.4,44.6-122,60.2c-5.4,1.9-10.7,3.9-16.1,5.7l-16.2,5.3
	l-16.3,4.9c-2.7,0.9-5.5,1.6-8.2,2.3l-8.2,2.3c-21.9,5.9-44.1,11-66.4,15.2c-22.3,4.3-44.8,7.5-67.3,10.2
	c-11.3,1.4-22.6,2.3-33.9,3.3l-17,1.2c-5.7,0.4-11.3,0.6-17,0.9c-22.7,1-45.4,1.3-68.1,0.8c-22.7-0.6-45.4-1.9-68-4l-16.9-1.7
	l-16.9-2.1l-4.2-0.5l-4.2-0.6l-8.4-1.3l-8.4-1.3l-8.4-1.5c-11.2-1.8-22.3-4.1-33.5-6.4l-16.6-3.7c-2.8-0.6-5.5-1.3-8.3-2l-8.3-2.1
	c-22-5.7-43.7-12.3-65.2-19.9c-21.4-7.7-42.4-16.4-62.9-26.3c-20.5-9.8-40.4-20.8-59.6-33.1c-19.2-12.3-37.4-25.9-54.7-40.6
	c-17.3-14.8-33.4-30.9-48.2-48.2L275.5,555l-10.2-13.7c-0.9-1.1-1.7-2.3-2.4-3.5l-2.4-3.5l-4.7-7l-0.2-0.2l-1.3-2
	c-0.9-1.3-1.7-2.7-2.5-4l-4.9-8.1c-1.5,6.2-3,12.6-4.4,19c-0.8-1.2-1.5-2.5-2.3-3.8C241.7,520.9,243.4,514,245.2,507.1z"/>
<path class="st3" d="M1348.7,560.7c-32.7,47.9-78.6,85.4-127.7,115.5c-1.6,1-0.1,3.4,1.4,2.5c49.5-30.4,95.8-68.2,128.7-116.5
	C1352.2,560.7,1349.7,559.2,1348.7,560.7L1348.7,560.7z"/>
<path class="st4" d="M1363.8,496.2c17.5,7.8,25.3,28.4,17.5,45.9c-7.8,17.5-28.4,25.3-45.9,17.5c-17.5-7.8-25.3-28.4-17.5-45.9
	c0,0,0,0,0,0C1325.8,496.2,1346.3,488.4,1363.8,496.2z M1337.1,555.6c15.3,6.9,33.3,0,40.2-15.3c6.9-15.3,0-33.3-15.3-40.2
	s-33.3,0-40.2,15.3c0,0,0,0,0,0C1315,530.8,1321.8,548.7,1337.1,555.6z"/>
<ellipse transform="matrix(0.4093 -0.9124 0.9124 0.4093 315.574 1543.1803)" class="st4" cx="1349.6" cy="527.9" rx="16.3" ry="16.3"/>
<path class="st5" d="M1358.6,342.5c-7-1.8-13.9-3.5-20.7-4.9c-0.7-1.2-1.4-2.4-2.1-3.5c6.1,1.3,12.2,2.7,18.5,4.3l-4.9-8.1
	c-0.8-1.3-1.6-2.7-2.5-4l-1.3-2l-0.2-0.2l-4.7-7l-2.4-3.5c-0.8-1.2-1.6-2.4-2.4-3.5l-10.1-13.6l-10.7-13.1
	c-14.7-17.2-30.7-33.2-47.9-47.9c-17.2-14.7-35.3-28.2-54.4-40.4c-19.1-12.1-38.9-23.1-59.3-32.9c-20.4-9.8-41.3-18.5-62.6-26.1
	c-21.3-7.6-43-14.2-64.9-19.8l-8.2-2.1c-2.7-0.7-5.5-1.4-8.2-2l-16.6-3.7c-11.1-2.2-22.2-4.5-33.3-6.3l-8.4-1.4l-8.4-1.3l-8.4-1.2
	l-4.2-0.6l-4.2-0.5l-16.8-2.1l-16.9-1.7c-22.5-2.1-45.1-3.4-67.8-4c-22.6-0.5-45.3-0.2-67.9,0.8c-5.7,0.3-11.3,0.5-17,0.9L723,92.3
	c-11.3,1-22.5,2-33.8,3.3c-22.5,2.6-44.9,5.9-67.1,10.1c-22.2,4.2-44.3,9.3-66.2,15.1l-8.2,2.3c-2.7,0.8-5.5,1.5-8.2,2.3l-16.2,4.9
	l-16.1,5.3c-5.4,1.8-10.7,3.8-16,5.7c-42.4,15.6-83.6,35.1-121.4,59.9c-18.9,12.4-36.8,26.3-53.3,41.6c-16.6,15.3-31.4,32.4-44.3,51
	l-2.5-1.7c13-18.8,27.9-36,44.7-51.5c16.7-15.5,34.7-29.5,53.7-41.9c38-25,79.4-44.6,122-60.2c5.4-1.9,10.7-3.9,16.1-5.7l16.2-5.3
	l16.3-4.9c2.7-0.9,5.5-1.6,8.2-2.3l8.2-2.3c21.9-5.9,44.1-11,66.4-15.2c22.3-4.3,44.8-7.5,67.3-10.2c11.3-1.4,22.6-2.3,33.9-3.3
	l17-1.2c5.7-0.4,11.3-0.6,17-0.9c22.7-1,45.4-1.3,68.1-0.8c22.7,0.6,45.4,1.9,68,4l16.9,1.7l16.9,2.1l4.2,0.5l4.2,0.6l8.4,1.3
	l8.4,1.3l8.4,1.5c11.2,1.8,22.3,4.1,33.5,6.4l16.6,3.7c2.8,0.6,5.5,1.3,8.3,2l8.3,2.1c22,5.7,43.7,12.3,65.2,19.9
	c21.4,7.7,42.4,16.4,62.9,26.3c20.5,9.8,40.4,20.8,59.6,33.1c19.2,12.3,37.4,25.9,54.7,40.6c17.3,14.8,33.4,30.9,48.2,48.2
	l10.8,13.2l10.2,13.7c0.9,1.1,1.7,2.3,2.4,3.5l2.4,3.5l4.7,7l0.2,0.2l1.3,2c0.9,1.3,1.7,2.7,2.5,4l4.9,8.1c1.5-6.2,3-12.6,4.4-19
	c0.8,1.2,1.5,2.5,2.3,3.8C1362,328.7,1360.3,335.7,1358.6,342.5z"/>
<path class="st6" d="M255.1,288.9c32.7-47.9,78.6-85.4,127.7-115.5c1.6-1,0.1-3.4-1.4-2.5c-49.5,30.4-95.8,68.2-128.7,116.5
	C251.6,289,254,290.5,255.1,288.9z"/>
<path class="st4" d="M239.9,353.5c-17.5-7.8-25.3-28.4-17.5-45.9c7.8-17.5,28.4-25.3,45.9-17.5s25.3,28.4,17.5,45.9c0,0,0,0,0,0
	C278,353.5,257.4,361.3,239.9,353.5z M266.6,294.1c-15.3-6.9-33.3,0-40.2,15.3c-6.9,15.3,0,33.3,15.3,40.2s33.3,0,40.2-15.3
	c0,0,0,0,0,0C288.7,318.9,281.9,301,266.6,294.1L266.6,294.1z"/>
<ellipse transform="matrix(0.4093 -0.9124 0.9124 0.4093 -143.4949 421.983)" class="st4" cx="254.1" cy="321.8" rx="16.3" ry="16.3"/>
<g class="st0">
	<path class="st6" d="M695.6,60c1.2-0.1,2.6-0.6,4.2-1.3l0.6,5c-1.6,0.9-3.6,1.6-6.1,1.8c-2.7,0.3-4.8-0.2-6.1-1.4
		c-1.4-1.2-2.2-3.2-2.5-6l-1.3-12l-3.2,0.4l-0.3-2.9l3.5-2.7l1.4-5.5l4.3-0.5l0.6,5.3l6.9-0.8l0.6,5.1l-6.9,0.8l1.3,12
		c0.1,1,0.5,1.6,1,2C693.9,60,694.7,60.1,695.6,60z"/>
</g>
<g class="st0">
	<path class="st6" d="M716.5,63.5c-4,0.4-7.2-0.5-9.7-2.5c-2.5-2-3.9-5-4.2-9.1c-0.4-4.2,0.4-7.5,2.3-9.9c1.9-2.5,4.7-3.9,8.3-4.2
		c3.5-0.3,6.3,0.4,8.5,2.3c2.1,1.8,3.4,4.5,3.7,8l0.3,3.3l-16,1.4c0.2,1.9,0.9,3.4,2.1,4.4c1.2,1,2.7,1.4,4.6,1.2
		c1.5-0.1,2.9-0.4,4.2-0.8c1.3-0.4,2.7-1,4.1-1.9l0.5,5.3c-1.1,0.7-2.4,1.3-3.7,1.7C720.1,63,718.5,63.3,716.5,63.5z M713.7,42.6
		c-1.4,0.1-2.5,0.7-3.3,1.7c-0.7,1-1.1,2.3-1.1,4l9.5-0.8c-0.2-1.7-0.7-2.9-1.7-3.8C716.3,42.8,715.2,42.5,713.7,42.6z"/>
</g>
<g class="st0">
	<path class="st6" d="M748.9,53.3c0.2,2.6-0.6,4.6-2.3,6c-1.7,1.4-4.3,2.3-7.8,2.5c-1.8,0.1-3.4,0.1-4.7-0.1
		c-1.3-0.2-2.5-0.4-3.7-0.9l-0.4-5.6c1.3,0.5,2.8,0.9,4.4,1.2c1.6,0.3,3,0.4,4.2,0.3c2.5-0.2,3.7-0.9,3.6-2.4c0-0.5-0.2-1-0.6-1.3
		c-0.3-0.3-0.9-0.7-1.8-1s-1.9-0.8-3.3-1.3c-2-0.7-3.4-1.3-4.4-2c-0.9-0.6-1.6-1.4-2.1-2.2s-0.7-1.9-0.8-3.2c-0.1-2.2,0.6-4,2.3-5.3
		c1.6-1.3,4-2.1,7.2-2.3c3-0.2,6,0.3,8.9,1.4l-1.7,5c-1.3-0.5-2.5-0.8-3.6-1.1c-1.1-0.3-2.2-0.4-3.4-0.3c-2,0.1-3,0.7-2.9,1.8
		c0,0.6,0.4,1.1,1.1,1.5c0.7,0.4,2.1,1,4.4,1.7c2,0.7,3.5,1.3,4.4,1.9c0.9,0.6,1.7,1.4,2.2,2.2C748.5,51,748.8,52,748.9,53.3z"/>
</g>
<g class="st0">
	<path class="st6" d="M764.8,55c1.2,0,2.6-0.4,4.3-1l0.2,5.1c-1.7,0.8-3.7,1.3-6.2,1.4c-2.7,0.1-4.7-0.5-6-1.8
		c-1.3-1.3-2-3.4-2.1-6.1l-0.5-12l-3.3,0.1l-0.1-2.9l3.7-2.4l1.7-5.3l4.4-0.2l0.2,5.3l7-0.3l0.2,5.1l-7,0.3l0.5,12
		c0,1,0.3,1.7,0.9,2.1S763.9,55.1,764.8,55z"/>
</g>
<g class="st0">
	<path class="st6" d="M799.6,39.4l-5.9,0.1l0.2,19.9l-6.8,0.1l-0.2-19.9l-3.8,0l0-3.3l3.7-1.9l0-1.8c0-2.8,0.6-4.9,2-6.3
		c1.4-1.3,3.6-2,6.7-2c2.4,0,4.4,0.3,6.3,1l-1.7,5c-1.4-0.4-2.6-0.6-3.8-0.6c-1,0-1.7,0.3-2.1,0.9c-0.4,0.6-0.6,1.3-0.6,2.2l0,1.6
		l5.9-0.1L799.6,39.4z"/>
</g>
<g class="st0">
	<path class="st6" d="M819.4,59.4l-1.3-3.4l-0.2,0c-1.2,1.4-2.4,2.4-3.6,3s-2.8,0.8-4.8,0.8c-2.4,0-4.3-0.7-5.6-2.1
		c-1.4-1.4-2-3.3-2-5.9c0-2.7,1-4.6,2.8-5.8c1.9-1.2,4.7-1.9,8.4-2l4.3-0.1l0-1.1c0-2.5-1.3-3.8-3.8-3.8c-2,0-4.3,0.6-7.1,1.7
		l-2.2-4.6c2.9-1.5,6.1-2.2,9.6-2.1c3.4,0,5.9,0.8,7.7,2.3s2.6,3.7,2.6,6.7l-0.2,16.6L819.4,59.4z M817.5,47.8l-2.6,0.1
		c-2,0-3.5,0.4-4.4,1c-1,0.6-1.5,1.6-1.5,3c0,1.9,1.1,2.9,3.3,2.9c1.6,0,2.8-0.4,3.8-1.3c1-0.9,1.4-2.1,1.5-3.6L817.5,47.8z"/>
</g>
<g class="st0">
	<path class="st6" d="M837.8,59.9l-6.8-0.2l0.8-25l6.8,0.2L837.8,59.9z M831.7,28.3c0.1-2.2,1.3-3.3,3.8-3.2
		c2.5,0.1,3.7,1.2,3.6,3.4c0,1.1-0.4,1.9-1,2.4c-0.6,0.6-1.6,0.8-2.8,0.8C832.8,31.7,831.6,30.5,831.7,28.3z"/>
</g>
<g class="st0">
	<path class="st6" d="M851.6,60.5l-6.8-0.3l1.6-34.7l6.8,0.3L851.6,60.5z"/>
</g>
<g class="st0">
	<path class="st6" d="M869.9,62.1c-4-0.3-7.1-1.6-9.2-4c-2.1-2.4-3-5.6-2.7-9.6c0.3-4.2,1.5-7.3,3.8-9.5c2.2-2.1,5.2-3.1,8.9-2.8
		c3.5,0.2,6.2,1.4,8,3.6c1.8,2.1,2.6,5,2.4,8.5l-0.2,3.3l-16.1-1.1c-0.1,1.9,0.4,3.5,1.4,4.6c1,1.2,2.5,1.8,4.4,1.9
		c1.5,0.1,2.9,0,4.3-0.2c1.4-0.2,2.8-0.6,4.3-1.2l-0.4,5.3c-1.2,0.5-2.5,0.9-3.9,1.1C873.5,62.2,871.8,62.2,869.9,62.1z M870.3,41
		c-1.4-0.1-2.6,0.3-3.5,1.1c-0.9,0.9-1.4,2.1-1.7,3.8l9.5,0.7c0.1-1.7-0.3-3-1-4S871.8,41.1,870.3,41z"/>
</g>
<g class="st0">
	<path class="st6" d="M893.2,64c-2.9-0.3-5.1-1.6-6.5-4.1c-1.4-2.4-2-5.7-1.6-9.7c0.4-4.1,1.6-7.2,3.5-9.3c1.9-2.1,4.4-3,7.3-2.7
		c3.1,0.3,5.4,1.8,6.8,4.3l0.2,0c-0.2-1.9-0.2-3.6,0-5l0.8-8l6.8,0.7l-3.4,34.6l-5.2-0.5l-1-3.4l-0.3,0
		C898.8,63.3,896.3,64.3,893.2,64z M896.1,58.8c1.7,0.2,3.1-0.2,4-1.1c0.9-0.9,1.5-2.6,1.8-5l0.1-0.7c0.3-2.7,0-4.6-0.7-5.9
		c-0.7-1.2-2-1.9-3.8-2.1c-1.5-0.1-2.8,0.4-3.7,1.6c-1,1.2-1.6,3-1.8,5.5s0,4.3,0.7,5.6C893.3,57.9,894.5,58.7,896.1,58.8z"/>
</g>
<g class="st0">
	<path class="st3" d="M683,813.8c1.2,0.1,2.6,0.1,4.4-0.3l-0.6,5c-1.8,0.5-3.9,0.7-6.3,0.4c-2.7-0.3-4.6-1.3-5.7-2.8
		c-1.1-1.5-1.4-3.6-1.1-6.4l1.5-12l-3.2-0.4l0.4-2.9l4-1.8l2.6-5l4.3,0.5l-0.6,5.3l6.9,0.9l-0.6,5.1l-6.9-0.9l-1.5,12
		c-0.1,1,0.1,1.7,0.5,2.2C681.5,813.4,682.2,813.7,683,813.8z"/>
</g>
<g class="st0">
	<path class="st3" d="M702.7,821.4c-4-0.4-7-1.8-9.1-4.2c-2-2.4-2.9-5.7-2.5-9.7c0.4-4.2,1.7-7.3,4.1-9.4c2.3-2.1,5.3-2.9,9-2.6
		c3.5,0.3,6.2,1.6,7.9,3.8c1.8,2.2,2.5,5,2.1,8.6l-0.3,3.3l-16-1.5c-0.1,1.9,0.3,3.5,1.3,4.7c1,1.2,2.4,1.9,4.3,2.1
		c1.5,0.1,2.9,0.1,4.3-0.1c1.4-0.2,2.8-0.5,4.3-1.1l-0.5,5.2c-1.2,0.5-2.6,0.8-3.9,1C706.3,821.6,704.7,821.5,702.7,821.4z
		 M703.8,800.3c-1.4-0.1-2.6,0.2-3.5,1c-0.9,0.8-1.5,2.1-1.8,3.7l9.5,0.9c0.1-1.7-0.2-3-0.9-4C706.3,801,705.2,800.5,703.8,800.3z"
		/>
</g>
<g class="st0">
	<path class="st3" d="M736.1,816.1c-0.2,2.6-1.2,4.4-3.1,5.7c-1.9,1.2-4.6,1.7-8.1,1.5c-1.8-0.1-3.4-0.4-4.6-0.7
		c-1.3-0.3-2.4-0.8-3.5-1.3l0.4-5.6c1.2,0.7,2.6,1.3,4.2,1.8c1.6,0.5,2.9,0.8,4.1,0.9c2.5,0.2,3.7-0.5,3.8-1.9c0-0.5-0.1-1-0.4-1.3
		c-0.3-0.4-0.8-0.8-1.6-1.3c-0.8-0.5-1.8-1-3.1-1.7c-1.9-0.9-3.2-1.8-4.1-2.5c-0.9-0.7-1.5-1.6-1.8-2.5c-0.3-0.9-0.5-2-0.4-3.3
		c0.2-2.2,1.1-3.9,2.9-5c1.8-1.1,4.3-1.5,7.4-1.3c3,0.2,5.9,1.1,8.6,2.6l-2.4,4.8c-1.2-0.6-2.3-1.1-3.4-1.6
		c-1.1-0.4-2.2-0.7-3.3-0.7c-2-0.1-3,0.3-3.1,1.4c0,0.6,0.2,1.2,0.9,1.6c0.6,0.5,2,1.2,4.1,2.3c1.9,0.9,3.3,1.8,4.1,2.5
		c0.9,0.7,1.5,1.6,1.8,2.5C736.1,813.7,736.2,814.8,736.1,816.1z"/>
</g>
<g class="st0">
	<path class="st3" d="M751.5,819.2c1.2,0.1,2.6-0.1,4.3-0.6l-0.2,5.1c-1.7,0.7-3.8,1-6.3,0.9c-2.7-0.1-4.7-0.9-5.9-2.3
		c-1.2-1.4-1.7-3.5-1.6-6.3l0.5-12l-3.3-0.1l0.1-2.9l3.9-2.1l2.2-5.2l4.4,0.2l-0.2,5.3l7,0.3l-0.2,5.1l-7-0.3l-0.5,12
		c0,1,0.2,1.7,0.7,2.2C749.9,818.9,750.6,819.2,751.5,819.2z"/>
</g>
<g class="st0">
	<path class="st3" d="M785.9,825.4c-2.9,0-5.2-1.1-6.9-3.2l-0.4,0c0.2,2.1,0.3,3.3,0.3,3.6l-0.1,10.1l-6.8,0l0.3-36l5.5,0l0.9,3.2
		l0.3,0c1.6-2.5,4-3.7,7.1-3.7c2.9,0,5.3,1.2,6.9,3.5c1.7,2.3,2.5,5.5,2.4,9.5c0,2.7-0.4,5-1.2,6.9s-1.9,3.4-3.4,4.5
		C789.5,824.9,787.8,825.4,785.9,825.4z M784,804.9c-1.7,0-2.9,0.5-3.7,1.5c-0.8,1-1.2,2.7-1.2,5.1l0,0.7c0,2.7,0.4,4.6,1.2,5.8
		c0.8,1.2,2,1.8,3.8,1.8c3.1,0,4.6-2.5,4.6-7.5c0-2.5-0.3-4.3-1.1-5.5C786.8,805.6,785.6,805,784,804.9z"/>
</g>
<g class="st0">
	<path class="st3" d="M816.7,824.6l-1.4-3.4l-0.2,0c-1.1,1.5-2.3,2.5-3.5,3.1c-1.2,0.6-2.8,0.9-4.7,0.9c-2.4,0.1-4.3-0.6-5.7-1.9
		c-1.4-1.3-2.1-3.3-2.2-5.8c-0.1-2.7,0.8-4.6,2.7-5.9c1.8-1.3,4.6-2.1,8.3-2.3l4.3-0.2l0-1.1c-0.1-2.5-1.4-3.8-4-3.7
		c-2,0-4.3,0.7-7,2l-2.4-4.6c2.8-1.6,6-2.4,9.5-2.5c3.4-0.1,5.9,0.6,7.8,2c1.8,1.4,2.8,3.6,2.8,6.6l0.4,16.6L816.7,824.6z
		 M814.5,813.1l-2.6,0.1c-2,0.1-3.4,0.5-4.4,1.2c-1,0.7-1.4,1.7-1.4,3c0,1.9,1.2,2.9,3.4,2.8c1.6,0,2.8-0.5,3.8-1.4
		c0.9-0.9,1.4-2.1,1.3-3.6L814.5,813.1z"/>
</g>
<g class="st0">
	<path class="st3" d="M845.4,816c0.1,2.6-0.7,4.5-2.4,6c-1.7,1.4-4.3,2.2-7.9,2.4c-1.8,0.1-3.4,0-4.7-0.2c-1.3-0.2-2.5-0.5-3.6-0.9
		l-0.3-5.6c1.3,0.5,2.7,1,4.3,1.3c1.6,0.3,3,0.5,4.2,0.4c2.5-0.1,3.7-0.9,3.6-2.3c0-0.5-0.2-1-0.6-1.3c-0.3-0.3-0.9-0.7-1.7-1.1
		s-1.9-0.8-3.3-1.3c-2-0.7-3.4-1.4-4.3-2c-0.9-0.6-1.6-1.4-2.1-2.3c-0.5-0.9-0.7-1.9-0.8-3.2c-0.1-2.2,0.7-4,2.3-5.3
		c1.7-1.3,4.1-2,7.2-2.2c3-0.1,6,0.4,8.9,1.5l-1.8,5c-1.3-0.5-2.5-0.9-3.6-1.2c-1.1-0.3-2.2-0.4-3.3-0.4c-2,0.1-3,0.7-2.9,1.8
		c0,0.6,0.4,1.1,1,1.5s2.1,1,4.3,1.8c2,0.7,3.4,1.4,4.4,2c0.9,0.6,1.6,1.4,2.1,2.3S845.3,814.8,845.4,816z"/>
</g>
<g class="st0">
	<path class="st3" d="M867.7,814.5c0.2,2.6-0.6,4.6-2.3,6c-1.7,1.5-4.3,2.3-7.8,2.6c-1.8,0.1-3.4,0.1-4.7,0
		c-1.3-0.2-2.5-0.4-3.7-0.8l-0.4-5.6c1.3,0.5,2.8,0.9,4.4,1.2c1.6,0.3,3,0.4,4.2,0.3c2.5-0.2,3.6-1,3.5-2.4c0-0.5-0.2-1-0.6-1.3
		c-0.4-0.3-0.9-0.7-1.8-1c-0.8-0.4-1.9-0.8-3.3-1.3c-2-0.7-3.4-1.3-4.4-1.9c-0.9-0.6-1.7-1.4-2.1-2.2c-0.5-0.9-0.8-1.9-0.8-3.2
		c-0.2-2.2,0.6-4,2.2-5.3c1.6-1.3,4-2.1,7.2-2.3c3-0.2,6,0.2,8.9,1.3l-1.7,5c-1.3-0.4-2.5-0.8-3.6-1.1c-1.1-0.3-2.2-0.4-3.4-0.3
		c-2,0.1-3,0.8-2.9,1.8c0,0.6,0.4,1.1,1.1,1.5c0.7,0.4,2.1,1,4.4,1.7c2,0.7,3.5,1.3,4.4,1.9c1,0.6,1.7,1.4,2.2,2.2
		C867.4,812.2,867.6,813.2,867.7,814.5z"/>
</g>
<g class="st0">
	<path class="st3" d="M884.7,820.8c-4,0.4-7.2-0.4-9.7-2.4c-2.5-2-3.9-5-4.3-9.1c-0.4-4.2,0.3-7.5,2.2-10c1.9-2.5,4.6-3.9,8.3-4.2
		c3.5-0.3,6.3,0.4,8.5,2.2c2.1,1.8,3.4,4.5,3.7,8l0.3,3.3l-16,1.5c0.3,1.9,1,3.4,2.1,4.4c1.2,1,2.7,1.4,4.6,1.2
		c1.5-0.1,2.9-0.4,4.2-0.9c1.3-0.4,2.7-1.1,4-1.9l0.5,5.2c-1.1,0.7-2.4,1.3-3.7,1.7C888.2,820.3,886.6,820.6,884.7,820.8z
		 M881.7,800c-1.4,0.1-2.5,0.7-3.3,1.7c-0.7,1-1.1,2.3-1,4l9.5-0.9c-0.2-1.7-0.7-2.9-1.7-3.8C884.3,800.2,883.1,799.8,881.7,800z"/>
</g>
<g class="st0">
	<path class="st3" d="M907.9,818.3c-2.9,0.4-5.3-0.5-7.3-2.6c-1.9-2.1-3.2-5.1-3.6-9.1c-0.5-4.1,0-7.3,1.4-9.8s3.6-3.9,6.6-4.3
		c3.1-0.4,5.6,0.5,7.6,2.8l0.2,0c-0.6-1.8-0.9-3.4-1.1-4.9l-1-7.9l6.8-0.8l4.2,34.5l-5.2,0.6l-1.7-3.1l-0.3,0
		C913.3,816.4,911.1,817.9,907.9,818.3z M909.7,812.7c1.7-0.2,2.9-0.9,3.6-2c0.7-1.1,0.9-2.9,0.7-5.3l-0.1-0.7
		c-0.3-2.7-1-4.5-1.9-5.6c-1-1.1-2.4-1.5-4.2-1.2c-1.5,0.2-2.6,1-3.3,2.3s-0.9,3.3-0.6,5.7c0.3,2.4,0.9,4.2,1.9,5.3
		C906.8,812.4,908.1,812.8,909.7,812.7z"/>
</g>
</svg>
