<svg id="Слой_1" data-name="Слой 1" xmlns="http://www.w3.org/2000/svg" viewBox="0 0 1616.32031 807.59473"><defs><style>.cls-1{font-size:72px;font-family:OpenSans-SemiBold, Open Sans;font-weight:700;}.cls-2{fill:#dcb05e;}.cls-3{fill:#808183;}.cls-4{fill:#6d6e70;}.cls-5{fill:#606060;}</style></defs><title>chart 1</title><text class="cls-1" transform="translate(687 61.69922)">Add test</text><rect class="cls-2" x="687" y="76.59473" width="99" height="6"/><text class="cls-1" transform="translate(1066 786.19922)">Write code</text><rect class="cls-2" x="1066" y="801.09473" width="99" height="6"/><text class="cls-1" transform="translate(1344 357.69922)">Test fail</text><rect class="cls-2" x="1344" y="372.59473" width="99" height="6"/><text class="cls-1" transform="translate(148 786.69922)">Test passed</text><rect class="cls-2" x="148" y="801.59473" width="99" height="6"/><text class="cls-1" transform="translate(0 353.69922)">Refactoring</text><rect class="cls-2" y="368.59473" width="99" height="6"/><path class="cls-3" d="M765.50012,235.92287l-11.82959,19.06622-4.35239,1.01852L759.94351,238.852l-9.65112,2.25856-4.82556,1.12928-2.41278.56464-4.34714,1.01732q-4.06352.93612-8.10889,1.94186l-16.19861,3.95719-8.09668,1.98828-8.07126,2.08108-16.14252,4.162-16.067,4.42261c-2.67352.751-5.36514,1.4436-8.02383,2.24245l-7.98306,2.374a614.72118,614.72118,0,0,0-62.844,21.85928,479.47055,479.47055,0,0,0-59.30554,30.02235c-19.12842,11.26469-37.80356,23.342-56.50545,35.38249l-1.72012-2.66617c18.70633-12.043,37.40457-24.1367,56.61879-35.4523A482.67,482.67,0,0,1,585.9476,285.923a617.821,617.821,0,0,1,63.16367-21.9732l8.01-2.3819c2.668-.80153,5.36435-1.49548,8.04514-2.24849l16.10693-4.43351,16.17117-4.16953,8.0856-2.08471,8.10709-1.99088,16.21863-3.96207q4.05249-1.00046,8.1174-1.9439l4.3508-1.01818,2.41479-.56511,4.82962-1.13023,9.65921-2.26045-17.18683-10.647,4.389-1.02715Z" transform="translate(-133 -137.40527)"/><path class="cls-4" d="M460.38511,344.19842c27.24121-21.494,57.92242-39.43549,88.872-54.98088,1.72552-.8667.20822-3.45553-1.51416-2.59041-31.20627,15.67433-62.017,33.78164-89.47913,55.45-1.51472,1.19515.62108,3.305,2.12132,2.12132Z" transform="translate(-133 -137.40527)"/><path class="cls-5" d="M443.5538,410.06044a36.4329,36.4329,0,1,1,36.43275-36.4329A36.47351,36.47351,0,0,1,443.5538,410.06044Zm0-68.32922A31.89633,31.89633,0,1,0,475.45,373.62754,31.93286,31.93286,0,0,0,443.5538,341.73121Z" transform="translate(-133 -137.40527)"/><circle class="cls-5" cx="310.5538" cy="236.22227" r="17.08155"/><path class="cls-3" d="M1486.67053,414.71524q-11.27014.44543-22.4032,1.01736l-3.27356-2.99368q10.0025-.53007,20.11707-.95876l-7.3092-6.68373-3.65466-3.34189-1.82727-1.671-3.28113-3.00047c-2.03723-1.87355-4.1571-3.65207-6.23144-5.48279l-12.51074-10.91058c-2.06628-1.84131-4.20154-3.59886-6.33984-5.35287l-6.39929-5.28052c-4.28211-3.49989-8.47974-7.10869-12.89966-10.43108l-13.11548-10.15317-13.44373-9.70094a457.163,457.163,0,0,0-56.65588-34.24887c-19.69665-10.00327-40.1925-18.36655-60.91064-26.159-20.726-7.78648-41.63074-15.18417-62.40973-22.94941l1.11176-2.97176c20.74951,7.75437,41.64154,15.1473,62.41705,22.95218,20.76465,7.80992,41.38312,16.22035,61.22443,26.29706a460.35757,460.35757,0,0,1,57.04944,34.48526l13.51855,9.75525,13.177,10.20041c4.44189,3.33977,8.65332,6.95976,12.95227,10.47343l6.42358,5.30063c2.14636,1.76089,4.28979,3.52528,6.36169,5.37144l12.54846,10.94334c2.08032,1.83592,4.2074,3.621,6.24939,5.4987l3.28894,3.00746,1.83154,1.67487,3.66321,3.34972,7.32642,6.69951q-.42535-10.06618-.96228-20.2343l3.35168,3.06467Q1486.23187,403.56136,1486.67053,414.71524Z" transform="translate(-133 -137.40527)"/><path class="cls-4" d="M1215.45565,241.56746c33.88221,9.04114,67.74948,19.67915,99.1792,35.41632,1.72156.862,3.24259-1.725,1.51416-2.59041-31.66511-15.855-65.75994-26.60991-99.89584-35.71875a1.50128,1.50128,0,0,0-.79752,2.89284Z" transform="translate(-133 -137.40527)"/><path class="cls-5" d="M1152.75376,267.42795a36.4329,36.4329,0,1,1,50.979,7.47262A36.47351,36.47351,0,0,1,1152.75376,267.42795Zm54.81269-40.7977a31.89633,31.89633,0,1,0-6.54234,44.63115A31.93286,31.93286,0,0,0,1207.56645,226.63025Z" transform="translate(-133 -137.40527)"/><circle class="cls-5" cx="1181.97969" cy="245.67476" r="17.08155" transform="translate(-45.8732 616.92381) rotate(-36.66072)"/><path class="cls-3" d="M1295.49976,843.49951q3.90079-10.59824,7.60889-21.10742l4.00854-1.88293q-3.31366,9.4465-6.78259,18.967l8.963-4.21069,4.48145-2.10529,2.24084-1.05261,4.11536-1.93323,3.84753-1.81079,3.79346-1.91858,15.17371-7.67413,7.57922-3.851,7.45129-4.08667,14.90283-8.17279c4.89392-2.84906,9.72546-5.80353,14.59143-8.69983l7.28687-4.36481,7.09106-4.6673,7.08838-4.67151c2.34937-1.57587,4.767-3.05627,7.01489-4.77454L1429.661,765.478c1.16309-.80719,2.22937-1.73688,3.33252-2.61981l3.28882-2.67517,6.578-5.34991c1.09045-.89838,2.20618-1.76782,3.27588-2.68994l3.13293-2.85278,6.26648-5.70483,3.13354-2.85217c1.06433-.93048,1.99622-1.99646,3.00086-2.988l5.92541-6.05414c4.05823-3.93671,7.62634-8.32458,11.36877-12.552l2.78394-3.19165c.94824-1.04706,1.7583-2.20892,2.64429-3.30774l5.209-6.68158,2.60486-3.34058,2.43909-3.46582,4.87073-6.93744c12.77625-18.66473,23.68652-38.56677,34.37573-58.58038l2.79871,1.49478c-10.69971,20.0314-21.66187,40.03854-34.55359,58.87408l-4.91626,7.00247-2.46265,3.498-2.63135,3.37579-5.26331,6.7511c-.89539,1.11035-1.71436,2.2832-2.67249,3.34216l-2.81348,3.22675c-3.7821,4.2738-7.39172,8.70758-11.49109,12.68713l-5.9884,6.11823c-1.01514,1.00183-1.9585,2.079-3.03259,3.01892l-3.16394,2.88092-6.32861,5.76129-3.16455,2.88031c-1.07959.93073-2.20447,1.80792-3.30444,2.71448l-6.63586,5.39734-3.31812,2.69843c-1.11279.89044-2.18982,1.82843-3.36072,2.64166L1417.78,778.07843c-2.26672,1.73157-4.69714,3.22076-7.062,4.807l-7.1333,4.70142-7.13648,4.69629-7.32458,4.38812c-4.89075,2.91144-9.7489,5.88153-14.66687,8.74426l-14.96533,8.20764-7.48291,4.10352-7.605,3.86444-15.22485,7.69989-3.80627,1.92493-3.85779,1.81573-4.12646,1.93854-2.24671,1.05548-4.49353,2.111-8.987,4.2218q9.4573,3.44742,19.07037,6.8219l-4.11706,1.93427Q1305.961,847.35217,1295.49976,843.49951Z" transform="translate(-133 -137.40527)"/><path class="cls-5" d="M1530.14711,567.39507a36.4329,36.4329,0,1,1-21.08787,47.01066A36.47351,36.47351,0,0,1,1530.14711,567.39507Zm24.30877,63.859a31.89633,31.89633,0,1,0-41.15687-18.46222A31.93286,31.93286,0,0,0,1554.45588,631.254Z" transform="translate(-133 -137.40527)"/><circle class="cls-5" cx="1543.10846" cy="601.44444" r="17.08155" transform="translate(-246.01562 450.91829) rotate(-20.84)"/><path class="cls-3" d="M357.50054,515.50009c4.49854,6.07571,8.96917,11.93774,13.57384,17.58765l-.42834,4.26645-3.206-3.80563-1.59877-1.9296-1.52789-1.94305q-3.054-3.9023-6.09187-7.9343c-.44324,3.26144-.95715,6.51511-1.34284,9.7829l-.49545,4.91092-.24784,2.45541-.4733,4.687c-.27914,2.93161-.376,5.87595-.57326,8.81326-.45913,5.87491-.43163,11.763-.541,17.64746-.05078,1.47171.01228,2.94147.0568,4.41156l.13229,4.41031c.08658,2.94028.13711,5.88284.42119,8.81079l.67834,8.79468,1.10365,8.74792a225.1485,225.1485,0,0,0,7.52406,34.39523,211.41328,211.41328,0,0,0,13.21586,32.608,218.22075,218.22075,0,0,0,18.42471,30.00266c13.90187,18.993,30.56355,35.8385,48.279,51.395,17.726,15.58557,36.52994,29.9422,55.10139,44.64166l-1.97025,2.48706c-18.53906-14.67493-37.39037-29.06488-55.22552-44.74524-17.82314-15.65167-34.66011-32.66144-48.74728-51.90759a221.40289,221.40289,0,0,1-18.69118-30.437,214.59114,214.59114,0,0,1-13.4195-33.11191,228.31733,228.31733,0,0,1-7.634-34.89133l-1.11761-8.86407-.68755-8.90427c-.28657-2.96555-.33871-5.9415-.42644-8.91589l-.13358-4.46152c-.04482-1.48718-.108-2.9744-.05727-4.46133.1092-5.9472.08371-11.90082.546-17.83139.19885-2.96579.29788-5.94061.57927-8.899l.47712-4.72919.25007-2.47751.50036-4.955c.389-3.296.90633-6.57523,1.35346-9.86362q-4.035,3.03891-8.08722,6.2074l-2.02673,1.59241-1.96062,1.62241-3.92315,3.29916.47323-4.66577C345.51012,524.50314,351.55265,519.90219,357.50054,515.50009Z" transform="translate(-133 -137.40527)"/><path class="cls-4" d="M493.06066,814.93934c-26.07-20.63228-52.646-40.73846-76.159-64.33995a1.50086,1.50086,0,0,0-2.12132,2.12132c23.513,23.60145,50.08908,43.70769,76.159,64.33995,1.49821,1.18571,3.63509-.92329,2.12132-2.12132Z" transform="translate(-133 -137.40527)"/><path class="cls-5" d="M563.83123,810.8986a36.4329,36.4329,0,1,1-40.89662-31.33955A36.47351,36.47351,0,0,1,563.83123,810.8986Zm-67.739,8.96194a31.89633,31.89633,0,1,0,27.43734-35.8041A31.93286,31.93286,0,0,0,496.09227,819.86054Z" transform="translate(-133 -137.40527)"/><circle class="cls-5" cx="527.71306" cy="815.67707" r="17.08155" transform="matrix(0.99136, -0.13116, 0.13116, 0.99136, -235.42408, -61.1451)"/><path class="cls-3" d="M760.06256,890.13123,778.422,877.23584l4.39035.76892-16.487,11.61322,9.7605,1.70929,4.88025.85468,2.44012.42731,4.38062.76721c2.72418.49432,5.45819.92322,8.19147,1.35712l16.39783,2.61627c5.46045.91321,10.94305,1.66034,16.42236,2.43195,5.48108.75635,10.9541,1.58337,16.44171,2.2818l16.47705,1.96954,4.11926.49243,4.12805.39526,8.25677.78363a610.11471,610.11471,0,0,0,66.22,2.762c22.10156-.3089,44.17255-2.00525,66.24994-3.83685,22.07782-1.85223,44.183-3.68054,66.31812-5.09332l.19873,3.16663c-22.09851,1.41058-44.16663,3.23566-66.25543,5.08881-22.08533,1.832-44.239,3.53644-66.46423,3.84729a613.28894,613.28894,0,0,1-66.5575-2.775l-8.28967-.7868-4.14441-.397-4.13245-.4939-16.52966-1.97583c-5.50366-.7005-10.98853-1.52917-16.4837-2.28748-5.49292-.77362-10.99-1.52289-16.45935-2.4375L795.463,897.86438c-2.73853-.43475-5.47794-.86456-8.20538-1.3595l-4.38681-.76819-2.44357-.42792-4.88712-.8559-9.77426-1.71173,11.64838,16.54047-4.45267-.77972Z" transform="translate(-133 -137.40527)"/><path class="cls-4" d="M1083.10872,916.61963c-35.17728,2.22636-70.24723,5.959-105.43586,7.97645-1.91928.11-1.932,3.11077,0,3,35.18863-2.01746,70.25859-5.75009,105.43586-7.97645,1.91741-.12135,1.9311-3.12222,0-3Z" transform="translate(-133 -137.40527)"/><path class="cls-5" d="M1125.08043,863.01519a36.4329,36.4329,0,1,1-48.15294,18.33018A36.47351,36.47351,0,0,1,1125.08043,863.01519Zm-27.9662,62.344a31.89633,31.89633,0,1,0-16.04754-42.15706A31.93286,31.93286,0,0,0,1097.11423,925.35919Z" transform="translate(-133 -137.40527)"/><circle class="cls-5" cx="1110.16895" cy="896.25678" r="17.08155" transform="translate(-294.95793 1404.95098) rotate(-65.84)"/><path class="cls-4" d="M1550.996,636.62435c-17.899,33.48748-36.80376,66.27065-62.64465,94.36657-1.30516,1.41906.81095,3.546,2.12132,2.12132,26.01091-28.28078,45.09386-61.26006,63.11374-94.97373.90984-1.70223-1.679-3.21933-2.59041-1.51416Z" transform="translate(-133 -137.40527)"/></svg>