<?xml version="1.0" encoding="utf-8"?>
<!-- Generator: Adobe Illustrator 21.0.0, SVG Export Plug-In . SVG Version: 6.00 Build 0)  -->
<svg version="1.1" id="Слой_1" xmlns="http://www.w3.org/2000/svg" xmlns:xlink="http://www.w3.org/1999/xlink" x="0px" y="0px"
	 viewBox="0 0 1697.1 858.5" style="enable-background:new 0 0 1697.1 858.5;" xml:space="preserve">
<style type="text/css">
	.st0{enable-background:new    ;}
	.st1{fill:#DCB05E;}
	.st2{fill:#E25C5C;}
	.st3{fill:#DD4343;}
	.st4{fill:#606060;}
	.st5{fill:#45AD6E;}
	.st6{fill:#28A058;}
</style>
<title>chart 2a</title>
<g class="st0">
	<path d="M1262.6,423.2v18.7h-10.3v-48.6h14.2c6.6,0,11.5,1.2,14.7,3.6c3.2,2.4,4.8,6.1,4.8,11c0,2.9-0.8,5.4-2.4,7.6
		c-1.6,2.2-3.8,4-6.7,5.2c7.3,10.9,12.1,18,14.3,21.2h-11.4l-11.6-18.7H1262.6z M1262.6,414.8h3.3c3.3,0,5.7-0.5,7.2-1.6
		c1.6-1.1,2.3-2.8,2.3-5.1c0-2.3-0.8-3.9-2.4-4.9c-1.6-1-4-1.5-7.4-1.5h-3.1V414.8z"/>
	<path d="M1313.3,442.5c-6,0-10.7-1.7-14-5c-3.4-3.3-5.1-8-5.1-14c0-6.2,1.6-11,4.7-14.4c3.1-3.4,7.4-5.1,12.9-5.1
		c5.3,0,9.3,1.5,12.3,4.5c2.9,3,4.4,7.1,4.4,12.4v4.9h-24c0.1,2.9,1,5.1,2.6,6.7c1.6,1.6,3.8,2.4,6.7,2.4c2.2,0,4.4-0.2,6.3-0.7
		c2-0.5,4.1-1.2,6.3-2.2v7.8c-1.8,0.9-3.7,1.5-5.7,2C1318.7,442.3,1316.2,442.5,1313.3,442.5z M1311.9,411.2c-2.1,0-3.8,0.7-5.1,2
		c-1.2,1.4-1.9,3.3-2.1,5.8h14.2c0-2.5-0.7-4.4-2-5.8C1315.7,411.9,1314,411.2,1311.9,411.2z"/>
	<path d="M1367.3,441.8l-2.9-13l-3.9-16.4h-0.2l-6.8,29.4h-10.9l-10.6-37.2h10.1l4.3,16.5c0.7,2.9,1.4,7,2.1,12.2h0.2
		c0.1-1.7,0.5-4.4,1.2-8l0.5-2.8l4.6-17.8h11.2l4.4,17.8c0.1,0.5,0.2,1.2,0.4,2.2c0.2,1,0.4,2,0.5,3c0.2,1.1,0.3,2.1,0.5,3.2
		c0.1,1,0.2,1.9,0.2,2.5h0.2c0.2-1.6,0.6-3.8,1.1-6.6c0.5-2.8,0.9-4.7,1.1-5.6l4.5-16.5h9.9l-10.7,37.2H1367.3z"/>
	<path d="M1415.7,404c1.4,0,2.5,0.1,3.4,0.3l-0.8,9.5c-0.8-0.2-1.8-0.3-3-0.3c-3.2,0-5.8,0.8-7.6,2.5c-1.8,1.7-2.7,4-2.7,7v18.9
		H1395v-37.2h7.7l1.5,6.3h0.5c1.2-2.1,2.7-3.8,4.7-5C1411.3,404.6,1413.4,404,1415.7,404z"/>
	<path d="M1425.5,395.1c0-3.3,1.8-5,5.5-5s5.5,1.7,5.5,5c0,1.6-0.5,2.8-1.4,3.7c-0.9,0.9-2.3,1.3-4.1,1.3
		C1427.3,400.1,1425.5,398.4,1425.5,395.1z M1436,441.8h-10.1v-37.2h10.1V441.8z"/>
	<path d="M1462.3,434.4c1.8,0,3.9-0.4,6.4-1.2v7.5c-2.5,1.1-5.6,1.7-9.3,1.7c-4.1,0-7-1-8.9-3.1c-1.9-2-2.8-5.1-2.8-9.2v-17.9h-4.9
		V408l5.6-3.4l2.9-7.8h6.5v7.9h10.4v7.6h-10.4v17.9c0,1.4,0.4,2.5,1.2,3.2C1459.9,434.1,1461,434.4,1462.3,434.4z"/>
	<path d="M1493,442.5c-6,0-10.7-1.7-14-5c-3.4-3.3-5.1-8-5.1-14c0-6.2,1.6-11,4.7-14.4c3.1-3.4,7.4-5.1,12.9-5.1
		c5.3,0,9.3,1.5,12.3,4.5c2.9,3,4.4,7.1,4.4,12.4v4.9h-24c0.1,2.9,1,5.1,2.6,6.7c1.6,1.6,3.8,2.4,6.7,2.4c2.2,0,4.4-0.2,6.3-0.7
		c2-0.5,4.1-1.2,6.3-2.2v7.8c-1.8,0.9-3.7,1.5-5.7,2C1498.4,442.3,1496,442.5,1493,442.5z M1491.6,411.2c-2.1,0-3.8,0.7-5.1,2
		c-1.2,1.4-1.9,3.3-2.1,5.8h14.2c0-2.5-0.7-4.4-2-5.8C1495.5,411.9,1493.8,411.2,1491.6,411.2z"/>
	<path d="M1549.8,434.4c1.8,0,3.9-0.4,6.4-1.2v7.5c-2.5,1.1-5.6,1.7-9.3,1.7c-4.1,0-7-1-8.9-3.1c-1.9-2-2.8-5.1-2.8-9.2v-17.9h-4.9
		V408l5.6-3.4l2.9-7.8h6.5v7.9h10.4v7.6h-10.4v17.9c0,1.4,0.4,2.5,1.2,3.2C1547.4,434.1,1548.5,434.4,1549.8,434.4z"/>
	<path d="M1580.5,442.5c-6,0-10.7-1.7-14-5c-3.4-3.3-5.1-8-5.1-14c0-6.2,1.6-11,4.7-14.4c3.1-3.4,7.4-5.1,12.9-5.1
		c5.3,0,9.3,1.5,12.3,4.5c2.9,3,4.4,7.1,4.4,12.4v4.9h-24c0.1,2.9,1,5.1,2.6,6.7c1.6,1.6,3.8,2.4,6.7,2.4c2.2,0,4.4-0.2,6.3-0.7
		c2-0.5,4.1-1.2,6.3-2.2v7.8c-1.8,0.9-3.7,1.5-5.7,2C1585.9,442.3,1583.4,442.5,1580.5,442.5z M1579.1,411.2c-2.1,0-3.8,0.7-5.1,2
		c-1.2,1.4-1.9,3.3-2.1,5.8h14.2c0-2.5-0.7-4.4-2-5.8C1582.9,411.9,1581.2,411.2,1579.1,411.2z"/>
	<path d="M1629.9,430.8c0,3.8-1.3,6.7-4,8.7s-6.6,3-11.9,3c-2.7,0-5-0.2-6.9-0.5c-1.9-0.4-3.7-0.9-5.4-1.6V432
		c1.9,0.9,4,1.6,6.4,2.2s4.4,0.9,6.2,0.9c3.7,0,5.5-1.1,5.5-3.2c0-0.8-0.2-1.4-0.7-1.9c-0.5-0.5-1.3-1.1-2.5-1.7
		c-1.2-0.6-2.8-1.4-4.8-2.2c-2.9-1.2-5-2.3-6.3-3.3c-1.3-1-2.3-2.2-2.9-3.5c-0.6-1.3-0.9-2.9-0.9-4.9c0-3.3,1.3-5.9,3.8-7.7
		c2.6-1.8,6.2-2.7,10.9-2.7c4.5,0,8.8,1,13.1,2.9l-3.1,7.3c-1.9-0.8-3.6-1.5-5.2-2c-1.6-0.5-3.3-0.8-5-0.8c-3,0-4.5,0.8-4.5,2.4
		c0,0.9,0.5,1.7,1.4,2.4c1,0.7,3.1,1.7,6.3,3c2.9,1.2,5,2.3,6.4,3.3c1.4,1,2.3,2.2,3,3.5C1629.5,427.4,1629.9,429,1629.9,430.8z"/>
	<path d="M1653.4,434.4c1.8,0,3.9-0.4,6.4-1.2v7.5c-2.5,1.1-5.6,1.7-9.3,1.7c-4.1,0-7-1-8.9-3.1c-1.9-2-2.8-5.1-2.8-9.2v-17.9h-4.9
		V408l5.6-3.4l2.9-7.8h6.5v7.9h10.4v7.6H1649v17.9c0,1.4,0.4,2.5,1.2,3.2C1651,434.1,1652.1,434.4,1653.4,434.4z"/>
</g>
<rect x="1246.2" y="455.9" class="st1" width="93.6" height="5.7"/>
<g class="st0">
	<path d="M54.1,423.2v18.7H43.8v-48.6H58c6.6,0,11.5,1.2,14.7,3.6s4.8,6.1,4.8,11c0,2.9-0.8,5.4-2.4,7.6c-1.6,2.2-3.8,4-6.7,5.2
		c7.3,10.9,12.1,18,14.3,21.2H71.2l-11.6-18.7H54.1z M54.1,414.8h3.3c3.3,0,5.7-0.5,7.2-1.6c1.6-1.1,2.3-2.8,2.3-5.1
		c0-2.3-0.8-3.9-2.4-4.9c-1.6-1-4-1.5-7.4-1.5h-3.1V414.8z"/>
	<path d="M104.8,442.5c-6,0-10.7-1.7-14-5c-3.4-3.3-5.1-8-5.1-14c0-6.2,1.6-11,4.7-14.4c3.1-3.4,7.4-5.1,12.9-5.1
		c5.3,0,9.3,1.5,12.3,4.5c2.9,3,4.4,7.1,4.4,12.4v4.9H96c0.1,2.9,1,5.1,2.6,6.7c1.6,1.6,3.8,2.4,6.7,2.4c2.2,0,4.4-0.2,6.3-0.7
		c2-0.5,4.1-1.2,6.3-2.2v7.8c-1.8,0.9-3.7,1.5-5.7,2C110.2,442.3,107.7,442.5,104.8,442.5z M103.4,411.2c-2.1,0-3.8,0.7-5.1,2
		c-1.2,1.4-1.9,3.3-2.1,5.8h14.2c0-2.5-0.7-4.4-2-5.8C107.2,411.9,105.5,411.2,103.4,411.2z"/>
	<path d="M158.7,441.8l-2.9-13l-3.9-16.4h-0.2l-6.8,29.4h-10.9l-10.6-37.2h10.1l4.3,16.5c0.7,2.9,1.4,7,2.1,12.2h0.2
		c0.1-1.7,0.5-4.4,1.2-8l0.5-2.8l4.6-17.8h11.2l4.4,17.8c0.1,0.5,0.2,1.2,0.4,2.2c0.2,1,0.4,2,0.5,3c0.2,1.1,0.3,2.1,0.5,3.2
		c0.1,1,0.2,1.9,0.2,2.5h0.2c0.2-1.6,0.6-3.8,1.1-6.6c0.5-2.8,0.9-4.7,1.1-5.6l4.5-16.5h9.9l-10.7,37.2H158.7z"/>
	<path d="M207.2,404c1.4,0,2.5,0.1,3.4,0.3l-0.8,9.5c-0.8-0.2-1.8-0.3-3-0.3c-3.2,0-5.8,0.8-7.6,2.5c-1.8,1.7-2.7,4-2.7,7v18.9
		h-10.1v-37.2h7.7l1.5,6.3h0.5c1.2-2.1,2.7-3.8,4.7-5C202.8,404.6,204.9,404,207.2,404z"/>
	<path d="M217,395.1c0-3.3,1.8-5,5.5-5c3.7,0,5.5,1.7,5.5,5c0,1.6-0.5,2.8-1.4,3.7c-0.9,0.9-2.3,1.3-4.1,1.3
		C218.8,400.1,217,398.4,217,395.1z M227.5,441.8h-10.1v-37.2h10.1V441.8z"/>
	<path d="M253.8,434.4c1.8,0,3.9-0.4,6.4-1.2v7.5c-2.5,1.1-5.6,1.7-9.3,1.7c-4.1,0-7-1-8.9-3.1c-1.9-2-2.8-5.1-2.8-9.2v-17.9h-4.9
		V408l5.6-3.4l2.9-7.8h6.5v7.9h10.4v7.6h-10.4v17.9c0,1.4,0.4,2.5,1.2,3.2C251.4,434.1,252.5,434.4,253.8,434.4z"/>
	<path d="M284.5,442.5c-6,0-10.7-1.7-14-5c-3.4-3.3-5.1-8-5.1-14c0-6.2,1.6-11,4.7-14.4c3.1-3.4,7.4-5.1,12.9-5.1
		c5.3,0,9.3,1.5,12.3,4.5c2.9,3,4.4,7.1,4.4,12.4v4.9h-24c0.1,2.9,1,5.1,2.6,6.7c1.6,1.6,3.8,2.4,6.7,2.4c2.2,0,4.4-0.2,6.3-0.7
		c2-0.5,4.1-1.2,6.3-2.2v7.8c-1.8,0.9-3.7,1.5-5.7,2C289.9,442.3,287.4,442.5,284.5,442.5z M283.1,411.2c-2.1,0-3.8,0.7-5.1,2
		c-1.2,1.4-1.9,3.3-2.1,5.8h14.2c0-2.5-0.7-4.4-2-5.8C287,411.9,285.3,411.2,283.1,411.2z"/>
	<path d="M340.7,442.5c-11.6,0-17.4-6.3-17.4-19c0-6.3,1.6-11.1,4.7-14.5c3.1-3.3,7.7-5,13.5-5c4.3,0,8.2,0.8,11.6,2.5l-3,7.8
		c-1.6-0.6-3.1-1.2-4.5-1.6c-1.4-0.4-2.7-0.6-4.1-0.6c-5.3,0-7.9,3.7-7.9,11.2c0,7.3,2.6,10.9,7.9,10.9c1.9,0,3.8-0.3,5.4-0.8
		c1.7-0.5,3.3-1.3,5-2.4v8.7c-1.6,1-3.3,1.8-5,2.2C345.4,442.3,343.3,442.5,340.7,442.5z"/>
	<path d="M394.4,423.2c0,6.1-1.6,10.8-4.8,14.2c-3.2,3.4-7.6,5.1-13.3,5.1c-3.6,0-6.7-0.8-9.4-2.3c-2.7-1.6-4.8-3.8-6.3-6.7
		c-1.5-2.9-2.2-6.3-2.2-10.2c0-6.1,1.6-10.8,4.8-14.2c3.2-3.4,7.6-5.1,13.4-5.1c3.6,0,6.7,0.8,9.4,2.3c2.7,1.6,4.8,3.8,6.3,6.7
		C393.7,415.9,394.4,419.3,394.4,423.2z M368.7,423.2c0,3.7,0.6,6.5,1.8,8.3c1.2,1.9,3.2,2.8,5.9,2.8c2.7,0,4.6-0.9,5.8-2.8
		c1.2-1.9,1.8-4.7,1.8-8.4c0-3.7-0.6-6.4-1.8-8.3c-1.2-1.8-3.2-2.8-5.9-2.8c-2.7,0-4.7,0.9-5.9,2.7S368.7,419.5,368.7,423.2z"/>
	<path d="M414.6,442.5c-4.4,0-7.8-1.7-10.3-5.1c-2.5-3.4-3.7-8.1-3.7-14.1c0-6.1,1.3-10.8,3.8-14.2c2.5-3.4,6-5.1,10.5-5.1
		c4.7,0,8.2,1.8,10.7,5.5h0.3c-0.5-2.8-0.8-5.2-0.8-7.4v-11.9h10.2v51.7h-7.8l-2-4.8h-0.4C422.8,440.7,419.3,442.5,414.6,442.5z
		 M418.1,434.4c2.6,0,4.5-0.8,5.7-2.3s1.9-4.1,2-7.7v-1.1c0-4-0.6-6.8-1.8-8.6c-1.2-1.7-3.2-2.6-6-2.6c-2.3,0-4,1-5.3,2.9
		c-1.3,1.9-1.9,4.7-1.9,8.4s0.6,6.4,1.9,8.2S415.8,434.4,418.1,434.4z"/>
	<path d="M462.7,442.5c-6,0-10.7-1.7-14-5c-3.4-3.3-5.1-8-5.1-14c0-6.2,1.6-11,4.7-14.4c3.1-3.4,7.4-5.1,12.9-5.1
		c5.3,0,9.3,1.5,12.3,4.5c2.9,3,4.4,7.1,4.4,12.4v4.9h-24c0.1,2.9,1,5.1,2.6,6.7c1.6,1.6,3.8,2.4,6.7,2.4c2.2,0,4.4-0.2,6.3-0.7
		c2-0.5,4.1-1.2,6.3-2.2v7.8c-1.8,0.9-3.7,1.5-5.7,2C468.1,442.3,465.6,442.5,462.7,442.5z M461.3,411.2c-2.1,0-3.8,0.7-5.1,2
		c-1.2,1.4-1.9,3.3-2.1,5.8h14.2c0-2.5-0.7-4.4-2-5.8C465.1,411.9,463.4,411.2,461.3,411.2z"/>
</g>
<rect x="37.7" y="455.9" class="st1" width="93.6" height="5.7"/>
<path class="st2" d="M250.9,506.5c6.9,1.8,13.8,3.4,20.5,4.9c0.7,1.2,1.4,2.3,2.1,3.5c-6.1-1.3-12.2-2.7-18.4-4.2l4.8,8
	c0.8,1.3,1.6,2.7,2.5,4l1.3,1.9l0.2,0.2l4.7,6.9l2.3,3.5c0.8,1.2,1.5,2.3,2.4,3.4l10,13.5l10.6,13c14.6,17,30.4,32.9,47.5,47.5
	c17,14.6,35.1,28,54,40.1c18.9,12.1,38.6,22.9,58.8,32.6c20.2,9.7,41,18.4,62.1,25.9c21.2,7.5,42.6,14,64.4,19.6l8.2,2.1
	c2.7,0.7,5.4,1.4,8.2,2l16.4,3.7c11,2.2,22,4.5,33.1,6.3l8.3,1.4l8.3,1.2l8.3,1.2l4.2,0.6l4.2,0.5l16.7,2.1l16.8,1.7
	c22.4,2.1,44.8,3.4,67.2,3.9c22.5,0.5,44.9,0.2,67.3-0.8c5.6-0.3,11.2-0.5,16.8-0.9l16.8-1.2c11.2-1,22.4-1.9,33.5-3.3
	c22.3-2.6,44.5-5.8,66.6-10c22.1-4.2,43.9-9.2,65.6-15l8.1-2.2c2.7-0.8,5.4-1.5,8.1-2.3l16.1-4.9l16-5.3c5.3-1.8,10.6-3.8,15.9-5.6
	c42.1-15.5,82.9-34.8,120.4-59.4c18.8-12.3,36.5-26.1,52.9-41.3c16.5-15.2,31.2-32.2,43.9-50.6l2.5,1.7
	c-12.9,18.6-27.7,35.8-44.3,51.1c-16.6,15.3-34.4,29.3-53.3,41.6c-37.7,24.8-78.8,44.2-121,59.8c-5.3,1.9-10.6,3.8-15.9,5.6
	l-16.1,5.3l-16.2,4.9c-2.7,0.8-5.4,1.5-8.1,2.3l-8.1,2.2c-21.8,5.9-43.7,10.9-65.9,15.1c-22.1,4.2-44.4,7.5-66.8,10.1
	c-11.2,1.4-22.4,2.3-33.6,3.3l-16.9,1.2c-5.6,0.4-11.2,0.6-16.9,0.9c-22.5,1-45,1.3-67.6,0.8c-22.5-0.6-45-1.9-67.4-4l-16.8-1.7
	l-16.8-2.1l-4.2-0.5l-4.2-0.6l-8.4-1.2l-8.4-1.2l-8.3-1.4c-11.1-1.8-22.2-4.1-33.2-6.3l-16.5-3.7c-2.8-0.6-5.5-1.3-8.2-2l-8.2-2.1
	c-21.8-5.6-43.4-12.2-64.6-19.7c-21.2-7.6-42-16.3-62.4-26.1c-20.4-9.7-40.1-20.7-59.1-32.8c-19-12.2-37.1-25.6-54.3-40.3
	c-17.2-14.7-33.1-30.7-47.8-47.8L281,554l-10.1-13.6c-0.9-1.1-1.6-2.3-2.4-3.5l-2.4-3.5l-4.7-7l-0.2-0.2l-1.3-2
	c-0.9-1.3-1.6-2.7-2.5-4l-4.9-8.1c-1.5,6.2-3,12.5-4.4,18.9c-0.8-1.2-1.5-2.5-2.3-3.8C247.5,520.2,249.2,513.3,250.9,506.5z"/>
<path class="st3" d="M1345.7,559.7c-32.4,47.5-77.9,84.7-126.7,114.6c-1.6,1-0.1,3.4,1.4,2.4c49.1-30.1,95-67.7,127.7-115.6
	C1349.2,559.6,1346.7,558.2,1345.7,559.7L1345.7,559.7z"/>
<path class="st4" d="M1360.7,495.7c17.4,7.8,25.1,28.2,17.3,45.5c-7.8,17.4-28.2,25.1-45.5,17.3c-17.4-7.8-25.1-28.2-17.3-45.5
	c0,0,0,0,0,0C1323,495.6,1343.3,487.9,1360.7,495.7z M1334.3,554.6c15.2,6.8,33,0,39.9-15.2c6.8-15.2,0-33-15.2-39.9
	c-15.2-6.8-33,0-39.9,15.2c0,0,0,0,0,0C1312.3,529.9,1319.1,547.8,1334.3,554.6z"/>
<ellipse transform="matrix(0.4093 -0.9124 0.9124 0.4093 314.5366 1540.0111)" class="st4" cx="1346.6" cy="527.1" rx="16.2" ry="16.2"/>
<path class="st5" d="M1355.5,343.2c-6.9-1.8-13.8-3.4-20.5-4.9c-0.7-1.2-1.4-2.3-2.1-3.5c6.1,1.3,12.2,2.7,18.4,4.2l-4.8-8
	c-0.8-1.3-1.6-2.7-2.5-4l-1.3-1.9l-0.2-0.2l-4.7-6.9l-2.3-3.5c-0.8-1.2-1.5-2.3-2.4-3.4l-10-13.5l-10.6-13
	c-14.6-17-30.4-32.9-47.5-47.5c-17-14.6-35.1-28-54-40.1c-18.9-12.1-38.6-22.9-58.8-32.6c-20.2-9.7-41-18.4-62.1-25.9
	c-21.2-7.5-42.6-14-64.4-19.6l-8.2-2.1c-2.7-0.7-5.4-1.4-8.2-2l-16.4-3.7c-11-2.2-22-4.5-33.1-6.3l-8.3-1.4l-8.3-1.2l-8.3-1.2
	l-4.2-0.6l-4.2-0.5l-16.7-2.1L893.2,96c-22.4-2.1-44.8-3.4-67.2-3.9c-22.4-0.5-44.9-0.2-67.3,0.8c-5.6,0.3-11.2,0.5-16.8,0.9
	L725,94.9c-11.2,1-22.4,1.9-33.5,3.3c-22.3,2.6-44.5,5.8-66.6,10c-22.1,4.2-43.9,9.2-65.6,15l-8.1,2.2c-2.7,0.8-5.4,1.5-8.1,2.3
	l-16.1,4.9l-16,5.3c-5.3,1.8-10.6,3.8-15.9,5.6c-42.1,15.5-82.9,34.8-120.4,59.4c-18.8,12.3-36.5,26.1-52.9,41.3
	c-16.5,15.2-31.2,32.2-43.9,50.6l-2.5-1.7c12.9-18.6,27.7-35.8,44.3-51.1c16.6-15.3,34.4-29.3,53.3-41.6
	c37.7-24.8,78.8-44.2,121-59.8c5.3-1.9,10.6-3.8,15.9-5.6l16.1-5.3l16.2-4.9c2.7-0.8,5.4-1.5,8.1-2.3l8.1-2.2
	c21.8-5.9,43.7-10.9,65.9-15.1c22.1-4.2,44.4-7.5,66.8-10.1c11.2-1.4,22.4-2.3,33.6-3.3l16.9-1.2c5.6-0.4,11.2-0.6,16.9-0.9
	c22.5-1,45-1.3,67.6-0.8c22.5,0.6,45,1.9,67.4,4l16.8,1.7l16.8,2.1l4.2,0.5l4.2,0.6l8.4,1.2l8.4,1.2l8.3,1.4
	c11.1,1.8,22.2,4.1,33.2,6.3l16.5,3.7c2.8,0.6,5.5,1.3,8.2,2l8.2,2.1c21.8,5.6,43.4,12.2,64.6,19.7c21.2,7.6,42,16.3,62.4,26.1
	c20.4,9.7,40.1,20.7,59.1,32.8c19,12.2,37.1,25.6,54.3,40.3c17.2,14.7,33.1,30.7,47.8,47.8l10.7,13.1l10.1,13.6
	c0.9,1.1,1.6,2.3,2.4,3.5l2.4,3.5l4.7,7l0.2,0.2l1.3,2c0.9,1.3,1.6,2.7,2.5,4l4.9,8.1c1.5-6.2,3-12.5,4.4-18.9
	c0.8,1.2,1.5,2.5,2.3,3.8C1358.9,329.5,1357.3,336.5,1355.5,343.2z"/>
<path class="st6" d="M260.8,290c32.4-47.5,77.9-84.7,126.7-114.6c1.6-1,0.1-3.4-1.4-2.4c-49.1,30.1-95,67.7-127.7,115.6
	C257.3,290.1,259.7,291.6,260.8,290z"/>
<path class="st4" d="M245.8,354.1c-17.4-7.8-25.1-28.2-17.3-45.5c7.8-17.4,28.2-25.1,45.5-17.3c17.4,7.8,25.1,28.2,17.3,45.5
	c0,0,0,0,0,0C283.5,354.1,263.1,361.9,245.8,354.1z M272.2,295.1c-15.2-6.8-33,0-39.9,15.2c-6.8,15.2,0,33,15.2,39.9
	c15.2,6.8,33,0,39.9-15.2c0,0,0,0,0,0C294.2,319.8,287.4,302,272.2,295.1L272.2,295.1z"/>
<ellipse transform="matrix(0.4093 -0.9124 0.9124 0.4093 -140.896 427.6949)" class="st4" cx="259.9" cy="322.7" rx="16.2" ry="16.2"/>
<g class="st0">
	<path class="st6" d="M683.6,64.6c1.2-0.1,2.5-0.6,4.1-1.3l0.6,5c-1.6,1-3.6,1.6-6,1.9c-2.7,0.3-4.7-0.1-6.1-1.3
		c-1.4-1.2-2.3-3.2-2.6-5.9l-1.5-11.9l-3.2,0.4l-0.4-2.8L672,46l1.3-5.4l4.3-0.5l0.7,5.2l6.9-0.9l0.6,5l-6.9,0.9l1.5,11.9
		c0.1,1,0.5,1.6,1.1,2C682,64.6,682.8,64.7,683.6,64.6z"/>
</g>
<g class="st0">
	<path class="st6" d="M704.5,67.7c-4,0.4-7.2-0.4-9.6-2.3c-2.5-2-3.9-4.9-4.3-9c-0.4-4.1,0.3-7.4,2.1-9.9c1.8-2.5,4.6-3.9,8.2-4.3
		c3.5-0.4,6.3,0.4,8.4,2.1s3.4,4.4,3.8,7.9l0.3,3.3l-15.9,1.6c0.3,1.9,1,3.3,2.2,4.3c1.2,1,2.7,1.3,4.6,1.2c1.5-0.2,2.9-0.5,4.2-0.9
		c1.3-0.4,2.6-1.1,4-1.9l0.5,5.2c-1.1,0.7-2.3,1.3-3.6,1.7C708,67.2,706.4,67.5,704.5,67.7z M701.4,47c-1.4,0.1-2.5,0.7-3.2,1.7
		c-0.7,1-1,2.3-1,4l9.4-1c-0.2-1.7-0.8-2.9-1.7-3.7C704,47.2,702.8,46.9,701.4,47z"/>
</g>
<g class="st0">
	<path class="st6" d="M736.4,57.1c0.2,2.5-0.5,4.5-2.2,6c-1.7,1.5-4.2,2.3-7.7,2.6c-1.8,0.1-3.3,0.1-4.6,0c-1.3-0.1-2.5-0.4-3.6-0.8
		l-0.4-5.6c1.3,0.5,2.7,0.9,4.3,1.2c1.6,0.3,3,0.4,4.2,0.3c2.4-0.2,3.6-1,3.5-2.4c0-0.5-0.2-0.9-0.6-1.3c-0.4-0.3-0.9-0.6-1.8-1
		c-0.8-0.4-1.9-0.8-3.3-1.2c-2-0.6-3.4-1.3-4.4-1.9c-0.9-0.6-1.7-1.3-2.1-2.2c-0.5-0.8-0.8-1.9-0.9-3.2c-0.2-2.2,0.5-4,2.2-5.3
		c1.6-1.3,4-2.1,7.1-2.4c3-0.2,5.9,0.2,8.8,1.3l-1.7,5c-1.3-0.4-2.5-0.8-3.6-1c-1.1-0.3-2.2-0.3-3.3-0.3c-2,0.2-2.9,0.8-2.9,1.8
		c0,0.6,0.4,1.1,1.1,1.5c0.7,0.4,2.1,0.9,4.4,1.6c2,0.6,3.5,1.3,4.4,1.9c1,0.6,1.7,1.3,2.2,2.2S736.3,55.9,736.4,57.1z"/>
</g>
<g class="st0">
	<path class="st6" d="M752.2,58.6c1.2-0.1,2.6-0.4,4.2-1l0.3,5c-1.6,0.8-3.7,1.3-6.1,1.5c-2.7,0.2-4.7-0.4-6-1.7
		c-1.3-1.3-2-3.3-2.2-6l-0.7-11.9l-3.2,0.2l-0.2-2.9l3.6-2.5l1.7-5.3l4.3-0.2l0.3,5.3l6.9-0.4l0.3,5.1l-6.9,0.4l0.7,11.9
		c0.1,1,0.4,1.7,0.9,2.1C750.6,58.5,751.3,58.7,752.2,58.6z"/>
</g>
<g class="st0">
	<path class="st6" d="M786.9,62.8c-2.9,0.1-5.2-1-6.9-3l-0.4,0c0.3,2.1,0.4,3.3,0.4,3.6l0.2,10l-6.8,0.1l-0.7-35.7l5.5-0.1l1,3.2
		l0.3,0c1.5-2.5,3.8-3.8,7-3.8c2.9-0.1,5.2,1,6.9,3.3c1.7,2.2,2.6,5.4,2.7,9.4c0.1,2.6-0.3,4.9-1,6.9c-0.7,2-1.8,3.5-3.2,4.5
		C790.5,62.2,788.8,62.8,786.9,62.8z M784.5,42.6c-1.7,0-2.9,0.6-3.6,1.6c-0.7,1-1.1,2.7-1.1,5.1l0,0.7c0.1,2.7,0.5,4.6,1.3,5.7
		c0.8,1.1,2.1,1.7,3.8,1.7c3-0.1,4.5-2.6,4.4-7.6c0-2.4-0.5-4.3-1.2-5.5C787.3,43.1,786.1,42.5,784.5,42.6z"/>
</g>
<g class="st0">
	<path class="st6" d="M817.5,62.3l-1.3-3.4l-0.2,0c-1.1,1.4-2.3,2.4-3.5,3c-1.2,0.5-2.8,0.8-4.7,0.8c-2.4,0-4.2-0.7-5.6-2.1
		c-1.4-1.4-2-3.3-2-5.8c0-2.6,1-4.6,2.8-5.8c1.9-1.2,4.6-1.9,8.3-2l4.3-0.1l0-1.1c0-2.5-1.3-3.8-3.8-3.8c-2,0-4.3,0.6-7,1.7
		l-2.2-4.6c2.9-1.5,6-2.2,9.5-2.2c3.3,0,5.9,0.8,7.6,2.2c1.8,1.5,2.6,3.7,2.6,6.6l-0.1,16.5L817.5,62.3z M815.6,50.8l-2.6,0.1
		c-2,0-3.4,0.4-4.4,1c-1,0.6-1.5,1.6-1.5,3c0,1.9,1.1,2.9,3.3,2.9c1.6,0,2.8-0.4,3.8-1.3s1.4-2.1,1.4-3.6L815.6,50.8z"/>
</g>
<g class="st0">
	<path class="st6" d="M846.5,55.8c-0.1,2.5-1,4.4-2.8,5.7s-4.5,1.8-8,1.7c-1.8-0.1-3.3-0.2-4.6-0.5c-1.3-0.3-2.4-0.7-3.5-1.2
		l0.2-5.6c1.2,0.6,2.6,1.2,4.2,1.6c1.6,0.5,2.9,0.7,4.1,0.7c2.5,0.1,3.7-0.6,3.7-2c0-0.5-0.1-1-0.4-1.3c-0.3-0.3-0.9-0.7-1.6-1.2
		c-0.8-0.4-1.8-1-3.1-1.6c-1.9-0.9-3.3-1.6-4.1-2.4c-0.9-0.7-1.5-1.5-1.9-2.4c-0.4-0.9-0.5-2-0.5-3.3c0.1-2.2,1-3.9,2.7-5
		c1.7-1.1,4.2-1.7,7.3-1.6c3,0.1,5.9,0.9,8.6,2.2l-2.2,4.8c-1.2-0.6-2.4-1-3.4-1.4c-1.1-0.4-2.2-0.6-3.3-0.6c-2-0.1-3,0.4-3,1.5
		c0,0.6,0.3,1.1,0.9,1.6c0.6,0.5,2,1.2,4.2,2.1c1.9,0.8,3.3,1.6,4.2,2.3c0.9,0.7,1.5,1.5,1.9,2.4S846.5,54.5,846.5,55.8z"/>
</g>
<g class="st0">
	<path class="st6" d="M869,57c-0.1,2.5-1.1,4.4-3,5.6c-1.8,1.2-4.5,1.7-8,1.5c-1.8-0.1-3.3-0.3-4.6-0.6c-1.3-0.3-2.4-0.7-3.5-1.3
		l0.3-5.6c1.2,0.7,2.6,1.2,4.2,1.7c1.5,0.5,2.9,0.8,4.1,0.8c2.4,0.1,3.7-0.5,3.8-1.9c0-0.5-0.1-1-0.4-1.3c-0.3-0.4-0.8-0.8-1.6-1.2
		c-0.8-0.5-1.8-1-3.1-1.7c-1.9-0.9-3.2-1.7-4.1-2.5c-0.9-0.7-1.5-1.5-1.8-2.4c-0.4-0.9-0.5-2-0.4-3.3c0.1-2.2,1.1-3.8,2.8-5
		c1.8-1.1,4.2-1.6,7.4-1.4c3,0.2,5.8,1,8.6,2.4l-2.3,4.8c-1.2-0.6-2.3-1.1-3.4-1.5c-1.1-0.4-2.1-0.6-3.3-0.7c-2-0.1-3,0.4-3.1,1.4
		c0,0.6,0.3,1.1,0.9,1.6c0.6,0.5,2,1.2,4.1,2.2c1.9,0.9,3.3,1.7,4.1,2.4c0.9,0.7,1.5,1.5,1.9,2.5C869,54.7,869.1,55.8,869,57z"/>
</g>
<g class="st0">
	<path class="st6" d="M884.8,66.1c-4-0.3-7-1.7-9-4.1c-2.1-2.4-2.9-5.6-2.6-9.6c0.3-4.1,1.6-7.3,3.9-9.3c2.3-2.1,5.2-3,8.9-2.7
		c3.5,0.3,6.1,1.5,7.9,3.7c1.8,2.2,2.5,5,2.2,8.5l-0.3,3.3l-15.9-1.3c-0.1,1.9,0.4,3.5,1.3,4.6s2.4,1.8,4.3,2
		c1.5,0.1,2.9,0.1,4.3-0.1c1.4-0.2,2.8-0.6,4.3-1.1l-0.4,5.2c-1.2,0.5-2.5,0.8-3.9,1C888.4,66.2,886.7,66.3,884.8,66.1z M885.6,45.2
		c-1.4-0.1-2.6,0.2-3.5,1.1c-0.9,0.8-1.5,2.1-1.7,3.7l9.5,0.8c0.1-1.7-0.2-3-1-4C888.1,45.9,887,45.3,885.6,45.2z"/>
</g>
<g class="st0">
	<path class="st6" d="M907.9,68.3c-2.9-0.3-5-1.7-6.4-4.1c-1.4-2.4-1.9-5.6-1.4-9.6c0.5-4,1.7-7.1,3.6-9.2c1.9-2.1,4.4-2.9,7.3-2.6
		c3.1,0.4,5.3,1.8,6.7,4.4l0.2,0c-0.1-1.9-0.1-3.5,0.1-5l0.9-7.9l6.7,0.8l-3.9,34.3l-5.2-0.6l-0.9-3.3l-0.3,0
		C913.5,67.7,911,68.7,907.9,68.3z M910.9,63.3c1.7,0.2,3-0.2,3.9-1.1c0.9-0.9,1.5-2.6,1.9-4.9l0.1-0.7c0.3-2.6,0.1-4.6-0.6-5.8
		c-0.7-1.2-1.9-2-3.8-2.2c-1.5-0.2-2.7,0.3-3.7,1.5c-1,1.2-1.6,3-1.9,5.4s-0.1,4.3,0.6,5.6C908.2,62.3,909.3,63.1,910.9,63.3z"/>
</g>
<g class="st0">
	<path class="st3" d="M699.3,812.3c1.2,0.1,2.6,0,4.3-0.3l-0.5,5c-1.8,0.6-3.9,0.7-6.3,0.5c-2.7-0.3-4.6-1.2-5.7-2.7
		s-1.5-3.6-1.2-6.3l1.3-11.9l-3.2-0.3l0.3-2.8l3.9-1.9l2.5-5l4.3,0.5l-0.6,5.2l6.9,0.7l-0.5,5l-6.9-0.7l-1.3,11.9
		c-0.1,1,0.1,1.7,0.6,2.2C697.8,811.9,698.5,812.2,699.3,812.3z"/>
</g>
<g class="st0">
	<path class="st3" d="M719,819.5c-4-0.3-7-1.7-9.1-4c-2.1-2.4-2.9-5.6-2.6-9.6c0.3-4.1,1.6-7.3,3.9-9.4c2.2-2.1,5.2-3,8.9-2.7
		c3.5,0.3,6.1,1.5,7.9,3.6s2.5,5,2.3,8.5l-0.3,3.3l-15.9-1.3c-0.1,1.9,0.4,3.5,1.3,4.6c1,1.2,2.4,1.8,4.3,2c1.5,0.1,2.9,0.1,4.3-0.1
		c1.3-0.2,2.8-0.6,4.3-1.1l-0.4,5.2c-1.2,0.5-2.5,0.8-3.9,1C722.6,819.6,720.9,819.6,719,819.5z M719.7,798.6
		c-1.4-0.1-2.6,0.3-3.5,1.1c-0.9,0.8-1.4,2.1-1.7,3.7l9.5,0.8c0.1-1.7-0.2-3-1-4C722.2,799.2,721.1,798.7,719.7,798.6z"/>
</g>
<g class="st0">
	<path class="st3" d="M752,813.7c-0.1,2.5-1.1,4.4-3,5.7c-1.8,1.2-4.5,1.8-8,1.6c-1.8-0.1-3.3-0.3-4.6-0.6s-2.4-0.7-3.5-1.3l0.3-5.6
		c1.2,0.7,2.6,1.2,4.2,1.7c1.6,0.5,2.9,0.8,4.1,0.8c2.4,0.1,3.7-0.5,3.8-1.9c0-0.5-0.1-1-0.4-1.3c-0.3-0.3-0.8-0.8-1.6-1.2
		c-0.8-0.5-1.8-1-3.1-1.6c-1.9-0.9-3.2-1.7-4.1-2.4c-0.9-0.7-1.5-1.5-1.8-2.4c-0.4-0.9-0.5-2-0.4-3.3c0.1-2.2,1.1-3.9,2.8-5
		c1.8-1.1,4.2-1.6,7.3-1.4c3,0.2,5.8,1,8.6,2.4l-2.3,4.8c-1.2-0.6-2.3-1.1-3.4-1.5c-1.1-0.4-2.1-0.6-3.3-0.7c-2-0.1-3,0.4-3.1,1.5
		c0,0.6,0.3,1.1,0.9,1.6c0.6,0.5,2,1.2,4.1,2.2c1.9,0.9,3.3,1.7,4.1,2.4c0.9,0.7,1.5,1.5,1.9,2.5C751.9,811.4,752.1,812.5,752,813.7
		z"/>
</g>
<g class="st0">
	<path class="st3" d="M767.3,816.6c1.2,0,2.6-0.2,4.3-0.6l-0.2,5c-1.7,0.7-3.8,1-6.2,0.9c-2.7-0.1-4.6-0.8-5.8-2.2
		c-1.2-1.4-1.7-3.5-1.7-6.2l0.4-11.9l-3.2-0.1l0.1-2.9l3.8-2.1l2.1-5.2l4.3,0.1l-0.2,5.3l6.9,0.2l-0.2,5.1l-6.9-0.2l-0.4,11.9
		c0,1,0.2,1.7,0.7,2.2C765.7,816.3,766.4,816.6,767.3,816.6z"/>
</g>
<g class="st0">
	<path class="st3" d="M801.6,802.1l-5.9,0l0,19.7l-6.8,0l0-19.7l-3.7,0l0-3.3l3.7-1.8l0-1.8c0-2.8,0.7-4.9,2.1-6.2s3.6-2,6.7-2
		c2.3,0,4.4,0.3,6.2,1l-1.7,5c-1.4-0.4-2.6-0.6-3.8-0.6c-1,0-1.7,0.3-2.1,0.9c-0.4,0.6-0.6,1.3-0.6,2.2l0,1.6l5.9,0L801.6,802.1z"/>
</g>
<g class="st0">
	<path class="st3" d="M821.1,821.4l-1.4-3.3l-0.2,0c-1.1,1.5-2.2,2.5-3.4,3.1c-1.2,0.6-2.8,0.9-4.7,0.9c-2.4,0.1-4.3-0.6-5.7-1.9
		c-1.4-1.3-2.1-3.2-2.2-5.8c-0.1-2.6,0.8-4.6,2.6-5.9c1.8-1.3,4.6-2.1,8.3-2.3l4.3-0.2l0-1.1c-0.1-2.5-1.4-3.7-3.9-3.7
		c-2,0-4.3,0.7-6.9,2l-2.4-4.5c2.8-1.6,6-2.4,9.4-2.5c3.3-0.1,5.9,0.6,7.7,2c1.8,1.4,2.7,3.6,2.8,6.5l0.4,16.5L821.1,821.4z
		 M818.8,810l-2.6,0.2c-2,0.1-3.4,0.5-4.4,1.2c-0.9,0.7-1.4,1.7-1.4,3c0,1.9,1.2,2.8,3.4,2.8c1.6,0,2.8-0.5,3.7-1.4
		c0.9-0.9,1.4-2.1,1.3-3.6L818.8,810z"/>
</g>
<g class="st0">
	<path class="st3" d="M830.9,789.8c-0.1-2.2,1.1-3.4,3.5-3.5c2.5-0.1,3.7,0.9,3.8,3.1c0,1-0.2,1.9-0.8,2.5c-0.6,0.6-1.5,0.9-2.7,1
		C832.3,793.1,831,792,830.9,789.8z M839.4,820.6l-6.8,0.3l-1.1-24.8l6.8-0.3L839.4,820.6z"/>
</g>
<g class="st0">
	<path class="st3" d="M853.1,819.9l-6.7,0.4l-2.1-34.4l6.7-0.4L853.1,819.9z"/>
</g>
<g class="st0">
	<path class="st3" d="M871.2,819c-4,0.3-7.2-0.5-9.6-2.5s-3.8-5-4.1-9.1c-0.3-4.1,0.4-7.4,2.3-9.8c1.9-2.4,4.7-3.8,8.3-4.1
		c3.5-0.3,6.3,0.5,8.4,2.3s3.3,4.5,3.6,8l0.3,3.3l-15.9,1.3c0.2,1.9,0.9,3.4,2.1,4.3c1.1,1,2.7,1.4,4.6,1.3c1.5-0.1,2.9-0.4,4.2-0.8
		c1.3-0.4,2.6-1,4-1.8l0.4,5.2c-1.1,0.7-2.4,1.2-3.7,1.6C874.8,818.6,873.2,818.8,871.2,819z M868.6,798.3c-1.4,0.1-2.5,0.7-3.2,1.6
		c-0.7,1-1.1,2.3-1.1,4l9.5-0.8c-0.2-1.7-0.7-2.9-1.6-3.8C871.2,798.5,870,798.1,868.6,798.3z"/>
</g>
<g class="st0">
	<path class="st3" d="M894.4,816.8c-2.9,0.3-5.3-0.6-7.2-2.6c-1.9-2.1-3.1-5.1-3.5-9.1c-0.4-4,0.1-7.3,1.5-9.7
		c1.4-2.4,3.6-3.8,6.6-4.1c3.1-0.3,5.6,0.6,7.5,2.8l0.2,0c-0.5-1.8-0.9-3.4-1-4.9l-0.9-7.9l6.7-0.7l3.7,34.3l-5.2,0.6l-1.6-3.1
		l-0.3,0C899.7,815,897.5,816.5,894.4,816.8z M896.2,811.2c1.7-0.2,2.9-0.8,3.6-1.9c0.7-1.1,0.9-2.8,0.8-5.2l-0.1-0.7
		c-0.3-2.6-0.9-4.5-1.8-5.6c-0.9-1.1-2.3-1.5-4.2-1.3c-1.5,0.2-2.6,0.9-3.3,2.3c-0.7,1.4-0.9,3.3-0.6,5.7c0.3,2.4,0.9,4.2,1.8,5.3
		C893.3,810.9,894.6,811.4,896.2,811.2z"/>
</g>
</svg>
