<svg id="Слой_1" data-name="Слой 1" xmlns="http://www.w3.org/2000/svg" viewBox="0 0 1656.78228 795.52564"><defs><style>.cls-1{fill:#6d6e70;}.cls-2{font-size:90px;}.cls-2,.cls-7{fill:#343433;font-family:OpenSans-SemiBold, Open Sans;font-weight:700;}.cls-3{fill:#606060;}.cls-4{fill:none;}.cls-5{fill:#dd0031;}.cls-6{fill:#c3002f;}.cls-7{font-size:86px;}.cls-8{fill:#ff4a2c;}.cls-9{fill:#5fdcfa;}</style></defs><title>timeline 2</title><path class="cls-1" d="M1639.20937,587.95979H277.79063a.75685.75685,0,1,1,0-1.51219H1639.20937a.75685.75685,0,1,1,0,1.51219Z" transform="translate(-175.80957 -205.78786)"/><text class="cls-2" transform="translate(0 300.18822)">2010</text><path class="cls-1" d="M278.5538,646.68116a59.476,59.476,0,1,1,59.47747-59.476A59.54413,59.54413,0,0,1,278.5538,646.68116Zm0-117.43987a57.96384,57.96384,0,1,0,57.96528,57.96392A58.03,58.03,0,0,0,278.5538,529.24129Z" transform="translate(-175.80957 -205.78786)"/><path class="cls-3" d="M278.5538,623.6381a36.4329,36.4329,0,1,1,36.43275-36.4329A36.47351,36.47351,0,0,1,278.5538,623.6381Zm0-68.32922A31.89633,31.89633,0,1,0,310.45,587.20521,31.93286,31.93286,0,0,0,278.5538,555.30888Z" transform="translate(-175.80957 -205.78786)"/><circle class="cls-3" cx="102.74423" cy="381.41735" r="17.08155"/><circle class="cls-3" cx="102.74419" cy="585.64231" r="9.87536"/><rect class="cls-3" x="101.98813" y="440.13721" width="1.51219" height="145.07493"/><path class="cls-1" d="M278.46962,665.78149a77.71494,77.71494,0,0,1-77.62829-77.62677h1.51219a76.20181,76.20181,0,0,0,76.1161,76.11458Z" transform="translate(-175.80957 -205.78786)"/><path class="cls-4" d="M241.80292,960.34424c2.90857.10187,4.447-.84662,5.509-3.71881,2.8158-7.61554,6.02509-15.08563,9.13782-22.7616,7.20758,0,14.38574-.02289,21.55023-.014V917H263.71533C268.486,905.48969,273.06842,894.43365,278,882.535v-39.439c-17.58911,39.446-34.75922,77.95239-52.25989,117.20013C231.84747,960.2962,236.83044,960.17,241.80292,960.34424Z" transform="translate(-175.80957 -205.78786)"/><path class="cls-5" d="M256.44977,933.86383c-3.11273,7.676-6.322,15.14606-9.13782,22.7616-1.062,2.87219-2.60046,3.82068-5.509,3.71881-4.97247-.17419-9.95544-.048-16.06281-.048C243.24078,921.04846,260.41089,882.54205,278,843.09607V823.465a5.40223,5.40223,0,0,0-1.39819.26733q-39.46042,13.86484-78.80695,28.05231c-1.23889.44592-2.13708,1.83862-2.59424,2.25037.44354,4.4635.72717,7.77643,1.10791,11.07819,3.59869,31.20868,7.25574,62.41077,10.76025,93.62994a7.61919,7.61919,0,0,0,4.31976,6.59595c21.43219,11.724,42.76367,23.63232,64.22333,35.30542a6.28433,6.28433,0,0,0,2.38812.63812v-67.4328C270.83551,933.84094,263.65735,933.86383,256.44977,933.86383Z" transform="translate(-175.80957 -205.78786)"/><path class="cls-5" d="M263.71533,917H278V882.535C273.06842,894.43365,268.486,905.48969,263.71533,917Z" transform="translate(-175.80957 -205.78786)"/><path class="cls-6" d="M281.23468,1000.78723q32.63782-17.731,65.02142-35.92645a7.68239,7.68239,0,0,0,3.449-4.85333c1.3136-9.04346,2.17358-18.15247,3.21625-27.23572,2.88123-25.10028,5.681-50.21063,8.76453-75.286.45685-3.71533-.43866-5.25513-3.93445-6.482-25.36871-8.90283-50.6571-18.03448-76.00635-26.99341A9.66744,9.66744,0,0,0,278,823.465v19.631c.162-.36322.32269-.72369.48474-1.0871,17.66516,39.74231,34.90143,78.51971,52.53369,118.18787-6.6347,0-12.4054.1709-18.14862-.14966-1.09875-.06134-2.499-1.88354-3.06079-3.19336-2.81445-6.56165-5.25305-13.28735-8.17383-19.79834-.62677-1.39728-2.68719-3.03015-4.11249-3.05414-6.50256-.1095-13.007-.14343-19.52271-.15149v67.4328A6.0486,6.0486,0,0,0,281.23468,1000.78723Z" transform="translate(-175.80957 -205.78786)"/><path class="cls-6" d="M278.48822,881.35712c-.16425.39624-.32477.78363-.48822,1.17792V917h15.343C288.3479,905.01447,283.5874,893.59216,278.48822,881.35712Z" transform="translate(-175.80957 -205.78786)"/><path class="cls-1" d="M960.48548,647.6293a59.476,59.476,0,1,1,59.47762-59.47747A59.54442,59.54442,0,0,1,960.48548,647.6293Zm0-117.43987a57.96384,57.96384,0,1,0,57.96543,57.9624A58.02961,58.02961,0,0,0,960.48548,530.18943Z" transform="translate(-175.80957 -205.78786)"/><path class="cls-3" d="M960.48548,624.5861a36.43282,36.43282,0,1,1,36.4329-36.43426A36.47432,36.47432,0,0,1,960.48548,624.5861Zm0-68.32907a31.89625,31.89625,0,1,0,31.89633,31.89481A31.93121,31.93121,0,0,0,960.48548,556.257Z" transform="translate(-175.80957 -205.78786)"/><circle class="cls-3" cx="784.67591" cy="382.36466" r="17.08155"/><circle class="cls-3" cx="784.67632" cy="178.14094" r="9.87479"/><rect class="cls-3" x="783.91981" y="178.21214" width="1.51219" height="145.43334"/><path class="cls-1" d="M1038.11376,588.15184h-1.51219a76.20055,76.20055,0,0,0-76.1161-76.11322v-1.51219A77.71475,77.71475,0,0,1,1038.11376,588.15184Z" transform="translate(-175.80957 -205.78786)"/><text class="cls-7" transform="translate(685.94128 528.18822)">2011</text><path class="cls-8" d="M1140.14775,308.23c-.92177,3.89075-3.60638,6.31535-7.06092,7.77774-4.99681,2.11525-10.00558,4.3878-15.23091,5.73076-6.55872,1.68565-12.39381-1.03988-15.09387-7.24685-2.10411-4.83706-2.95613-10.2193-4.35548-15.36174a3.756,3.756,0,0,0-1.09555-2.06463c-.4251.91462-.91973,1.80384-1.26464,2.74776-3.785,10.35785-7.47652,20.75063-11.35839,31.07187a43.33355,43.33355,0,0,1-4.26562,8.67077c-2.99922,4.52693-7.44315,4.6-10.63443.16845-1.48165-2.05746-2.18989-4.67185-3.41576-7.40636a40.31752,40.31752,0,0,1-28.18232,10.48952c-11.48565-.21291-19.88231-5.32765-25.63887-15.55058-1.30321.70474-2.49892,1.38753-3.72565,2.00914-12.75238,6.462-26.38183,10.28334-40.35361,12.78593-8.38971,1.50274-16.32659-.66448-23.42519-5.36641-1.92125-1.27259-3.21214-1.02714-5.1442-.049-4.3015,2.17771-8.673,4.45824-13.28291,5.72765-6.49957,1.78972-11.54186-1.17989-12.67448-7.79957-1.13363-6.62557-1.16582-13.464-1.35274-20.21822-.11607-4.19441.37813-8.4057-.0774-12.91465a17.72973,17.72973,0,0,0-1.71312,2.7889c-3.36406,8.66527-6.64564,17.36253-9.99411,26.03392a69.76146,69.76146,0,0,1-3.30734,7.79765c-1.32669,2.48435-3.21682,4.45448-6.52011,3.95381-4.01526-.60859-8.10346-1.8301-8.56919-6.3395a86.51422,86.51422,0,0,1,.24786-16.28885c.515-5.91027,1.62832-11.76841,1.85835-18.05684a19.27843,19.27843,0,0,0-2.23165,3.05172c-3.78533,8.05734-7.43626,16.17792-11.23575,24.22845a94.18365,94.18365,0,0,1-4.7375,8.819c-1.97215,3.23483-4.39376,5.67814-8.83458,5.00474-4.63962-.70355-6.39-3.767-7.37555-7.74577-.09563-.38608-.16738-.77809-.36372-1.70076-1.9843,1.07551-3.806,2.01554-5.58258,3.03418a47.39075,47.39075,0,0,1-22.29181,6.1822c-11.84469.40152-20.44637-5.50438-24.10027-16.83714-1.007-3.12311-2.51393-4.20628-5.59352-4.62839a99.47341,99.47341,0,0,1-11.18374-2.69663c-2.54459-.65685-3.42448-2.476-2.86794-4.86886a19.28054,19.28054,0,0,1,1.79874-4.44689c1.31443-2.519,3.12618-2.51785,5.58833-1.33514a38.10483,38.10483,0,0,0,7.36407,2.23184c3.18657.7902,3.88205-1.1693,4.24861-3.8105a49.5886,49.5886,0,0,1,7.38911-20.38782c3.74609-5.78779,8.542-10.65171,15.521-11.79221a31.19966,31.19966,0,0,1,13.399.59967c8.88941,2.609,12.90063,12.21729,9.87355,21.768-2.05095,6.47089-6.30965,11.363-11.76451,15.05392a134.79847,134.79847,0,0,1-14.233,8.05156c-3.31089,1.69481-3.74944,3.85717-.74006,6.19241,2.85734,2.21724,6.292,2.39294,9.59448,1.81274,8.76726-1.54029,16.289-5.97722,23.49443-10.92835.86694-.59571,1.16376-2.24245,1.42343-3.466,2.32726-10.96619,4.48945-21.96822,6.90287-32.915,1.46352-6.63827,4.33676-8.3966,11.13638-7.31732,2.86374.45456,3.93229,2.54025,3.6981,5.06765-.54943,5.92944-1.32815,11.83949-2.10923,17.7448-.365,2.75951-.95057,5.48983-1.43617,8.23339l.70789.33809a14.92338,14.92338,0,0,0,1.24423-1.62455c3.52779-6.1489,6.912-12.38388,10.5788-18.44816,2.94506-4.87062,6.80294-8.82066,12.59856-10.31713,4.6512-1.201,6.80445.18482,7.20112,4.92287.62954,7.5196-1.45931,14.63592-3.46252,21.75311a6.41012,6.41012,0,0,0-.21624,3.58935,5.74506,5.74506,0,0,0,1.14115-1.04457c4.87525-7.81877,9.66408-15.69233,14.62386-23.45677a19.27122,19.27122,0,0,1,4.13286-4.3576c2.88031-2.34659,6.05622-3.14408,9.53788-1.10526,3.32261,1.94568,3.402,5.30776,3.0622,8.32007-1.01969,9.03832-2.64037,18.00868-3.66737,27.04638a73.49089,73.49089,0,0,0-.2123,13.57628c.26445,3.62323,2.35775,4.75768,5.748,3.32069a33.51229,33.51229,0,0,0,7.74805-4.6191c1.06324-.84894,1.58016-2.76966,1.763-4.27491,2.3539-19.38165,4.47851-38.79169,6.91963-58.162a110.48851,110.48851,0,0,1,12.96231-39.55827c3.519-6.42179,8.95187-10.35986,15.602-12.81053,5.45395-2.00985,10.15607-.29484,12.94136,4.8,4.82651,8.82859,4.8627,18.264,2.7922,27.777-2.82984,13.00211-9.32416,24.30023-16.876,35.06084-.46538.66312-.94305,1.31829-1.38436,1.99707a1.43294,1.43294,0,0,0-.08306.57535c.16484.0744.39947.25867.47979.20629,8.84905-5.76993,16.39517.2759,20.55816,6.99218,4.41242,7.11864,4.11537,14.9334,2.1578,22.6461-1.27683,5.03059-3.36211,9.856-5.20316,15.1099,1.02485-.36622,1.9612-.61357,2.81883-1.025,1.91613-.91927,3.78288-1.94086,5.68779-2.88429,5.98915-2.96618,10.28205-6.35555,11.35325-14.20851,1.65175-12.109,8.3878-22.03182,18.58894-29.18113a22.89769,22.89769,0,0,1,17.12342-3.61613c5.29322.81668,8.6905,4.27461,10.0981,9.385,2.7976,10.15683.68916,19.21262-6.51655,27.00564-5.286,5.7168-11.90288,9.3522-19.009,12.23266-.92786.3761-1.86484.72973-2.78865,1.09027,1.13924,3.56873,4.7482,6.05513,9.63086,5.8735,3.37735-.12565,7.0436-.53993,10.00891-1.99256a197.92432,197.92432,0,0,0,17.2312-10.09832,5.012,5.012,0,0,0,1.64083-2.96751c2.66591-11.40726,5.15961-22.85531,7.89241-34.24614a6.97218,6.97218,0,0,1,9.67417-4.36655,3.96863,3.96863,0,0,1,1.50018,2.96384c.14947,5.1659.06681,10.33851.06581,15.50876a5.95725,5.95725,0,0,0,.70047,3.25745c.41663-.76715.81139-1.54713,1.25343-2.29933,2.71068-4.61242,5.08981-9.47588,8.28486-13.72528,1.77075-2.3551,4.71949-4.10075,7.48357-5.36259,3.43249-1.567,5.54325-.32929,5.96374,3.51635.50235,4.59427.2247,9.26912.41169,13.904.17393,4.31212.0872,8.70072.90543,12.90176.77091,3.958,3.725,5.64054,7.57074,4.54066a60.29058,60.29058,0,0,0,11.72834-4.68722c4.55756-2.43024,5.68356-2.41111,8.18147,1.89536ZM963.30891,329.68168c5.7378.02326,10.4325-2.04455,13.601-6.65625,4.87536-7.09607,7.08506-15.04234,5.64312-23.60835-.70881-4.21084-2.27936-8.33461-7.29945-9.47566a11.371,11.371,0,0,0-12.63277,5.15933,23.662,23.662,0,0,0-3.24018,6.80764c-1.60839,6.25146-3.09478,12.55819-4.14564,18.92284C954.0618,327.9367,955.83434,329.65138,963.30891,329.68168ZM957.80667,277.313l.87208.27309c1.80458-3.099,3.67794-6.16032,5.40143-9.30379,6.2281-11.35943,12.48616-22.72813,15.79265-35.3695a32.98124,32.98124,0,0,0,.75447-8.98363c-.02605-1.17637-1.081-2.99536-2.04307-3.28851-.8699-.26506-2.63865.88055-3.333,1.87671a58.2152,58.2152,0,0,0-4.90448,8.3571c-5.70715,12.07861-8.00006,25.17767-11.08293,38.03278C958.602,271.66693,958.28337,274.50893,957.80667,277.313Zm88.19984,14.8526a7.77135,7.77135,0,0,0-.14915-1.70556c-.69227-2.61049-1.66044-5.16618-4.57308-5.94681-2.90243-.77788-4.85629,1.10223-6.40415,3.1471a36.908,36.908,0,0,0-7.28619,18.07865c-.18122,1.48642-.27946,3.18859,2.11819,3.12773C1037.36915,308.67235,1045.92957,300.131,1046.00651,292.16561ZM812.52858,307.13193c.37494.35717,1.11943,1.68716,1.88678,1.70049,7.00144.12155,17.02079-9.05793,17.09563-16.03686a10.2491,10.2491,0,0,0-2.90624-6.53948c-1.84763-1.87425-4.36919-.48537-6.39247.76855a12.62847,12.62847,0,0,0-2.102,1.72744C815.20152,293.53684,813.50493,299.69819,812.52858,307.13193Z" transform="translate(-175.80957 -205.78786)"/><text class="cls-2" transform="translate(1367.71692 300.18822)">2013</text><path class="cls-1" d="M1647.27071,646.68116a59.476,59.476,0,1,1,59.47747-59.476A59.54413,59.54413,0,0,1,1647.27071,646.68116Zm0-117.43987a57.96384,57.96384,0,1,0,57.96528,57.96392A58.03,58.03,0,0,0,1647.27071,529.24129Z" transform="translate(-175.80957 -205.78786)"/><path class="cls-3" d="M1647.27071,623.6381a36.4329,36.4329,0,1,1,36.43275-36.4329A36.47351,36.47351,0,0,1,1647.27071,623.6381Zm0-68.32922a31.89633,31.89633,0,1,0,31.89618,31.89633A31.93286,31.93286,0,0,0,1647.27071,555.30888Z" transform="translate(-175.80957 -205.78786)"/><circle class="cls-3" cx="1471.46114" cy="381.41735" r="17.08155"/><circle class="cls-3" cx="1471.4611" cy="585.64231" r="9.87536"/><rect class="cls-3" x="1470.70504" y="440.13721" width="1.51219" height="145.07493"/><path class="cls-1" d="M1647.18652,665.78149a77.71494,77.71494,0,0,1-77.62829-77.62677h1.51219a76.20181,76.20181,0,0,0,76.1161,76.11458Z" transform="translate(-175.80957 -205.78786)"/><path class="cls-9" d="M1482.74253,883.50936c-.86639-5.93338-1.86583-11.58436-2.47687-17.277a41.32627,41.32627,0,0,1,2.04381-19.21466c3.57051-9.484,11.61533-13.85718,21.51-11.713,9.15517,1.984,16.57991,7.17034,23.64416,12.97263,2.18276,1.79283,4.25082,3.72525,6.51194,5.71762,2.13309-1.87217,4.19682-3.78143,6.36284-5.56651,6.98682-5.758,14.3108-10.95645,23.35326-13.00518,10.605-2.40277,18.86869,2.23456,22.32292,12.546,2.553,7.62125,2.304,15.43393,1.19079,23.24754-.57325,4.02328-1.40515,8.00972-2.15989,12.23534,1.53322.5121,3.08875,1.03417,4.64594,1.55134,7.22277,2.39879,14.24651,5.2661,20.371,9.86569a40.60945,40.60945,0,0,1,7.074,6.64209c5.75421,7.04628,5.77845,15.25918.27057,22.51807-4.56818,6.02035-10.8526,9.80762-17.60531,12.80049-4.77427,2.116-9.73593,3.80916-14.70988,5.72809.712,3.99483,1.55834,8.05691,2.13983,12.15652,1.02442,7.22216,1.23533,14.44875-.72854,21.57843-3.24829,11.79286-12.29637,16.97224-24.1337,13.783-7.72559-2.08143-14.23069-6.41336-20.37324-11.34218-2.71424-2.17795-5.29321-4.52457-8.00816-6.85876-2.72126,2.34109-5.30286,4.68576-8.01438,6.869-5.7387,4.62071-11.832,8.66507-18.93921,10.92093-13.1832,4.18445-23.26218-1.75883-26.04816-15.32236-1.95677-9.52657-.66849-18.90084,1.27048-28.24865.24927-1.20177.51036-2.40107.74425-3.4995-5.0212-1.93023-9.89211-3.6201-14.61038-5.6626a47.36655,47.36655,0,0,1-15.90072-10.61679c-7.87229-8.29446-7.99062-18.18933-.21981-26.55823,5.93854-6.39563,13.57563-10.09937,21.55845-13.17253C1476.77246,885.45095,1479.79425,884.51974,1482.74253,883.50936Zm51.30389.80822c-4.72882.20821-9.47858.32394-14.20777.69882a4.24961,4.24961,0,0,0-2.92442,1.70761q-7.2149,12.11618-14.09582,24.42846a4.32241,4.32241,0,0,0,.03749,3.58695q6.80639,12.2074,13.97771,24.20812a4.65928,4.65928,0,0,0,3.34134,1.93107c9.15688.1594,18.3177.07519,27.47717.11315a3.75932,3.75932,0,0,0,3.64231-2.06684c4.61742-8.09449,9.33638-16.13159,13.8831-24.2652a4.06413,4.06413,0,0,0,.06426-3.3755q-6.94592-12.41563-14.23323-24.63777a4.26273,4.26273,0,0,0-2.96286-1.6386C1543.39929,884.64088,1538.733,884.52529,1534.04642,884.31758Zm-49.28684,6.42907c-8.5035,2.48895-16.90819,5.53174-24.07443,11.20933-9.0537,7.173-9.21995,15.05247.14731,21.85893,4.9746,3.61465,10.85272,6.02383,16.43622,8.74479a59.07584,59.07584,0,0,0,7.47742,2.55052c2.92261-7.29074,5.71653-14.22147,8.45809-21.17289a2.831,2.831,0,0,0,.08056-1.89019C1490.51737,905.02378,1487.68558,898.02581,1484.75958,890.74665Zm98.41765-.0651a5.53992,5.53992,0,0,0-.60115.84993c-2.56685,6.67125-5.165,13.33115-7.63035,20.03985a4.68771,4.68771,0,0,0,.13127,3.014c1.59223,4.19662,3.37944,8.31881,5.01132,12.501,1.01639,2.60477,1.8805,5.26893,2.98771,8.40074,5.29672-2.11341,10.56539-3.75859,15.37938-6.274a53.21662,53.21662,0,0,0,11.774-8.23253c5.26467-4.95883,5.18368-10.84758.18075-16.1003C1602.95363,897.05138,1593.06051,893.81938,1583.17723,890.68155Zm-54.47485-31.73041c-4.03426-3.24058-7.89868-6.82815-12.24194-9.68872a52.84759,52.84759,0,0,0-12.40044-6.21818c-8.22136-2.689-13.62258.59782-15.62866,9.02732-2.363,9.92932-.42072,19.62682,1.76524,29.26626a4.1569,4.1569,0,0,0,.9426.1245c7.22451-1.12979,14.44945-2.25759,21.6653-3.44072a2.82667,2.82667,0,0,0,1.63-.90973C1519.08239,871.25682,1523.68,865.36188,1528.70238,858.95114Zm49.07119,22.35418c2.13806-9.01385,3.73392-18.06832,2.223-27.37308-1.65536-10.19427-7.84612-13.86726-17.61892-10.5375-.39314.134-.78828.26532-1.17147.42446-8.37159,3.47687-15.27266,9.02177-21.59227,15.37914-.0907.09123-.05217.311-.03147.15928,4.706,5.99446,9.26342,11.82184,13.86244,17.61627a2.80574,2.80574,0,0,0,1.56057,1.028C1562.47123,879.12664,1569.94747,880.182,1577.77356,881.30532Zm-87.64106,63.01162c-.68112,3.59568-1.4624,6.99293-1.94727,10.43194-.99341,7.0458-1.53729,14.12275.83234,21.02477,2.16725,6.31265,6.80738,8.99234,13.28867,7.51079,10.77094-2.46219,18.57114-9.61553,26.39656-16.76932-3.23174-3.90073-6.65148-7.301-9.18747-11.2664-3.46785-5.4225-7.58794-9.03011-14.40143-8.39688a3.06019,3.06019,0,0,1-.73443-.13861C1499.72743,945.92965,1495.07508,945.14789,1490.1325,944.31694Zm87.67467.21945c-7.61319,1.07277-14.85419,2.09306-22.09516,3.11356-.165.02326-.36975-.00566-.4882.08166a11.49631,11.49631,0,0,0-2.25275,1.76479c-3.08335,3.82716-6.059,7.74095-9.12779,11.5801-1.43513,1.79544-2.996,3.49045-4.62374,5.37439,1.89851,1.72249,3.57329,3.33716,5.34746,4.834,5.62618,4.74682,11.48116,9.15033,18.63763,11.38173,8.81518,2.74857,14.34908-.29854,16.4133-9.24744C1581.87373,963.63958,1579.954,954.0853,1577.80718,944.53639Zm-54.31479,4.11242c3.676,4.39063,6.93926,8.28837,10.51215,12.55593,3.5703-4.29809,6.84032-8.23473,10.42979-12.55593Zm-15.16065-62.7927-16.2334,2.84274c1.96048,5.29627,3.74314,10.11217,5.701,15.40143C1501.43853,897.79649,1504.71033,892.12911,1508.33173,885.8561Zm67.55224,2.82169-16.224-2.79067c3.60446,6.23182,6.90367,11.93588,10.54277,18.22767C1572.1643,898.78485,1573.92284,894.00657,1575.884,888.67779Zm-16.196,51.25375c5.6662-.99309,10.75-1.88409,16.19435-2.83829-1.965-5.30411-3.75084-10.12439-5.70863-15.409C1566.55085,927.98879,1563.29749,933.6503,1559.688,939.93154Zm-61.90845-18.2662c-1.96925,5.37466-3.74088,10.21007-5.66684,15.4665,5.523.94207,10.56994,1.8029,16.1717,2.75838C1504.62372,933.5393,1501.37082,927.8958,1497.77955,921.66534Zm36.19965-57.04143c-3.5253,4.22852-6.775,8.12643-10.26534,12.313h20.59289C1540.72452,872.666,1537.49091,868.81074,1533.9792,864.62391Z" transform="translate(-175.80957 -205.78786)"/><path class="cls-9" d="M1549.56626,912.85353a15.577,15.577,0,1,1-15.50553-15.61408A15.49585,15.49585,0,0,1,1549.56626,912.85353Z" transform="translate(-175.80957 -205.78786)"/><path d="M1683.48141,937.98951c-5.604,1.73746-8.86724-.17168-11.25952-4.84754-2.14519-4.19292-5.13075-7.94738-7.48523-12.04486-1.43546-2.49811-3.18238-3.64477-6.09312-3.30419a57.99031,57.99031,0,0,1-6.42083.04492v20.44055h-6.50539v-52.048c8.62353,0,17.25438-.72571,25.699.2168,7.51019.83821,11.58064,6.98512,11.77056,14.83018.18834,7.77957-3.469,12.97491-10.77061,15.32024-.68127.21884-1.3399.50816-2.3541.89705C1674.58138,924.39665,1678.98942,931.129,1683.48141,937.98951Zm-31.09879-26.232c4.16788,0,8.0339.0152,11.89969-.00972a23.53847,23.53847,0,0,0,3.262-.21509c5.27-.77448,8.60627-4.44344,8.7273-9.53663.124-5.21718-3.19276-9.54155-8.53964-10.039-5.01647-.46672-10.11049-.1-15.34934-.1Z" transform="translate(-175.80957 -205.78786)"/><path d="M1725.61168,921.40026H1695.269c.64454,5.407,2.774,9.46156,7.391,11.64574,6.56406,3.10525,12.45138,1.15062,18.02324-3.3388.94313,1.305,1.84689,2.5555,2.72271,3.76735-5.31043,6.13912-15.80641,7.94462-23.94223,4.25417-7.31591-3.31854-11.83468-12.31954-10.53169-20.97828,1.52031-10.103,8.41887-16.94822,17.54447-17.40884C1718.63195,898.728,1727.43615,908.68071,1725.61168,921.40026Zm-5.82732-4.72255c-.43921-7.5996-5.2388-12.14015-12.30459-12.24642a12.12623,12.12623,0,0,0-11.85369,12.24642Z" transform="translate(-175.80957 -205.78786)"/><path d="M1737.90045,909.81083c-1.02731-1.49759-1.8376-2.67883-2.61562-3.813,5.50907-6.94753,18.48372-9.17457,25.12873-3.85685,2.30529,1.84483,4.41577,5.31985,4.596,8.17767.57926,9.18213.2155,18.42376.2155,27.91125h-5.646c-.13292-.82534-.28091-1.74424-.43187-2.66065-10.611,5.172-20.90711,8.25782-25.6668-6.967-1.50012-4.79844.72333-9.53188,5.3141-12.17244,6.99-4.02053,13.70612-2.66968,19.97758,2.00122,1.35929-5.7591.43745-10.17386-3.03544-12.06689C1749.11742,902.756,1743.34685,905.02546,1737.90045,909.81083Zm21.42533,17.07208c-.03128-5.17895-3.9575-8.24776-10.49578-8.20376-5.46036.03675-9.15794,3.33324-9.19114,8.19417-.03306,4.83806,3.67314,8.17305,9.13639,8.22126C1755.25878,935.15179,1759.35649,931.96249,1759.32578,926.88291Z" transform="translate(-175.80957 -205.78786)"/><path d="M1803.89991,929.18043c1.36947,1.29832,2.57109,2.43755,3.74853,3.55382-5.81474,8.0369-18.28835,9.26155-26.02385,2.74653-8.89358-7.49037-9.36968-22.66524-1.2252-30.99472,6.74059-6.89366,21.67465-7.225,27.31117,1.70806-1.10944,1.113-2.28267,2.29012-3.70968,3.72175-3.26438-3.75927-7.09073-6.00085-11.66856-4.9069a16.32891,16.32891,0,0,0-7.77872,4.14857c-5.16981,5.45646-4.65249,16.26307.51941,21.38908C1788.84152,934.28165,1796.8937,936.64285,1803.89991,929.18043Z" transform="translate(-175.80957 -205.78786)"/><path d="M1817.196,905.64708h-6.00831v-5.155l5.85357-.34227V890.13858h6.14671v10.087h7.66657v5.25706l-7.32878.37672c0,8.37918-.21913,16.49583.09828,24.59144.145,3.69829,2.56986,4.33184,7.50877,2.55514,2.44714,4.56712,2.05123,5.40763-2.99538,6.35949-6.73783,1.27082-10.85758-2.05836-10.92784-8.9617-.06929-6.80466-.01416-13.6106-.01363-20.416C1817.196,908.68432,1817.196,907.38086,1817.196,905.64708Z" transform="translate(-175.80957 -205.78786)"/></svg>