<svg id="Слой_1" data-name="Слой 1" xmlns="http://www.w3.org/2000/svg" viewBox="0 0 1755.11662 875.52916"><defs><style>.cls-1{fill:#6d6e70;}.cls-2{font-size:90px;}.cls-2,.cls-4{fill:#343433;font-family:OpenSans-SemiBold, Open Sans;font-weight:700;}.cls-3{fill:#606060;}.cls-4{font-size:86px;}.cls-5{fill:#fba919;}.cls-6{fill:#e78724;}.cls-7{fill:#fdc168;}.cls-8{fill:#fff;}.cls-9{fill:#c9c9c9;}.cls-10{fill:#463014;}.cls-11{fill:#e84a4a;}.cls-12{fill:#1e1e1e;}.cls-13{fill:#8ed5fa;}.cls-14{fill:#1c78c0;}</style></defs><title>timeline 3</title><path class="cls-1" d="M1639.20937,587.95979H277.79063a.75685.75685,0,1,1,0-1.51219H1639.20937a.75685.75685,0,1,1,0,1.51219Z" transform="translate(-105.20674 -110.54487)"/><text class="cls-2" transform="translate(70.60283 395.43121)">2012</text><path class="cls-1" d="M278.5538,646.68116a59.476,59.476,0,1,1,59.47747-59.476A59.54413,59.54413,0,0,1,278.5538,646.68116Zm0-117.43987a57.96384,57.96384,0,1,0,57.96528,57.96392A58.03,58.03,0,0,0,278.5538,529.24129Z" transform="translate(-105.20674 -110.54487)"/><path class="cls-3" d="M278.5538,623.6381a36.4329,36.4329,0,1,1,36.43275-36.4329A36.47351,36.47351,0,0,1,278.5538,623.6381Zm0-68.32922A31.89633,31.89633,0,1,0,310.45,587.20521,31.93286,31.93286,0,0,0,278.5538,555.30888Z" transform="translate(-105.20674 -110.54487)"/><circle class="cls-3" cx="173.34706" cy="476.66034" r="17.08155"/><circle class="cls-3" cx="173.34702" cy="680.8853" r="9.87536"/><rect class="cls-3" x="172.59096" y="535.3802" width="1.51219" height="145.07493"/><path class="cls-1" d="M278.46962,665.78149a77.71494,77.71494,0,0,1-77.62829-77.62677h1.51219a76.20181,76.20181,0,0,0,76.1161,76.11458Z" transform="translate(-105.20674 -110.54487)"/><path class="cls-1" d="M960.48548,647.6293a59.476,59.476,0,1,1,59.47762-59.47747A59.54442,59.54442,0,0,1,960.48548,647.6293Zm0-117.43987a57.96384,57.96384,0,1,0,57.96543,57.9624A58.02961,58.02961,0,0,0,960.48548,530.18943Z" transform="translate(-105.20674 -110.54487)"/><path class="cls-3" d="M960.48548,624.5861a36.43282,36.43282,0,1,1,36.4329-36.43426A36.47432,36.47432,0,0,1,960.48548,624.5861Zm0-68.32907a31.89625,31.89625,0,1,0,31.89633,31.89481A31.93121,31.93121,0,0,0,960.48548,556.257Z" transform="translate(-105.20674 -110.54487)"/><circle class="cls-3" cx="855.27873" cy="477.60765" r="17.08155"/><circle class="cls-3" cx="855.27915" cy="273.38394" r="9.87479"/><rect class="cls-3" x="854.52264" y="273.45513" width="1.51219" height="145.43334"/><path class="cls-1" d="M1038.11376,588.15184h-1.51219a76.20055,76.20055,0,0,0-76.1161-76.11322v-1.51219A77.71475,77.71475,0,0,1,1038.11376,588.15184Z" transform="translate(-105.20674 -110.54487)"/><text class="cls-4" transform="translate(756.54411 623.43121)">2013</text><text class="cls-2" transform="translate(1438.31975 395.43121)">2014</text><path class="cls-1" d="M1647.27071,646.68116a59.476,59.476,0,1,1,59.47747-59.476A59.54413,59.54413,0,0,1,1647.27071,646.68116Zm0-117.43987a57.96384,57.96384,0,1,0,57.96528,57.96392A58.03,58.03,0,0,0,1647.27071,529.24129Z" transform="translate(-105.20674 -110.54487)"/><path class="cls-3" d="M1647.27071,623.6381a36.4329,36.4329,0,1,1,36.43275-36.4329A36.47351,36.47351,0,0,1,1647.27071,623.6381Zm0-68.32922a31.89633,31.89633,0,1,0,31.89618,31.89633A31.93286,31.93286,0,0,0,1647.27071,555.30888Z" transform="translate(-105.20674 -110.54487)"/><circle class="cls-3" cx="1542.06396" cy="476.66034" r="17.08155"/><circle class="cls-3" cx="1542.06393" cy="680.8853" r="9.87536"/><rect class="cls-3" x="1541.30787" y="535.3802" width="1.51219" height="145.07493"/><path class="cls-1" d="M1647.18652,665.78149a77.71494,77.71494,0,0,1-77.62829-77.62677h1.51219a76.20181,76.20181,0,0,0,76.1161,76.11458Z" transform="translate(-105.20674 -110.54487)"/><path class="cls-5" d="M112.95507,852.21278s2.77635,10.7076,3.17221,14.2776c.39683,3.569-7.13807,11.50076-7.13807,15.46663,0,3.96684,1.58393,11.10539,10.31028,14.6754,8.72636,3.56952,9.91491,12.69077,9.91491,18.24443,0,5.55221-3.17221,16.25932-3.17221,16.25932s-1.98221,26.572,8.72539,31.33107c10.70662,4.75856,8.32856,4.75856,10.70662,4.75856,2.37613,0,19.82691,7.14292,30.13961,4.36511,10.3127-2.773,13.08567-5.94759,13.08567-5.94759s10.3127.79366,13.48249-8.32856c3.17463-9.11738,5.15394-28.15546,3.96344-36.88085s-2.7778-20.22374,4.36028-24.192c7.13807-3.96345,14.673-8.72539,13.48248-12.68883s-7.53491-9.519-7.53491-9.519-1.58731-9.911-.40166-12.292c1.19048-2.37613,8.32856-8.32856,4.36028-12.68883-3.96345-4.36028-11.10637-4.36028-11.10637-4.36028l-9.11738.78882s-15.46131-13.88463-35.68988-13.091a53.70614,53.70614,0,0,0-32.90773,13.08566s-6.74125-2.38-12.69029,0c-5.95243,2.381-7.13807,0-5.94759,6.74125Z" transform="translate(-105.20674 -110.54487)"/><path class="cls-6" d="M149.19374,911.26135s-7.8543,12.0089-13.6146,20.531c-.89141,1.31824,5.76079,1.40971,5.76079,1.40971l7.8543-21.94075Zm3.73939-24.89712s-2.36742,5.906-3.66438,9.037c-1.40826,3.404-6.77512,5.09731-6.77512,5.09731s2.78264-2.91814,2.78264-10.31077c0-3.0972,4.00361-4.33124,4.00361-4.33124l3.65373.513Z" transform="translate(-105.20674 -110.54487)"/><path class="cls-6" d="M150.5415,889.7034s-4.8505,5.77338-13.85657,2.54067c-9.008-3.2327-9.93136-14.78235-9.93136-18.016s17.09121,3.23367,19.401,4.61967,6.69624,6.92853,4.38689,10.85568Zm-34.02079-61.69716s8.314-1.61829,13.85706,2.77054c5.545,4.38786,7.15937,7.85333,7.15937,7.85333l-9.34241,7.40569a12.00243,12.00243,0,0,1-5.90065-8.09917C120.90906,831.93194,121.8329,829.16091,116.52072,828.00624Z" transform="translate(-105.20674 -110.54487)"/><path class="cls-6" d="M148.117,873.02547c-3.58017-5.08134-9.47936-7.29777-14.189-7.66556-8.03191-.62767-11.84485,2.21159-11.84485,2.21159s13.15341.55653,16.94458,5.53624c7.05774,9.2674,17.354,10.02041,19.00034,7.985-1.90381.09485-3.99829-.84834-6.23989-2.968-1.40051-1.326-2.53583-3.48628-3.67163-5.09925Zm-22.205,17.96714s-14.59361-5.017-11.82065-10.09687c2.77151-5.08231.56621-7.85091.56621-7.85091s-8.1495,6.08309-6.07341,12.54946c1.27663,3.96828,3.41756,6.84287,15.17385,12.35008,5.63884,10.4724,1.16435,29.3266,1.43245,29.4137.44667.14518,7.91721-3.69244,7.40714-21.332-.15486-5.4201-.58556-12.80982-6.68317-15.04077Zm19.12423-53.94932c-6.11939,3.10881-14.50263,7.43812-14.50263,7.43812l3.29948,1.65023c-.31456.51055-.467.81495-.467.81495l3.38272,1.53989s8.26565,5.98872,13.33247,9.83844c-1.68894-5.19991-6.6493-13.36973-6.6493-13.36973a8.87554,8.87554,0,0,1,1.597-7.91237Zm20.32827,126.7238c-18.80822,0-25.17925-9.54809-25.17925-9.54809l2.93944,7.15744c1.11112,3.0972,12.96371,12.73239,22.21175,12.73239" transform="translate(-105.20674 -110.54487)"/><path class="cls-6" d="M142.24682,947.76619s1.73007,10.57645,8.65909,10.57645c5.88807,0,7.623-8.93348,7.623-10.7797l-16.28255.20326Zm-11.53126-15.94961a76.30741,76.30741,0,0,0,3.46354-14.78186,167.03541,167.03541,0,0,0,.52749-18.39107s-1.84864,7.15985-3.46983,8.31695c-1.61635,1.15419-4.6216,9.00607-4.6216,9.00607s-1.61151,11.69-2.37613,15.61908c2.11964.42441,3.90053-.82415,6.4654.23084Zm-16.73262-46.337s3.92473-1.387,5.08134-9.93136a38.57835,38.57835,0,0,0-1.387-15.937s.23084,11.779-1.15419,14.08935c-1.387,2.30838-2.54067,3.00186-4.158,6.00566C110.74734,882.70953,113.05717,884.55527,113.98295,885.47959Z" transform="translate(-105.20674 -110.54487)"/><path class="cls-7" d="M118.6694,830.02716l-.80092-.50813c-2.36307.08033.8014.50813.8014.50813Z" transform="translate(-105.20674 -110.54487)"/><path class="cls-5" d="M148.23119,834.51326s-3.69438-.61557-5.543-3.38659a19.17425,19.17425,0,0,0-15.42792-8.37792,69.4099,69.4099,0,0,0-16.599,2.21788l7.20583,4.549c.76268-.0242,2.09545-.01452,4.2993.05807,9.04382.3,10.43611,9.2432,10.43611,9.2432l31.877-4.38931" transform="translate(-105.20674 -110.54487)"/><path class="cls-8" d="M151.311,883.92132a12.5319,12.5319,0,0,1-10.93311,2.92492c-6.62171-1.385-10.62581-4.31092-10.9336-9.39322-.30778-5.08134,1.387-7.08242,1.387-7.08242s7.39456,2.31322,10.937,5.39106c3.54242,3.08268,6.16052,8.00916,9.54808,8.164Z" transform="translate(-105.20674 -110.54487)"/><path class="cls-9" d="M146.09315,882.38143a11.79181,11.79181,0,0,1-7.91915.3165c-5.47139-1.82445-5.83628-7.51554-5.83628-7.51554s-3.3561,9.85054,6.05406,11.74661a13.77388,13.77388,0,0,0,12.01229-2.85329l-4.31092-1.69378Z" transform="translate(-105.20674 -110.54487)"/><path class="cls-10" d="M148.75094,832.42362c-.40264-8.44761,6.5225-15.17627,8.92187-15.4618.1326,1.431-.13357,7.01467,2.26482,8.73168.69881-4.55917,3.06042-9.58728,12.38589-12.88289a15.62726,15.62726,0,0,0,.55749,11.79113c6.36862-5.78015,10.65871-4.82485,10.65871-4.82485s-4.42464,7.63508-2.69408,12.64528c-12.78369-1.00272-32.03277,1.35793-32.09472.00145ZM121.649,845.29151c-3.05026-2.531-.77672-4.87954-1.01772-7.75461a9.5918,9.5918,0,0,0-.7564-3.76987c-2.80684-4.4319-9.4271-5.77676-9.49485-5.79079l-3.10688-.60879,2.05673-2.40662c.26617-.31166,8.71571-8.37211,21.79169-4.15218,9.14641,2.95008,15.9167,12.9521,16.16834,13.35667l-4.58289,2.15594c-.05323-.08517-5.40558-9.48662-13.2502-12.01616a20.081,20.081,0,0,0-14.69233,1.176,17.21522,17.21522,0,0,1,8.24145,6.30861,11.89455,11.89455,0,0,1,1.31631,5.43849c.21293,2.52373.41135,4.90616,2.26967,6.44895l-4.93616,1.61393Zm-8.1466,36.9399s3.84246-4.76533,4.98117-14.038c.44716-3.65227-.347-10.85616-1.6178-13.62767a55.71715,55.71715,0,0,1-1.50117,13.62767s-1.16629,12.65205-1.85832,14.038Z" transform="translate(-105.20674 -110.54487)"/><path class="cls-10" d="M133.76631,840.47827c-.00193-.00968-1.23307-5.39009-4.6458-8.10595-4.81517-3.82988-10.694-1.7925-10.75066-1.7746l-.85173-2.63746a15.82286,15.82286,0,0,1,13.197,2.14384c6.22827,4.3777,6.97837,8.346,7.04129,8.78443l-3.98764,1.58973Zm-8.194,38.33557a9.99029,9.99029,0,0,1-1.65361-6.06035c.18051-1.568.9069-3.17657,2.20385-3.74761,2.41-1.055,3.47951,1.67442,3.47951,1.67442s-3.3924.83721-4.02636,8.135Z" transform="translate(-105.20674 -110.54487)"/><path class="cls-10" d="M147.709,883.21283c.0842.15728.12728.24536.12728.24536s-6.28828,4.71936-12.73239-.06969c-3.45047-2.56487-3.1243-8.90929-2.06738-11.6a20.75917,20.75917,0,0,1,7.02774,3.05849c-2.46227-2.19708-4.61773-3.81342-4.61192-3.85214l-2.79861-.79366-5.43945-1.86316c-.06969.41619-2.05383,9.71746,3.67308,16.0522,2.53825,2.81167,14.43827,9.10286,20.08823-1.65506l-3.26658.48877Z" transform="translate(-105.20674 -110.54487)"/><path class="cls-10" d="M147.12007,883.90438c3.54048,5.38864,12.47348,2.30935,12.31959-3.38756,0,0-5.96888,3.29416-11.24186-2.771-3.0793-3.53758-12.94532-13.30343-26.32377-10.05622,9.23933,2.03253,21.47085,10.4724,25.246,16.22158Z" transform="translate(-105.20674 -110.54487)"/><path class="cls-10" d="M120.6245,899.11259a10.62607,10.62607,0,0,1,3.857,8.256c0,2.33258-.23229,14.05353-1.387,21.21339,1.73733,1.12854,2.94718,1.36858,4.67629,2.51889.86625-8.29275,1.48665-20.31181,1.19726-25.16377-.32908-5.5314-3.29077-9.2432-6.0347-10.82567-.85657-.49459-1.75669-.98094-2.66165-1.4702-4.70387-2.54164-9.56744-5.17087-9.56744-9.66036,0-3.51193,1.3647-4.61047,2.81168-5.77482l.15486-.12582a8.40956,8.40956,0,0,0,2.69069-3.0972c1.75669-3.94554,2.04222-13.99546,0-16.54727-1.01627-1.27275-3.74567-5.55076-2.9617-8.42051a3.85871,3.85871,0,0,1,2.11481-2.48744,10.5795,10.5795,0,0,1,4.77646-.91948,37.43468,37.43468,0,0,1,10.41917,1.88736c7.94625,2.51647,17.533,9.77553,20.28181,11.94357l.1355.10163,1.75669,1.22436-1.09854-1.8438c-.06775-.11614-7.03161-11.57094-19.48815-15.77151a39.54085,39.54085,0,0,0-11.8613-2.1874,15.40251,15.40251,0,0,0-7.02193,1.44213,8.46412,8.46412,0,0,0-4.46674,5.38138c-1.5728,5.76853,3.5521,12.19038,3.72632,12.39847.60008,1.06466.85173,8.80766-.52749,11.9097a4.74659,4.74659,0,0,1-1.36954,1.37922c-.20325.16454-.43554.33875-.68235.52265-1.94543,1.46633-4.88777,3.6876-4.88777,8.80282,0,6.99774,7.09936,10.79664,12.80014,13.84544.93884.50329,1.82928.97756,2.63746,1.44213Z" transform="translate(-105.20674 -110.54487)"/><path class="cls-10" d="M121.649,845.291c-3.05026-2.531-.77672-4.87906-1.01772-7.75413a9.5918,9.5918,0,0,0-.7564-3.76987c-2.80684-4.4319-9.4271-5.77676-9.49485-5.79079l-3.10688-.60879,2.05673-2.40662c.26617-.31166,8.71571-8.37211,21.79169-4.15218,9.14641,2.95008,15.9167,12.9521,16.16834,13.35667l-4.58289,2.15594c-.05323-.08517-5.40558-9.48662-13.2502-12.01616a20.081,20.081,0,0,0-14.69233,1.176,17.21522,17.21522,0,0,1,8.24145,6.30861,11.89455,11.89455,0,0,1,1.31631,5.43849c.21293,2.52373.41135,4.90616,2.26967,6.44895l-4.93616,1.61393Z" transform="translate(-105.20674 -110.54487)"/><path class="cls-10" d="M121.54979,845.80933l-.197-.16309c-2.26192-1.87284-1.86074-3.72632-1.47214-5.512a8.63976,8.63976,0,0,0,.28746-2.55519,9.43626,9.43626,0,0,0-.68526-3.56178c-2.67133-4.21993-9.1319-5.57012-9.19481-5.58464l-3.88118-.76462,2.57455-3.00525a21.6667,21.6667,0,0,1,14.65846-5.5314,24.6973,24.6973,0,0,1,7.622,1.24372c9.54324,3.07784,16.35708,13.44862,16.42,13.55024l.27585.44038-5.42494,2.55519-.21777-.3436c-.58072-.99207-5.725-9.47549-13.00339-11.82259a18.0568,18.0568,0,0,0-5.59431-.87109,20.47737,20.47737,0,0,0-7.81559,1.58731,17.0443,17.0443,0,0,1,7.49135,6.08309,12.24685,12.24685,0,0,1,1.38406,5.63787c.20325,2.4342.39683,4.72323,2.10513,6.14116l.64364.53233-5.97179,1.95995Z" transform="translate(-105.20674 -110.54487)"/><path class="cls-10" d="M133.76631,840.47827c-.00193-.00968-1.23307-5.39009-4.6458-8.10595-4.81517-3.82988-10.694-1.7925-10.75066-1.7746l-.85173-2.63746a15.82286,15.82286,0,0,1,13.197,2.14384c6.22827,4.3777,6.97837,8.346,7.04129,8.78443l-3.98764,1.58973Z" transform="translate(-105.20674 -110.54487)"/><path class="cls-10" d="M133.43529,841.10739l-.12-.52943c-.01258-.05178-1.21952-5.24782-4.48416-7.84317a10.42214,10.42214,0,0,0-6.66382-2.231,12.38359,12.38359,0,0,0-3.64647.53233l-.44135.15-1.14209-3.51822.44038-.14034a16.26377,16.26377,0,0,1,13.60831,2.20675c6.388,4.49094,7.16711,8.63828,7.23486,9.098l.05807.363-4.8297,1.92607ZM122.1673,829.579a11.48353,11.48353,0,0,1,7.2397,2.4313c2.89878,2.30838,4.262,6.38313,4.67484,7.84462l3.14075-1.25194c-.28407-1.10918-1.5365-4.4377-6.77512-8.12047a14.60376,14.60376,0,0,0-8.57053-2.65391,15.68411,15.68411,0,0,0-3.77277.44716l.56621,1.75185A13.72887,13.72887,0,0,1,122.1673,829.579Zm28.44922,126.22631a5.82609,5.82609,0,0,1-3.72293-1.33083,16.42816,16.42816,0,0,1-4.34-5.74433,2.18362,2.18362,0,0,1,.27778-2.49808,4.04522,4.04522,0,0,1,2.998-.91076l1.23307-.00193c1.47117-.00145,3.94409-.00145,6.0589-.00145h2.0277a3.8447,3.8447,0,0,1,2.80684.842,1.91069,1.91069,0,0,1,.28068,2.11,22.8994,22.8994,0,0,1-4.12315,6.1218,4.68254,4.68254,0,0,1-3.48919,1.41793Zm1.43-71.584-4.92648-.317a25.76521,25.76521,0,0,1,2.07512,5.092c.92142,3.24722-.84205,7.99465-.84205,7.99465s6.56945-7.43811,3.69389-12.7711ZM145.8957,968.816c-17.53692-1.34777-23.70712-17.91924-23.70712-21.37067l4.58.00193h0c.02274,1.49536,4.68355,15.66989,19.47847,16.80715l-.35086,4.56837Z" transform="translate(-105.20674 -110.54487)"/><path class="cls-8" d="M140.96777,939.126a11.5022,11.5022,0,0,1,.03194-4.56208c-1.33276-1.00175-3.72438-1.37438-5.51882-1.95995-1.47117-.92916-8.977.94852-14.42617-5.64271-6.82835-8.256-5.39106-13.18729-5.39106-13.18729-1.75185,1.94543-3.44563,1.20016-6.117,10.26915s1.2534,15.38921,8.57053,21.73362c3.45531,2.99557,8.34308,4.22961,12.54365,4.70387-1.40826-1.4131,2.40517-1.55828,5.03295-2.54067a7.01689,7.01689,0,0,1,1.72282-5.84113,8.95807,8.95807,0,0,1,3.45531-2.07609c.07259-.16454.13066-.31456.19842-.47426a4.27567,4.27567,0,0,1-.11131-.44523Z" transform="translate(-105.20674 -110.54487)"/><path class="cls-9" d="M135.66527,947.90169c-.15147-.44523-.26617-.90012-.37892-1.35648-.121-.49845-.72591-1.91252.01936-.29859a5.98541,5.98541,0,0,1-.40941-1.26791c-11.84678-.01549-22.15465-8.1495-20.16083-25.25184-1.5486-2.05916-3.72148,4.15218-3.72148,4.15218s-5.92823,17.22236,9.38838,23.89682c5.10554,2.22611,9.61583,3.82214,10.68049,3.178a5.36436,5.36436,0,0,0,4.97-2.11142c-.14034-.31213-.26617-.62428-.37747-.94126Z" transform="translate(-105.20674 -110.54487)"/><path class="cls-10" d="M140.75436,936.64628a9.50882,9.50882,0,0,1,1.01143-4.23445c.04839-.09679.105-.18874.15728-.28165-4.55869-.03872-9.80941-.47571-14.281-2.26482-4.912-1.96624-11.058-8.69151-12.11779-16.59324,0,0-9.25288,7.14194-6.53315,22.42856,2.55035,14.35454,14.56167,19.03422,28.26194,19.82593.00968-.09291-1.53892-3.29077-1.05014-5.2483-7.77687.56621-16.47806-2.439-20.6738-9.34967-3.84246-6.32022-2.76328-17.11686-1.18564-18.69933,3.857,12.16135,17.72178,14.63426,26.41814,14.42133Z" transform="translate(-105.20674 -110.54487)"/><path class="cls-10" d="M142.18972,927.94024a45.14065,45.14065,0,0,1-7.501,13.08906s6.92708-.3194,7.30939-1.54376a142.97864,142.97864,0,0,0,8.54633-31.2575c-2.15594,3.54242-8.1437,19.08649-8.3547,19.70592Z" transform="translate(-105.20674 -110.54487)"/><path class="cls-6" d="M181.43267,911.26135s7.85188,12.0089,13.6146,20.531c.89141,1.31824-5.76273,1.40971-5.76273,1.40971l-7.85188-21.94075Zm-3.74083-24.89712s2.36839,5.906,3.66341,9.037c1.40826,3.404,6.77512,5.09731,6.77512,5.09731s-2.78264-2.91814-2.78264-10.31077c0-3.0972-4.00313-4.33124-4.00313-4.33124l-3.64888.513Z" transform="translate(-105.20674 -110.54487)"/><path class="cls-6" d="M180.08345,889.7034s4.8505,5.77338,13.859,2.54067,9.93136-14.78235,9.93136-18.016-17.09121,3.23367-19.401,4.61967c-2.3108,1.386-6.69769,6.92853-4.38931,10.85568Zm34.02079-61.69716s-8.314-1.61829-13.858,2.77054c-5.54592,4.38786-7.16227,7.85333-7.16227,7.85333l9.34,7.40521a11.99354,11.99354,0,0,0,5.89919-8.09869c1.38405-6.00469.45975-8.77572,5.77337-9.93039Z" transform="translate(-105.20674 -110.54487)"/><path class="cls-6" d="M182.50943,873.02547c3.57969-5.08134,9.47694-7.29777,14.189-7.66556,8.0319-.62767,11.8429,2.21159,11.8429,2.21159s-13.15341.55653-16.94506,5.53624c-7.05823,9.2674-17.35109,10.02041-18.99744,7.985,1.90187.09485,3.99732-.84834,6.238-2.968,1.39858-1.326,2.53583-3.48628,3.66825-5.09925Zm22.204,17.96714s14.59264-5.017,11.82114-10.09735c-2.771-5.08618-.56717-7.8543-.56717-7.8543s8.15095,6.08309,6.07245,12.5485c-1.27614,3.96828-3.4166,6.84287-15.17337,12.35008-5.64271,10.4724-1.16629,29.32659-1.43245,29.4137-.45006.14518-7.91721-3.69244-7.40908-21.332.15486-5.41526.58557-12.80982,6.68317-15.04077Zm-19.12326-53.94932c6.117,3.10881,14.50214,7.43812,14.50214,7.43812l-3.29561,1.65023c.31456.51055.46942.81495.46942.81495l-3.38272,1.53989s-8.26565,5.98872-13.33247,9.83844c1.68894-5.19991,6.64446-13.36973,6.64446-13.36973a8.87554,8.87554,0,0,0-1.597-7.91237Zm-20.32827,126.7238c18.8058,0,25.17684-9.54809,25.17684-9.54809l-2.9375,7.15744c-1.11112,3.0972-12.96468,12.73239-22.21078,12.73239" transform="translate(-105.20674 -110.54487)"/><path class="cls-6" d="M188.37959,947.76619s-1.7325,10.57645-8.65957,10.57645c-5.88709,0-7.622-8.93348-7.622-10.7797l16.28158.20326Zm11.53077-15.94961a76.38975,76.38975,0,0,1-3.465-14.78186,166.08962,166.08962,0,0,1-.526-18.39107s1.84864,7.15985,3.46306,8.31695c1.61828,1.15419,4.61967,9.00607,4.61967,9.00607s1.60861,11.69,2.3742,15.61908c-2.1182.42441-3.90053-.82415-6.4654.23084Zm16.73455-46.337s-3.92763-1.387-5.08134-9.93136a38.57833,38.57833,0,0,1,1.386-15.937s-.2323,11.779,1.15177,14.08935c1.38405,2.30983,2.54067,3.00186,4.157,6.00566,1.61635,3.00283-.69687,4.84905-1.61635,5.77338Z" transform="translate(-105.20674 -110.54487)"/><path class="cls-7" d="M211.95556,830.02716l.80334-.50813C215.122,829.59936,211.95556,830.02716,211.95556,830.02716Z" transform="translate(-105.20674 -110.54487)"/><path class="cls-5" d="M182.39329,834.51326s3.69631-.61557,5.543-3.38659a19.17828,19.17828,0,0,1,15.42937-8.37792,69.39971,69.39971,0,0,1,16.599,2.21788l-7.20583,4.549c-.76268-.0242-2.09544-.01452-4.30123.05807-9.04237.3-10.43465,9.2432-10.43465,9.2432l-31.87211-4.38931" transform="translate(-105.20674 -110.54487)"/><path class="cls-8" d="M179.31448,883.92132a12.53071,12.53071,0,0,0,10.93214,2.92492c6.6222-1.385,10.62581-4.31092,10.93408-9.39322.3073-5.08134-1.38552-7.08242-1.38552-7.08242s-7.39214,2.31322-10.9336,5.39106-6.15858,8.00916-9.54711,8.164Z" transform="translate(-105.20674 -110.54487)"/><path class="cls-9" d="M184.53132,882.38143a11.79357,11.79357,0,0,0,7.91915.3165c5.47333-1.82445,5.83725-7.51554,5.83725-7.51554s3.35466,9.85054-6.056,11.74661a13.77415,13.77415,0,0,1-12.01133-2.85329l4.31092-1.69378Z" transform="translate(-105.20674 -110.54487)"/><path class="cls-10" d="M208.97692,845.291c3.04977-2.531.77817-4.87906,1.01917-7.75413a9.5514,9.5514,0,0,1,.75494-3.76987c2.80683-4.4319,9.42806-5.77676,9.49629-5.79079l3.10688-.60879-2.05673-2.40662c-.26616-.31166-8.71571-8.37211-21.79169-4.15218-9.14641,2.95008-15.9167,12.9521-16.16834,13.35667l4.58289,2.15594c.05323-.08517,5.40558-9.48662,13.255-12.01616a20.06378,20.06378,0,0,1,14.68749,1.176,17.21522,17.21522,0,0,0-8.24145,6.30861,11.89455,11.89455,0,0,0-1.31631,5.43849c-.21293,2.52373-.41618,4.90616-2.27451,6.44895l4.93132,1.61393Zm8.14466,36.94038s-3.841-4.76533-4.97972-14.038c-.44668-3.65227.346-10.85616,1.61635-13.62767a55.67875,55.67875,0,0,0,1.50263,13.62767S216.42907,880.84541,217.12158,882.23141Z" transform="translate(-105.20674 -110.54487)"/><path class="cls-10" d="M196.85914,840.47827c.00242-.00968,1.234-5.39009,4.64725-8.10595,4.81421-3.82988,10.69356-1.7925,10.74825-1.7746l.85656-2.63746a15.82729,15.82729,0,0,0-13.19891,2.14384c-6.23311,4.3777-6.97837,8.346-7.04612,8.78443l3.98765,1.58973Zm8.19451,38.33557a9.98085,9.98085,0,0,0,1.65168-6.06035c-.17905-1.568-.905-3.17657-2.20191-3.74761-2.41-1.055-3.47854,1.67442-3.47854,1.67442s3.3924.83721,4.02878,8.135Z" transform="translate(-105.20674 -110.54487)"/><path class="cls-10" d="M182.91691,883.21283c-.08372.15728-.12728.24536-.12728.24536s6.28635,4.71936,12.73093-.06969c3.45192-2.56487,3.12624-8.90929,2.06641-11.6a20.792,20.792,0,0,0-7.02677,3.05849c2.46324-2.19708,4.6187-3.81342,4.611-3.85214l2.80055-.79366,5.43461-1.86316c.06775.41619,2.0519,9.71746-3.67793,16.0522-2.54067,2.81167-14.44069,9.10286-20.08823-1.65506l3.26658.48877Z" transform="translate(-105.20674 -110.54487)"/><path class="cls-10" d="M183.5044,883.90438c-3.54048,5.38864-12.47106,2.30935-12.3162-3.38756,0,0,5.96695,3.29416,11.23993-2.771,3.07881-3.53758,12.94629-13.30343,26.32473-10.05622-9.23836,2.03253-21.47133,10.4724-25.24846,16.22158Z" transform="translate(-105.20674 -110.54487)"/><path class="cls-10" d="M210.00287,899.11259a10.61984,10.61984,0,0,0-3.857,8.256c-.00193,2.33258.23083,14.05353,1.387,21.21339-1.73733,1.12854-2.94718,1.36858-4.67677,2.51889-.86624-8.29275-1.48859-20.31181-1.19726-25.16377.33053-5.5314,3.29077-9.2432,6.03663-10.82567.86-.49459,1.75912-.98094,2.6665-1.4702,4.70387-2.54164,9.56743-5.17087,9.56743-9.66036,0-3.51193-1.36664-4.61047-2.81167-5.77482l-.15486-.12582a8.38106,8.38106,0,0,1-2.68731-3.0972c-1.75669-3.94554-2.04706-13.99546-.00484-16.54727,1.01627-1.27275,3.74567-5.55076,2.96169-8.42051a3.85869,3.85869,0,0,0-2.1148-2.48744,10.57948,10.57948,0,0,0-4.77646-.91948,37.43468,37.43468,0,0,0-10.41917,1.88736c-7.94625,2.51647-17.533,9.77553-20.28665,11.94357-.07743.05807-.12582.09679-.1355.10163l-1.76153,1.22436,1.09854-1.8438c.06775-.11614,7.03161-11.57094,19.48815-15.77151a39.54083,39.54083,0,0,1,11.86131-2.1874,15.38107,15.38107,0,0,1,7.01709,1.44213,8.46417,8.46417,0,0,1,4.46675,5.38138c1.5728,5.76853-3.54725,12.19038-3.72632,12.39847-.60008,1.06466-.85173,8.80766.52749,11.9097a4.81054,4.81054,0,0,0,1.36954,1.37922q.31213.24681.68235.52265c1.94542,1.46633,4.88777,3.6876,4.88777,8.80282,0,6.99774-7.09452,10.79664-12.7953,13.84544-.934.50329-1.82928.97756-2.63262,1.44213Z" transform="translate(-105.20674 -110.54487)"/><path class="cls-10" d="M201.53881,844.46737c-1.12854-1.91155-4.01475-5.60254-10.66694-8.84637a57.90385,57.90385,0,0,0-25.54076-5.45881v-.00194h-.03388v.00484A57.95507,57.95507,0,0,0,139.755,835.6239c-6.6493,3.24722-9.53356,6.93482-10.666,8.84637l-.48394.64364,5.69546,1.26743.18293-.22745.09533-.21c.08711-.37747.85173-2.41,7.20292-5.50721a53.35382,53.35382,0,0,1,23.53387-4.99423,53.33371,53.33371,0,0,1,23.53387,4.99423c6.34925,3.0972,7.11872,5.12974,7.20583,5.50624l.09195.20954.17905.22745,5.69594-1.26792-.48394-.64073Z" transform="translate(-105.20674 -110.54487)"/><path class="cls-10" d="M208.97692,845.291c3.04977-2.531.77817-4.87906,1.01917-7.75413a9.5514,9.5514,0,0,1,.75494-3.76987c2.80683-4.4319,9.42806-5.77676,9.49629-5.79079l3.10688-.60879-2.05673-2.40662c-.26616-.31166-8.71571-8.37211-21.79169-4.15218-9.14641,2.95008-15.9167,12.9521-16.16834,13.35667l4.58289,2.15594c.05323-.08517,5.40558-9.48662,13.255-12.01616a20.06378,20.06378,0,0,1,14.68749,1.176,17.21522,17.21522,0,0,0-8.24145,6.30861,11.89455,11.89455,0,0,0-1.31631,5.43849c-.21293,2.52373-.41618,4.90616-2.27451,6.44895l4.93132,1.61393Z" transform="translate(-105.20674 -110.54487)"/><path class="cls-10" d="M203.1058,843.85374l.6417-.53427c1.7083-1.417,1.89994-3.70551,2.10609-6.13826a12.28265,12.28265,0,0,1,1.385-5.64271,17.07264,17.07264,0,0,1,7.49135-6.08309,20.3932,20.3932,0,0,0-7.81849-1.58731,18.19447,18.19447,0,0,0-5.59238.86625c-7.27841,2.3471-12.42073,10.82568-13.00339,11.82259l-.21777.34359-5.42494-2.55035.27585-.44038c.06436-.10163,6.87191-10.4724,16.41757-13.55024a24.75026,24.75026,0,0,1,7.62685-1.24372,21.63766,21.63766,0,0,1,14.65846,5.5314l2.57455,3.01009-3.88117.75978c-.06291.00968-6.52348,1.3647-9.19481,5.58464a9.55049,9.55049,0,0,0-.68235,3.56178,8.67564,8.67564,0,0,0,.29037,2.55519c.38714,1.78573.78882,3.63921-1.47117,5.512l-.19357.1597-5.97178-1.95995Z" transform="translate(-105.20674 -110.54487)"/><path class="cls-10" d="M196.85914,840.47827c.00242-.00968,1.234-5.39009,4.64725-8.10595,4.81421-3.82988,10.69356-1.7925,10.74825-1.7746l.85656-2.63746a15.82729,15.82729,0,0,0-13.19891,2.14384c-6.23311,4.3777-6.97837,8.346-7.04612,8.78443l3.98765,1.58973Z" transform="translate(-105.20674 -110.54487)"/><path class="cls-10" d="M192.36094,839.18277l.05323-.362c.06775-.4578.84834-4.60708,7.23293-9.09512a16.27653,16.27653,0,0,1,13.60831-2.20288l.44038.14518-1.14208,3.51822-.44038-.14518a12.414,12.414,0,0,0-3.644-.53233,10.40861,10.40861,0,0,0-6.659,2.23579c-3.26174,2.59874-4.47158,7.79139-4.48126,7.84462l-.11615.53233-4.82969-1.92607Zm19.59461-9.15609.56862-1.75088a15.65337,15.65337,0,0,0-3.7747-.44716,14.61054,14.61054,0,0,0-8.57052,2.65391c-5.23959,3.68276-6.492,7.01128-6.77609,8.12047L196.547,839.855c.41135-1.46149,1.77315-5.53721,4.6729-7.84462a11.49525,11.49525,0,0,1,7.2397-2.4313,13.766,13.766,0,0,1,3.49887.44813ZM176.52023,954.39129a23.12463,23.12463,0,0,1-4.128-6.12327,1.90885,1.90885,0,0,1,.28213-2.11,3.85378,3.85378,0,0,1,2.8049-.84011h2.03253c2.1148,0,4.58772,0,6.0589.00484l1.234.00484a4.0454,4.0454,0,0,1,2.99557.9098,2.18374,2.18374,0,0,1,.28068,2.502,16.39275,16.39275,0,0,1-4.34092,5.74433,5.81889,5.81889,0,0,1-3.72148,1.33083,4.69719,4.69719,0,0,1-3.48919-1.4131Zm2.05964-70.16993,4.92454-.317a25.78122,25.78122,0,0,0-2.07367,5.092c-.92432,3.24722.84205,7.99465.84205,7.99465s-6.57187-7.43811-3.69728-12.7711Z" transform="translate(-105.20674 -110.54487)"/><path class="cls-6" d="M165.31369,866.62927c-3.14076,0-7.23486-.08566-10.3069-2.29386,0,0,4.02248,7.05193,10.30157,7.05193l.00484-.89238.0058.89238c6.27957,0,10.30157-7.051,10.30157-7.051-3.072,2.20675-7.16953,2.29386-10.3069,2.29386Z" transform="translate(-105.20674 -110.54487)"/><path class="cls-10" d="M173.96019,866.5954a15.54993,15.54993,0,0,1-17.293.00048s4.58772,5.59915,8.62377,5.64271v.00484h.02226c.00726,0,.01452.00484.02274.00484,4.036-.04355,8.6286-5.63787,8.6286-5.63787Zm10.77,102.22061-.35134-4.56595c14.794-1.13726,19.45428-15.31323,19.47847-16.80521h4.58288c.00484,3.45047-6.1702,20.02339-23.70324,21.37067Z" transform="translate(-105.20674 -110.54487)"/><path class="cls-8" d="M189.65815,939.126a11.49314,11.49314,0,0,0-.03242-4.56208c1.3347-1.00175,3.72438-1.37438,5.51882-1.95995,1.4673-.92916,8.978.94852,14.42618-5.64271,6.825-8.256,5.38622-13.18729,5.38622-13.18729,1.75185,1.94543,3.44661,1.20016,6.116,10.26915,2.67133,9.069-1.25582,15.38921-8.5715,21.73362-3.45532,2.99557-8.34211,4.22961-12.54462,4.70387,1.40826-1.4131-2.40033-1.55828-5.02811-2.54067a7.01687,7.01687,0,0,0-1.72282-5.84113,8.9045,8.9045,0,0,0-3.45047-2.07609c-.07259-.16454-.13067-.31456-.19842-.47426a4.27476,4.27476,0,0,0,.1113-.44523Z" transform="translate(-105.20674 -110.54487)"/><path class="cls-9" d="M194.95823,947.90169c.15389-.44523.26617-.90012.37941-1.35648.12341-.49845.72833-1.91252-.01839-.29859a5.9854,5.9854,0,0,0,.40941-1.26791c11.84775-.01549,22.15465-8.1495,20.16179-25.25184,1.551-2.05916,3.72439,4.15218,3.72439,4.15218s5.93161,17.22236-9.38693,23.89682c-5.10408,2.22611-9.61438,3.82214-10.679,3.178a5.35758,5.35758,0,0,1-4.96858-2.11142c.14034-.31213.271-.62428.38231-.94126Z" transform="translate(-105.20674 -110.54487)"/><path class="cls-10" d="M189.86963,936.64628a9.512,9.512,0,0,0-1.009-4.23445c-.04936-.09679-.10647-.18874-.15777-.28165,4.55869-.03872,9.80941-.47571,14.281-2.26482,4.9139-1.96624,11.06136-8.69151,12.11779-16.59324,0,0,9.25579,7.14194,6.53606,22.42856-2.55519,14.35454-14.56505,19.03422-28.26387,19.82593-.00726-.09291,1.54134-3.29077,1.0516-5.2483,7.77687.56621,16.47806-2.439,20.67864-9.34967,3.84246-6.32022,2.76328-17.11686,1.18565-18.69933-3.85214,12.16135-17.72178,14.63426-26.41813,14.42133Z" transform="translate(-105.20674 -110.54487)"/><path class="cls-10" d="M195.40152,940.24677c-1.63668-1.76928-4.6458-3.87828-11.584-3.87828l-18.47673-.01113h-.04355c-5.32331.00387-18.48156.01113-18.48156.01113-6.93482,0-9.94491,2.11-11.58062,3.87828-2.38581,2.57455-2.75844,6.15713-1.10822,10.63452,4.38447,11.91744,10.54983,24.02506,31.17524,24.042v.00193h.0242c.00968,0,.01452.00484.0242.00484,20.6254-.01452,26.79077-12.12262,31.17524-24.042,1.65023-4.47642,1.27759-8.05755-1.10821-10.6321Zm-3.21141,9.79875c-2.08916,5.98437-7.70428,20.46958-26.87787,20.49474-19.17553-.02517-24.78823-14.50989-26.87787-20.49474-1.15564-3.3198-1.06757-5.77724.271-7.30359.91464-1.04337,3.01493-2.289,7.80107-2.289l5.00052-.00145c3.68905-.00338,8.32082-.00727,13.80673-.00967,5.483.00242,10.11719.00629,13.80528.00967l4.99907.00193c4.78759,0,6.88739,1.24372,7.802,2.28418,1.33712,1.5244,1.42617,3.98281.27,7.30261Z" transform="translate(-105.20674 -110.54487)"/><path class="cls-10" d="M188.43524,927.94024a45.14981,45.14981,0,0,0,7.50006,13.08906s-6.92514-.3194-7.30746-1.54376a143.08186,143.08186,0,0,1-8.54149-31.2575c2.15836,3.54242,8.14466,19.08649,8.3576,19.70592Z" transform="translate(-105.20674 -110.54487)"/><path class="cls-10" d="M277.91809,890.77079a21.30267,21.30267,0,0,0-3.736-1.7627,26.602,26.602,0,0,0-4.43028-1.15905,29.60488,29.60488,0,0,0-5.11865-.42243,27.99818,27.99818,0,0,0-9.54892,1.55325,21.48137,21.48137,0,0,0-7.34085,4.37909,19.23624,19.23624,0,0,0-4.69092,6.71719,21.77239,21.77239,0,0,0-1.63385,8.50341,20.78312,20.78312,0,0,0,1.7121,8.43224,20.4973,20.4973,0,0,0,4.72328,6.71308,22.13687,22.13687,0,0,0,7.11315,4.43028,24.4868,24.4868,0,0,0,8.91351,1.60031,44.80688,44.80688,0,0,0,4.94214-.253,30.6842,30.6842,0,0,0,4.37144-.78839,23.04288,23.04288,0,0,0,7.40145-3.37712.74354.74354,0,0,0,.32359-.61776v-16.868a.74825.74825,0,0,0-.7472-.7472h-15.1206a.74826.74826,0,0,0-.74721.7472v6.74838a.74825.74825,0,0,0,.74721.7472h5.43636v4.78918a18.35959,18.35959,0,0,1-2.38282.66484,17.29134,17.29134,0,0,1-3.46538.31182,12.78281,12.78281,0,0,1-4.6715-.84134,10.20671,10.20671,0,0,1-3.64189-2.41811,11.265,11.265,0,0,1-2.41812-3.91253,15.2125,15.2125,0,0,1-.88253-5.3834,14.71159,14.71159,0,0,1,.80016-4.97157,10.90824,10.90824,0,0,1,2.25338-3.76544,10.01013,10.01013,0,0,1,3.51833-2.41224,12.18043,12.18043,0,0,1,4.7068-.86488,22.98484,22.98484,0,0,1,2.60051.12944,13.33446,13.33446,0,0,1,4.16552,1.15905c.68249.31771,3.85369,2.12394,4.58913,2.53579.506.28241.81192.30006,1.15317-.1765l4.2773-6.24239a.75016.75016,0,0,0-.11179-.98842,20.87717,20.87717,0,0,0-3.03-2.224Z" transform="translate(-105.20674 -110.54487)"/><path class="cls-10" d="M324.40427,928.02628l-8.95471-13.76743h-.00416a7.72607,7.72607,0,0,0-1.6638-1.85035c-.20183-.16058-.406-.3118-.61782-.45591a14.301,14.301,0,0,0,2.4005-1.39615,13.14674,13.14674,0,0,0,2.84528-2.77879,11.66007,11.66007,0,0,0,1.76153-3.41242,12.73774,12.73774,0,0,0,.59007-3.90313,12.52018,12.52018,0,0,0-1.00019-5.014,10.30919,10.30919,0,0,0-3.21822-4.05369,16.04941,16.04941,0,0,0-5.57168-2.61228,31.07492,31.07492,0,0,0-8.0604-.91434H289.07911a.74757.74757,0,0,0-.74723.74723v39.956a.749.749,0,0,0,.74723.74723h9.8666a.74719.74719,0,0,0,.74723-.74723V914.53541h1.76271a3.10264,3.10264,0,0,1,1.41789.24532,2.18744,2.18744,0,0,1,.80311.82136l7.06607,11.6046a4.574,4.574,0,0,0,4.195,2.11221h8.95471a.74527.74527,0,0,0,.74716-.74723A.73726.73726,0,0,0,324.40427,928.02628Zm-15.12061-24.68186-.0118.00349a4.22465,4.22465,0,0,1-1.11788,1.69623,5.54782,5.54782,0,0,1-2.04743,1.16493,10.00674,10.00674,0,0,1-3.18884.44129h-3.2183V896.2989h3.22416c2.35931,0,4.10081.44359,5.17751,1.315a4.25009,4.25009,0,0,1,1.54737,3.5301A6.239,6.239,0,0,1,309.28366,903.34442Z" transform="translate(-105.20674 -110.54487)"/><path class="cls-10" d="M365.01214,887.86845h-9.86664a.74827.74827,0,0,0-.74721.7472V912.282a10.8666,10.8666,0,0,1-.52951,3.5301,7.01948,7.01948,0,0,1-1.48265,2.54168,6.46422,6.46422,0,0,1-2.37105,1.58266,9.80579,9.80579,0,0,1-6.54245,0,6.40133,6.40133,0,0,1-2.36517-1.59442,7.23028,7.23028,0,0,1-1.48853-2.56049,10.97205,10.97205,0,0,1-.52363-3.52775V888.61507a.74826.74826,0,0,0-.74721-.7472h-9.86664a.74827.74827,0,0,0-.74721.7472v23.6652a18.459,18.459,0,0,0,1.312,7.02961,15.74239,15.74239,0,0,0,3.80075,5.55579,17.37548,17.37548,0,0,0,6.00706,3.61248,25.00566,25.00566,0,0,0,15.77956.00117,17.37816,17.37816,0,0,0,6.00117-3.61365,15.8598,15.8598,0,0,0,3.81251-5.55167,18.28207,18.28207,0,0,0,1.32379-7.03314v-23.6652a.74324.74324,0,0,0-.74132-.7472Z" transform="translate(-105.20674 -110.54487)"/><path class="cls-10" d="M411.4624,887.86845h-8.69581a.74825.74825,0,0,0-.7472.7472v21.143c0,.63541.01765,1.30614.05884,2.018l-18.70366-22.22787a8.10528,8.10528,0,0,0-.80016-.81193,3.34011,3.34011,0,0,0-1.84742-.80017,10.65929,10.65929,0,0,0-1.17082-.05884H374.361a.74827.74827,0,0,0-.74721.7472v39.95431a.74826.74826,0,0,0,.74721.7472h8.69582a.75332.75332,0,0,0,.75309-.7472V907.1634c0-.53186-.01765-1.0908-.04707-1.68856l18.56245,22.04548a4.88177,4.88177,0,0,0,1.80624,1.42028,5.79014,5.79014,0,0,0,2.2122.38478h5.1363a.74825.74825,0,0,0,.7472-.7472V888.62332a.74354.74354,0,0,0-.74133-.75014Z" transform="translate(-105.20674 -110.54487)"/><path class="cls-10" d="M452.25273,887.86845H418.46378a.74825.74825,0,0,0-.7472.7472v7.34849a.74927.74927,0,0,0,.7472.74838h11.21984v31.85916a.7494.7494,0,0,0,.7472.7472h9.86075a.749.749,0,0,0,.7472-.7472V896.71252h11.214a.74851.74851,0,0,0,.7472-.74838v-7.34849A.74376.74376,0,0,0,452.25273,887.86845Z" transform="translate(-105.20674 -110.54487)"/><path class="cls-11" d="M1014.498,179.463c-.09695,1.92331-.08739,3.83652-.30537,5.72346q-2.44568,21.17149-4.97212,42.33363c-.27859,2.352-.67927,4.69024-.926,7.04507-.90041,8.59376-3.05368,11.7767-11.65405,16.461,2.23991-2.98746,4.17467-5.35753,5.87615-7.88468,2.82652-4.19811,3.00484-7.004.81832-9.0809-2.38523-2.26559-6.09811-2.15669-9.83919.30235-.7133.46886-1.39805.98117-2.07512,1.45873-3.69329-3.20334-5.761-2.92623-7.26868,1.707-1.68119,5.16653-5.07153,8.6188-9.28759,11.56223-.844.58928-1.7851,1.03959-2.68143,1.554l-.74415-.50934c1.2312-3.35865,2.36518-6.75691,3.71385-10.06771,2.802-6.87866,5.72544-13.70781,8.58252-20.56416.8824-2.11757,2.07143-4.56413-.93462-5.7701-2.74044-1.09944-4.42143.63606-5.40933,3.16054-3.921,10.01981-7.77792,20.06686-11.894,30.00634-.76053,1.83656-2.6116,3.22152-3.95933,4.81492l-1.6025-.86311c.94719-3.049,1.84936-6.11315,2.86135-9.14053.47581-1.42336,1.605-2.76588,1.63728-4.16354.03671-1.58788-.33083-3.87077-1.3987-4.64818-1.91133-1.39146-3.39063.39682-4.21619,2.12817-1.20192,2.52063-2.03245,5.22623-3.32507,7.69386-1.78172,3.40132-3.894,6.605-7.65384,8.03182l-1.07488-.499a66.55491,66.55491,0,0,1,1.777-6.47533,59.98862,59.98862,0,0,1,2.98078-6.08291c.92867-1.80349,1.32332-3.60072-.78143-4.75973-2.086-1.1487-3.917-.253-4.92691,1.64482a73.57077,73.57077,0,0,0-3.82306,8.53261,41.54028,41.54028,0,0,0-2.49491,8.31685c-.80215,5.30429,2.79087,8.23208,7.93278,6.54792a41.22578,41.22578,0,0,0,5.88828-2.91775c1.74933,1.1207,3.41393,2.97243,5.231,3.13654,1.92538.1739,3.99566-1.25625,6.21049-2.06138,3.77257,4.31273,7.60493,1.72523,12.23236-.90511-1.58848,3.524-2.89254,6.2388-4.03752,9.01917a22.19453,22.19453,0,0,0-1.8508,5.78977c-.12311,1.1083.72826,3.059,1.58642,3.36035a4.58676,4.58676,0,0,0,3.97074-.87913c1.23588-1.211,1.9045-3.06757,2.61788-4.73311,2.58285-6.03016,4.86668-12.19987,7.70835-18.1027,1.37117-2.84827,3.61963-5.31629,5.70011-7.76141.90143-1.0594,2.3817-1.62626,3.599-2.41684l.70842.63018c-.75069,1.16463-1.44918,2.36721-2.26269,3.48618-1.83488,2.52391-3.93144,4.88178-5.54694,7.53526-2.37959,3.90853-.1588,7.80028,4.38029,7.12014,3.22756-.48363,6.24649-2.51,9.28968-3.98953,1.02458-.49812,1.83726-1.43207,3.59192-2.84958-.46759,4.16883-.82778,7.48763-1.214,10.80339-1.2086,10.3761-2.45715,20.74768-3.62337,31.12853-.35256,3.13813-1.94068,5.3543-4.865,6.22372a148.70006,148.70006,0,0,1-15.534,4.029c-15.76064,2.88-31.577,2.12471-47.30486-.285-4.62213-.70817-9.10355-2.45085-13.58535-3.91558-2.73205-.89283-4.06966-3.15673-4.33415-5.92231-1.005-10.50847-1.93894-21.02381-2.87752-31.53854-.08441-.94569-.01122-1.90545-.01122-3.47442,5.69079,1.164,9.529-2.07243,13.86578-5.70251-.7575,3.03789-1.384,5.38417-1.9199,7.751-.44786,1.97809-.62952,4.21079,1.72366,4.89941,2.57327.753,3.66067-1.47325,4.29218-3.413,1.86621-5.73214,3.50072-11.53923,5.29579-17.29518,1.02435-3.28462,2.27061-6.5016,3.239-9.80126a6.77411,6.77411,0,0,0,.14479-3.77685,3.76269,3.76269,0,0,0-2.35855-2.24639,3.58091,3.58091,0,0,0-2.98389,1.27355,20.124,20.124,0,0,0-2.488,5.5475c-1.7713,6.29268-6.10583,10.55472-11.14129,14.18446-3.02955,2.18379-4.929,1.133-4.9264-2.58233.00559-7.94829,3.30355-14.86064,7.43385-21.34549a42.19143,42.19143,0,0,1,7.08885-8.28276c2.75081-2.52046,5.14758-1.8674,7.25714,1.21915,1.29859,1.9,2.33676,4.58751,5.44111,2.90166,1.9026-1.03322,1.86816-4.91291.126-7.33226-4.02036-5.58305-10.31469-6.77961-16.22507-2.98465-6.8746,4.4141-11.10819,10.99154-14.60653,18.14206-.37787.77237-.70786,1.56831-1.09244,2.33711-.0856.17111-.3081.27372-.91841.78713-1.69081-17.75028-3.34922-35.16051-5.02191-52.72069C941.99014,189.18941,978.08912,189.61071,1014.498,179.463Z" transform="translate(-105.20674 -110.54487)"/><path class="cls-11" d="M921.37243,302.92794a141.44576,141.44576,0,0,0,75.27356-.10153c-.05964.33943-.011.7162-.1765.90973-5.25138,6.13867-4.925,13.70312-5.38045,21.05516-.46591,7.52094-.946,15.04287-1.24211,22.57137a5.43893,5.43893,0,0,1-2.93928,4.929c-13.41071,8.03685-27.58042,9.90824-42.46264,5.0529-4.37364-1.4269-8.5215-3.54577-12.77307-5.34694-1.90578-.80739-2.55147-2.2339-2.69953-4.3044-.79811-11.161-1.3922-22.35763-2.83763-33.44013C925.60924,310.2235,922.9266,306.47521,921.37243,302.92794Z" transform="translate(-105.20674 -110.54487)"/><path class="cls-11" d="M1009.66933,114.92908c-5.902,6.54432-11.58763,12.85253-17.27791,19.15659-2.4551,2.71993-5.28009,5.1938-7.27263,8.21731a37.70734,37.70734,0,0,0-3.86419,9.05478c-1.40652,4.29046-2.4077,8.7121-3.71948,13.036-.685,2.258-.05059,3.13381,2.30531,3.32181,7.83112.625,15.66867,1.24407,23.4664,2.17739a57.81681,57.81681,0,0,1,9.67173,2.44264c.78812.238,1.35362,1.21321,2.02144,1.84954-.64085.65652-1.17159,1.68136-1.94005,1.9111-5.96272,1.78264-11.87952,4.00736-17.98727,4.94883a233.34853,233.34853,0,0,1-27.63645,2.653c-18.35866.61772-36.62016-.47142-54.42981-5.54789a26.31231,26.31231,0,0,1-4.792-1.88077,11.25071,11.25071,0,0,1-2.23295-2.04332c.83641-.73959,1.557-1.83147,2.5313-2.15169a35.70285,35.70285,0,0,1,8.42946-2.13215c15.03342-1.04889,30.07695-2.02306,45.13284-2.62819,3.61278-.14521,5.40823-.85641,6.19454-4.623,1.36264-6.5272,3.21564-12.95733,5.02886-19.38136a10.99639,10.99639,0,0,1,2.36356-4.39805c7.94077-8.51,16.00524-16.9044,24.01868-25.34667,3.7234-3.92265,3.71544-3.93889,7.92863-.54461C1008.18808,113.48666,1008.70439,114.03031,1009.66933,114.92908ZM963.5555,174.15651c2.50328,2.82674,8.36818,3.62341,11.58879,1.86918.59737-.32538.91353-1.1671,1.35948-1.77051a13.41,13.41,0,0,0-2.25278-.37226c-2.70261.003-5.40522.08334-8.10759.14524C965.40794,174.045,964.67333,174.09972,963.5555,174.15651Z" transform="translate(-105.20674 -110.54487)"/><path class="cls-12" d="M1653.59082,913.05042c1.83432-5.826,3.40366-10.89177,5.02567-15.94057,1.84015-5.72781,2.82285-6.16251,9.737-3.98007-1.4877,4.68478-2.9585,9.39336-4.47974,14.08562-1.58957,4.90323-3.29312,9.77049-4.81839,14.69327-.82947,2.67708-2.09686,4.12846-5.26074,4.11116-3.14258-.01721-4.394-1.40887-5.223-4.12663-1.53213-5.02263-3.30148-9.9729-5.36639-16.1292-2.20114,6.48837-3.75214,11.87508-5.939,16.99-.62341,1.45819-3.04205,2.824-4.73215,2.94865-1.49442.1102-4.07407-1.22282-4.53571-2.50754-3.31488-9.22581-6.22754-18.59677-9.20978-27.94023a7.931,7.931,0,0,1-.031-2.35941c6.63742-1.81172,7.21933-1.51332,9.1597,4.5535,1.51663,4.74208,3.022,9.48775,4.92081,15.45158,2.042-6.259,3.8042-11.43263,5.403-16.65631.79956-2.61232,1.82748-4.28967,5.08032-4.33305,3.42572-.0457,4.14261,2.0437,4.92154,4.48769C1649.93408,901.70537,1651.64758,907.00477,1653.59082,913.05042Z" transform="translate(-105.20674 -110.54487)"/><path class="cls-12" d="M1710.32089,892.44735c4.33313-.44792,8.16846-1.588,11.7663-1.07207,9.48569,1.36028,15.213,12.11066,12.50174,22.49437-2.713,10.3905-11.53192,15.27159-21.39566,12.03337a11.59157,11.59157,0,0,0-5.07526-.03166c-4.85895.71358-6.213-.17674-6.24951-5.01556-.09058-11.99655-.00345-23.99432-.04587-35.99141-.01086-3.06607.65155-5.03154,4.41373-5.04625,4.034-.01576,4.13443,2.38829,4.09259,5.24767C1710.291,887.6639,1710.32089,890.263,1710.32089,892.44735Zm16.43756,16.59973c-.00244-5.92636-3.21551-9.99648-8.00888-10.14516-5.06543-.15712-8.48331,3.93355-8.47577,10.1442.00748,6.153,2.99765,9.90237,7.98459,10.01186C1723.52741,919.17365,1726.76108,915.36523,1726.75845,909.04708Z" transform="translate(-105.20674 -110.54487)"/><path class="cls-12" d="M1745.447,924.64628c0,3.06883-.1102,5.87531.03137,8.669.13852,2.73267-1.01306,4.01286-3.71723,4.07208-2.91171.06375-4.19049-1.242-4.17438-4.21281.06683-12.31306.13586-24.62817-.03043-36.93938-.06488-4.80357,2.94321-4.22873,6.0051-4.18648a21.65593,21.65593,0,0,0,6.44974-.40311,15.74807,15.74807,0,0,1,19.82172,11.26918c3.47485,14.4771-4.30716,24.41841-15.932,23.8712C1751.34226,926.66553,1748.83121,925.53518,1745.447,924.64628Zm17.13022-15.84789c-.05572-5.93892-3.69342-10.04262-8.77893-9.90356-4.71832.129-8.28622,4.409-8.33249,9.99556-.04788,5.78558,3.71164,10.18214,8.67575,10.14574C1759.18268,918.99914,1762.63361,914.811,1762.57718,908.79839Z" transform="translate(-105.20674 -110.54487)"/><path class="cls-12" d="M1675.58322,911.82545c3.165,7.69147,9.26654,9.57222,14.84155,5.16379,2.49915-1.97618,4.50909-2.90558,6.76669-.22749,2.72006,3.22673-.44711,4.96347-2.24414,6.438-5.5669,4.56764-11.91922,4.86746-18.27319,1.91614-6.809-3.16267-9.44232-9.11382-9.40805-16.2796.06091-12.73189,10.98349-20.88483,22.18665-16.71782,6.23157,2.31781,10.93512,9.71164,9.77533,16.273-.23846,1.34911-2.67844,3.18867-4.19412,3.2787C1688.78677,912.04111,1682.50476,911.82545,1675.58322,911.82545Zm.66-7.2128h14.68268c-1.18036-4.2547-3.68335-5.85533-7.44846-5.80226C1679.73178,898.8632,1677.2608,900.51232,1676.2432,904.61265Z" transform="translate(-105.20674 -110.54487)"/><path class="cls-12" d="M1790.14963,903.46874c-.74289-4.87674-4.01648-6.08488-10.21939-3.54967-2.97369,1.21538-5.25845,1.44075-6.1817-2.08437-.28372-1.0834.27136-3.15926,1.101-3.63707,5.7189-3.29375,11.80866-4.59979,18.07565-1.57661,4.61844,2.22789,5.93872,6.64285,6.17273,11.24231.30408,5.97818.09076,11.98192.13611,17.97438.02173,2.86682-1.13648,4.20268-4.20343,4.13956a61.12686,61.12686,0,0,0-7.82321.77176c-5.46576.59952-10.381-.50845-13.70691-5.22662a10.91475,10.91475,0,0,1-.52857-12.27606c2.7674-4.83482,7.43091-6.36528,12.76892-6.16138C1787.19559,903.14057,1788.64511,903.3339,1790.14963,903.46874Zm-4.27731,17.85954c2.19614-3.10619,4.7052-5.12549,4.47888-6.76793-.22339-1.62151-3.07526-3.75821-5.02182-4.05751-2.857-.4393-6.19382,1.05037-5.529,4.63243C1780.153,917.03529,1782.95111,918.48144,1785.87231,921.32828Z" transform="translate(-105.20674 -110.54487)"/><path class="cls-12" d="M1860.32336,925.19323c-5.40747.94913-9.08551,1.6199-11.876-2.27136-2.21576-3.0898-4.69568-5.99026-8.0091-10.17584,0,4.05562-.1062,6.78249.029,9.49733.144,2.89061-1.22674,3.7204-3.91357,3.71132-2.71088-.00919-3.97284-.96635-3.96124-3.77615q.08047-19.492.011-38.98442c-.00861-3.05145,2.00262-3.93991,4.24457-3.32758,1.40851.3847,3.35223,2.20923,3.42993,3.48672.36322,5.96953.16125,11.97342.16125,18.53987,5.70715-3.91129,8.5141-12.833,18.87964-8.6106l-12.71692,14.16588C1851.05609,913.20858,1855.35468,918.76762,1860.32336,925.19323Z" transform="translate(-105.20674 -110.54487)"/><path class="cls-12" d="M1827.51575,902.619c-9.59119-4.66859-12.59973-4.707-16.10413-.44449-2.89124,3.51674-2.91315,9.93982-.0459,13.48456,3.46863,4.28825,6.16223,4.25824,15.99914-.17818,3.97821,4.39288,3.73492,6.41591-1.10376,9.17758a16.67739,16.67739,0,0,1-21.54437-4.20079,18.44969,18.44969,0,0,1,.89252-23.82532,16.98068,16.98068,0,0,1,21.80725-2.82458C1831.88037,896.71387,1829.85175,899.46972,1827.51575,902.619Z" transform="translate(-105.20674 -110.54487)"/><polygon class="cls-13" points="1397.269 720.455 1397.269 746.851 1356.026 769.947 1332.93 756.749 1397.269 720.455"/><polygon class="cls-13" points="1403.868 720.455 1403.868 746.851 1445.111 769.947 1467.657 756.749 1403.868 720.455"/><polygon class="cls-13" points="1470.407 761.698 1470.407 836.486 1447.86 822.738 1447.86 774.896 1470.407 761.698"/><polygon class="cls-13" points="1465.457 839.785 1442.361 826.587 1403.868 848.584 1403.868 875.529 1465.457 839.785"/><polygon class="cls-13" points="1397.269 875.529 1397.269 848.034 1358.225 826.587 1334.579 840.335 1397.269 875.529"/><polygon class="cls-13" points="1330.18 836.486 1330.18 761.698 1353.276 774.896 1353.276 823.838 1330.18 836.486"/><polygon class="cls-14" points="1361.525 773.246 1400.568 751.8 1439.062 773.246 1400.568 795.243 1361.525 773.246"/><polygon class="cls-14" points="1358.775 778.745 1358.775 820.538 1397.269 841.435 1397.269 800.192 1358.775 778.745"/><polygon class="cls-14" points="1403.868 800.742 1441.811 778.745 1441.811 819.988 1403.868 841.435 1403.868 800.742"/></svg>